{"glyphs":{"0":{"ha":722,"x_min":50,"x_max":706,"o":"m 311 -17 q 209 2 257 -17 q 126 60 161 21 q 70 161 90 100 q 50 306 50 222 q 86 573 50 461 q 179 757 122 685 q 307 863 236 829 q 447 897 378 897 q 549 878 501 897 q 631 819 596 858 q 685 718 665 779 q 706 572 706 657 q 670 306 706 417 q 578 123 635 194 q 451 17 522 51 q 311 -17 381 -17 m 433 728 q 370 695 401 728 q 313 603 339 663 q 272 462 288 544 q 256 281 256 379 q 260 217 256 242 q 274 178 265 193 q 297 158 283 164 q 325 153 310 153 q 388 185 356 153 q 445 276 419 218 q 487 417 471 335 q 503 597 503 499 q 483 701 503 674 q 433 728 464 728 z "},"1":{"ha":722,"x_min":22,"x_max":614,"o":"m 58 178 l 236 178 l 333 658 l 172 658 l 200 797 q 331 829 278 810 q 436 881 383 849 l 600 881 l 458 178 l 614 178 l 578 0 l 22 0 l 58 178 z "},"2":{"ha":722,"x_min":-19,"x_max":681,"o":"m 6 125 q 187 272 103 204 q 333 401 271 340 q 429 519 394 463 q 464 631 464 575 q 440 697 464 672 q 372 722 417 722 q 307 704 336 722 q 242 658 278 686 l 136 786 q 400 897 268 897 q 516 880 464 897 q 605 831 568 863 q 661 753 642 799 q 681 653 681 708 q 656 531 681 588 q 588 418 632 474 q 485 306 544 363 q 358 186 426 250 l 625 186 l 589 0 l -19 0 l 6 125 z "},"3":{"ha":722,"x_min":-25,"x_max":689,"o":"m 114 258 q 197 185 150 210 q 283 161 243 161 q 381 187 346 161 q 417 261 417 213 q 408 308 417 288 q 377 342 400 328 q 315 363 354 356 q 214 369 275 369 l 244 525 q 351 534 308 525 q 417 559 393 543 q 451 597 442 575 q 461 644 461 618 q 436 701 461 681 q 367 722 411 722 q 309 710 338 722 q 239 672 281 697 l 133 814 q 271 880 204 863 q 408 897 338 897 q 521 882 469 897 q 610 838 572 867 q 668 769 647 810 q 689 681 689 729 q 649 540 689 597 q 506 447 610 483 l 506 442 q 608 364 576 413 q 639 258 639 315 q 612 139 639 190 q 538 53 585 88 q 426 1 490 18 q 289 -17 363 -17 q 207 -8 249 -17 q 124 19 165 0 q 45 69 83 38 q -25 144 7 100 l 114 258 z "},"4":{"ha":722,"x_min":11,"x_max":708,"o":"m 331 0 l 371 203 l 11 203 l 42 358 l 439 881 l 708 881 l 607 372 l 703 372 l 669 203 l 574 203 l 533 0 l 331 0 m 404 372 l 428 492 q 451 593 439 542 q 475 694 464 644 l 469 694 q 421 610 444 653 q 369 528 397 567 l 256 372 l 404 372 z "},"5":{"ha":722,"x_min":-11,"x_max":725,"o":"m 128 258 q 292 161 200 161 q 387 197 346 161 q 428 300 428 233 q 400 379 428 353 q 322 406 372 406 q 294 404 307 406 q 269 399 282 403 q 239 387 256 394 q 200 367 222 379 l 119 433 l 228 881 l 725 881 l 689 694 l 383 694 l 344 556 q 381 567 364 564 q 417 569 397 569 q 510 554 467 569 q 585 510 553 539 q 635 437 617 481 q 653 336 653 393 q 622 189 653 254 q 540 78 590 124 q 423 8 489 32 q 289 -17 357 -17 q 132 19 210 -17 q -11 144 54 54 l 128 258 z "},"6":{"ha":722,"x_min":69,"x_max":750,"o":"m 367 147 q 415 163 394 147 q 447 203 435 179 q 466 254 460 226 q 472 307 472 282 q 452 380 472 354 q 394 406 432 406 q 340 389 369 406 q 276 329 311 372 q 275 304 275 317 q 275 279 275 292 q 301 180 275 213 q 367 147 326 147 m 611 656 q 568 701 592 683 q 508 719 544 719 q 380 662 438 719 q 294 479 322 604 q 333 512 313 497 q 376 536 354 526 q 419 551 399 546 q 456 556 439 556 q 542 542 501 556 q 611 501 582 529 q 658 430 640 474 q 675 325 675 386 q 651 199 675 261 q 586 90 628 138 q 485 13 544 42 q 356 -17 426 -17 q 238 6 290 -17 q 147 72 185 29 q 90 173 110 114 q 69 303 69 232 q 103 548 69 438 q 197 735 136 658 q 340 855 257 813 q 522 897 424 897 q 601 885 565 897 q 665 855 638 874 q 714 814 693 836 q 750 772 735 792 l 611 656 z "},"7":{"ha":722,"x_min":128,"x_max":769,"o":"m 128 0 q 274 394 190 222 q 486 694 357 565 l 133 694 l 169 881 l 769 881 l 742 742 q 578 558 643 651 q 471 372 514 465 q 401 184 428 278 q 356 0 375 90 l 128 0 l 128 0 z "},"8":{"ha":722,"x_min":53,"x_max":706,"o":"m 325 389 q 272 326 293 364 q 250 239 250 288 q 274 167 250 199 q 347 136 297 136 q 423 163 390 136 q 456 247 456 190 q 422 322 456 292 q 325 389 388 353 m 456 517 q 499 576 481 542 q 517 656 517 610 q 501 717 517 692 q 442 742 485 742 q 381 717 406 742 q 356 647 356 693 q 381 574 356 604 q 456 517 406 544 m 53 214 q 67 294 53 257 q 106 363 81 332 q 164 415 131 393 q 236 453 197 438 l 236 458 q 161 639 161 538 q 185 747 161 699 q 249 828 208 794 q 344 879 290 861 q 458 897 397 897 q 547 885 503 897 q 627 849 592 874 q 684 784 663 824 q 706 689 706 744 q 665 551 706 610 q 553 456 624 492 l 553 450 q 631 365 603 417 q 658 247 658 314 q 632 138 658 186 q 560 55 606 89 q 456 2 515 21 q 331 -17 396 -17 q 234 -3 283 -17 q 144 38 185 10 q 78 109 104 65 q 53 214 53 153 z "},"9":{"ha":722,"x_min":11,"x_max":692,"o":"m 367 475 q 421 492 392 475 q 485 551 450 508 q 486 576 486 564 q 486 601 486 589 q 460 701 486 668 q 394 733 435 733 q 347 717 367 733 q 314 678 326 701 q 295 626 301 654 q 289 574 289 599 q 309 501 289 526 q 367 475 329 475 m 150 225 q 193 179 169 197 q 253 161 217 161 q 381 219 324 161 q 467 401 439 276 q 428 369 449 383 q 385 344 407 354 q 342 330 363 335 q 306 325 322 325 q 219 338 260 325 q 150 379 179 351 q 103 451 121 407 q 86 556 86 494 q 110 681 86 619 q 175 791 133 743 q 276 868 217 839 q 406 897 335 897 q 524 874 471 897 q 614 809 576 851 q 672 708 651 767 q 692 578 692 649 q 658 332 692 442 q 565 145 625 222 q 421 26 504 68 q 239 -17 338 -17 q 159 -5 194 -17 q 96 26 124 7 q 47 67 68 44 q 11 108 25 89 l 150 225 z "},"\u0000":{"ha":0,"x_min":0,"x_max":0,"o":""},"\r":{"ha":278,"x_min":0,"x_max":0,"o":""}," ":{"ha":278,"x_min":0,"x_max":0,"o":""},"A":{"ha":781,"x_min":-92,"x_max":733,"o":"m 489 372 l 486 478 q 482 605 483 543 q 481 736 481 667 l 475 736 q 423 606 447 669 q 369 478 399 543 l 322 372 l 489 372 m 494 206 l 246 206 l 153 0 l -92 0 l 381 903 l 647 903 l 733 0 l 500 0 l 494 206 z "},"B":{"ha":850,"x_min":36,"x_max":819,"o":"m 217 903 l 506 903 q 631 891 574 903 q 731 854 689 879 q 796 790 772 829 q 819 694 819 750 q 769 560 819 621 q 625 469 719 499 l 622 464 q 775 300 775 426 q 742 161 775 218 q 656 69 710 104 q 529 17 601 33 q 378 0 457 0 l 36 0 l 217 903 m 442 542 q 558 572 524 542 q 592 656 592 603 q 469 733 592 733 l 406 733 l 367 542 l 442 542 m 394 169 q 519 202 478 169 q 561 292 561 235 q 439 392 561 392 l 336 392 l 292 169 l 394 169 z "},"C":{"ha":797,"x_min":78,"x_max":811,"o":"m 78 367 q 116 589 78 488 q 221 764 154 690 q 376 878 288 838 q 564 919 464 919 q 707 881 643 919 q 811 772 771 843 l 661 656 q 553 728 613 728 q 459 701 504 728 q 380 627 414 674 q 326 517 346 581 q 306 381 306 453 q 346 228 306 282 q 478 175 386 175 q 549 193 514 175 q 617 239 585 211 l 708 97 q 661 59 689 79 q 598 22 633 39 q 520 -6 563 6 q 431 -17 478 -17 q 286 9 351 -17 q 175 83 221 35 q 103 203 129 132 q 78 367 78 275 z "},"D":{"ha":869,"x_min":36,"x_max":833,"o":"m 217 903 l 428 903 q 598 881 522 903 q 726 816 674 860 q 806 706 778 772 q 833 547 833 639 q 795 307 833 410 q 690 136 757 204 q 531 34 622 68 q 333 0 439 0 l 36 0 l 217 903 m 328 178 q 434 197 383 178 q 523 258 485 215 q 583 367 561 300 q 606 533 606 435 q 592 623 606 586 q 553 683 578 660 q 495 715 529 706 q 422 725 461 725 l 403 725 l 294 178 l 328 178 z "},"E":{"ha":744,"x_min":36,"x_max":767,"o":"m 217 903 l 767 903 l 731 717 l 400 717 l 369 558 l 650 558 l 614 372 l 333 372 l 294 186 l 636 186 l 600 0 l 36 0 l 217 903 z "},"F":{"ha":717,"x_min":36,"x_max":767,"o":"m 217 903 l 767 903 l 731 717 l 400 717 l 364 531 l 644 531 l 608 344 l 328 344 l 258 0 l 36 0 l 217 903 z "},"G":{"ha":861,"x_min":78,"x_max":839,"o":"m 78 367 q 117 589 78 488 q 223 764 156 690 q 381 878 290 838 q 578 919 472 919 q 733 881 668 919 q 839 772 799 843 l 689 656 q 635 710 664 693 q 567 728 607 728 q 465 701 513 728 q 381 627 417 674 q 326 517 346 581 q 306 381 306 453 q 347 227 306 282 q 483 172 388 172 q 524 178 503 172 q 561 194 546 183 l 594 344 l 461 344 l 494 525 l 822 525 l 736 78 q 608 10 683 38 q 444 -17 532 -17 q 292 9 360 -17 q 177 83 225 35 q 103 203 129 132 q 78 367 78 275 z "},"H":{"ha":922,"x_min":36,"x_max":928,"o":"m 217 903 l 439 903 l 369 564 l 639 564 l 706 903 l 928 903 l 747 0 l 525 0 l 600 369 l 331 369 l 258 0 l 36 0 l 217 903 z "},"I":{"ha":431,"x_min":36,"x_max":439,"o":"m 217 903 l 439 903 l 258 0 l 36 0 l 217 903 z "},"J":{"ha":700,"x_min":-14,"x_max":714,"o":"m 592 293 q 553 175 579 231 q 487 76 528 119 q 388 8 446 33 q 253 -17 329 -17 q 103 18 175 -17 q -14 119 31 53 l 119 256 q 174 201 140 226 q 253 175 208 175 q 331 212 301 175 q 378 332 361 249 l 492 903 l 714 903 l 592 293 l 592 293 z "},"K":{"ha":864,"x_min":36,"x_max":914,"o":"m 217 903 l 439 903 l 371 561 l 376 561 l 672 903 l 914 903 l 589 522 l 789 0 l 558 0 l 425 383 l 308 250 l 258 0 l 36 0 l 217 903 z "},"L":{"ha":714,"x_min":36,"x_max":622,"o":"m 217 903 l 439 903 l 294 186 l 622 186 l 586 0 l 36 0 l 217 903 z "},"M":{"ha":1047,"x_min":36,"x_max":1053,"o":"m 217 903 l 447 903 l 506 514 l 526 361 l 532 361 l 611 514 l 822 903 l 1053 903 l 872 0 l 664 0 l 728 300 q 745 376 735 335 q 768 460 756 418 q 793 542 781 501 q 817 617 806 582 l 813 617 l 700 406 l 508 78 l 425 78 l 367 406 l 339 617 l 335 617 q 328 541 332 582 q 321 458 325 500 q 312 376 317 417 q 300 300 307 335 l 239 0 l 36 0 l 217 903 z "},"N":{"ha":906,"x_min":36,"x_max":911,"o":"m 217 903 l 431 903 l 556 475 l 600 272 l 606 272 q 611 351 608 308 q 618 439 614 394 q 628 528 622 483 q 642 614 633 574 l 700 903 l 911 903 l 731 0 l 517 0 l 392 428 l 350 631 l 344 631 q 330 463 338 553 q 306 292 322 374 l 247 0 l 36 0 l 217 903 z "},"O":{"ha":931,"x_min":78,"x_max":894,"o":"m 428 -17 q 285 9 350 -17 q 175 83 221 35 q 103 203 129 132 q 78 367 78 275 q 117 595 78 493 q 222 769 157 697 q 370 881 286 842 q 544 919 454 919 q 687 894 622 919 q 797 819 751 868 q 869 699 843 771 q 894 536 894 628 q 855 308 894 410 q 751 133 815 206 q 601 22 686 61 q 428 -17 517 -17 m 533 728 q 454 703 494 728 q 381 632 414 678 q 326 522 347 586 q 306 381 306 458 q 341 228 306 282 q 439 175 376 175 q 518 200 478 175 q 592 271 558 225 q 646 381 625 317 q 667 522 667 444 q 631 674 667 621 q 533 728 596 728 z "},"P":{"ha":828,"x_min":36,"x_max":833,"o":"m 217 903 l 514 903 q 639 890 581 903 q 740 847 697 876 q 808 771 783 818 q 833 656 833 724 q 799 488 833 557 q 706 376 764 419 q 570 314 647 333 q 408 294 493 294 l 317 294 l 258 0 l 36 0 l 217 903 m 435 469 q 567 508 521 469 q 614 622 614 547 q 580 702 614 676 q 483 728 546 728 l 403 728 l 353 469 l 435 469 z "},"Q":{"ha":931,"x_min":78,"x_max":894,"o":"m 533 728 q 454 703 494 728 q 381 632 414 678 q 326 522 347 586 q 306 381 306 458 q 341 228 306 282 q 439 175 376 175 q 518 200 478 175 q 592 271 558 225 q 646 381 625 317 q 667 522 667 444 q 631 674 667 621 q 533 728 596 728 m 803 -228 q 743 -246 778 -239 q 683 -253 708 -253 q 282 10 388 -253 q 132 139 186 49 q 78 367 78 229 q 117 595 78 493 q 222 769 157 697 q 370 881 286 842 q 544 919 454 919 q 687 894 622 919 q 797 819 751 868 q 869 699 843 771 q 894 536 894 628 q 865 335 894 426 q 783 174 835 243 q 664 58 732 104 q 519 -6 596 13 q 597 -58 549 -42 q 697 -75 646 -75 q 749 -72 726 -75 q 794 -61 771 -68 l 803 -228 z "},"R":{"ha":850,"x_min":36,"x_max":833,"o":"m 356 486 l 436 486 q 570 526 526 486 q 614 631 614 565 q 580 704 614 681 q 483 728 546 728 l 403 728 l 356 486 m 514 903 q 640 890 582 903 q 742 849 699 878 q 809 775 785 821 q 833 664 833 729 q 817 551 833 601 q 772 460 801 500 q 703 392 743 421 q 615 346 663 364 l 750 0 l 517 0 l 413 311 l 319 311 l 258 0 l 36 0 l 217 903 l 514 903 z "},"S":{"ha":747,"x_min":3,"x_max":754,"o":"m 161 282 q 247 203 197 233 q 350 172 297 172 q 427 193 399 172 q 456 251 456 214 q 428 301 456 282 q 353 349 400 319 l 275 397 q 177 490 213 438 q 142 628 142 543 q 168 742 142 689 q 239 834 194 794 q 344 897 283 874 q 474 919 404 919 q 626 883 553 919 q 754 779 699 846 l 615 649 q 545 706 581 683 q 465 728 510 728 q 393 705 417 728 q 369 650 369 682 q 398 603 369 622 q 481 550 426 585 l 564 499 q 658 410 629 458 q 686 283 686 363 q 661 167 686 221 q 590 72 636 113 q 479 7 544 31 q 333 -17 414 -17 q 160 23 247 -17 q 3 157 74 63 l 161 282 z "},"T":{"ha":750,"x_min":111,"x_max":825,"o":"m 339 717 l 111 717 l 147 903 l 825 903 l 789 717 l 561 717 l 419 0 l 197 0 l 339 717 z "},"U":{"ha":908,"x_min":103,"x_max":919,"o":"m 211 903 l 433 903 l 336 417 q 328 364 332 389 q 325 314 325 339 q 350 210 325 244 q 444 175 375 175 q 540 225 504 175 q 600 392 576 275 l 703 903 l 919 903 l 817 397 q 685 83 775 183 q 439 -17 594 -17 q 186 62 269 -17 q 103 308 103 140 q 109 383 103 340 q 122 461 115 425 l 211 903 z "},"V":{"ha":800,"x_min":108,"x_max":917,"o":"m 108 903 l 342 903 l 358 481 q 363 338 361 410 q 364 194 364 267 l 369 194 q 429 338 400 267 q 489 481 458 408 l 672 903 l 917 903 l 453 0 l 183 0 l 108 903 z "},"W":{"ha":1122,"x_min":97,"x_max":1203,"o":"m 136 903 l 364 903 l 328 494 q 313 351 321 424 q 294 206 306 278 l 300 206 q 358 351 328 278 q 414 494 388 424 l 585 903 l 769 903 l 769 494 q 763 352 767 425 q 756 206 760 279 l 761 206 q 810 351 785 279 q 856 494 835 424 l 992 903 l 1203 903 l 861 0 l 581 0 l 592 386 q 593 433 592 407 q 597 486 594 458 q 601 542 599 514 q 607 596 604 571 l 601 596 q 563 492 583 546 q 522 386 542 439 l 372 0 l 97 0 l 136 903 z "},"X":{"ha":800,"x_min":-50,"x_max":869,"o":"m 281 464 l 144 903 l 392 903 l 425 744 q 439 676 432 713 q 456 597 446 640 l 461 597 q 506 676 485 640 q 544 744 526 713 l 633 903 l 869 903 l 556 456 l 703 0 l 456 0 l 417 175 q 400 247 408 211 q 383 322 392 282 l 378 322 q 333 247 354 282 q 292 175 313 211 l 186 0 l -50 0 l 281 464 z "},"Y":{"ha":733,"x_min":110,"x_max":858,"o":"m 253 317 l 110 903 l 340 903 l 369 703 q 385 603 378 650 q 400 503 392 557 l 406 503 q 458 605 433 557 q 511 706 482 653 l 619 903 l 858 903 l 475 317 l 411 0 l 190 0 l 253 317 z "},"Z":{"ha":736,"x_min":-8,"x_max":781,"o":"m 19 133 l 478 717 l 144 717 l 181 903 l 781 903 l 753 769 l 300 186 l 667 186 l 628 0 l -8 0 l 19 133 z "},"a":{"ha":775,"x_min":39,"x_max":764,"o":"m 39 239 q 69 424 39 338 q 151 574 100 510 q 269 674 203 638 q 408 711 336 711 q 493 688 453 711 q 553 625 533 665 l 556 625 l 586 694 l 764 694 l 625 0 l 444 0 l 444 86 l 442 86 q 340 10 396 38 q 233 -17 283 -17 q 90 49 142 -17 q 39 239 39 115 m 333 164 q 394 181 361 164 q 456 256 428 199 l 500 478 q 466 518 488 506 q 425 531 444 531 q 367 511 394 531 q 317 457 339 492 q 283 374 296 422 q 269 267 269 325 q 287 188 269 213 q 333 164 304 164 z "},"b":{"ha":778,"x_min":11,"x_max":736,"o":"m 11 0 l 206 967 l 428 967 l 386 764 l 350 636 l 353 636 q 445 692 397 672 q 542 711 493 711 q 685 645 633 711 q 736 456 736 579 q 706 271 736 357 q 624 121 675 185 q 506 20 572 57 q 367 -17 439 -17 q 285 6 322 -17 q 228 69 247 29 l 225 69 l 194 0 l 11 0 m 442 531 q 382 515 414 531 q 325 453 350 499 l 278 217 q 309 176 289 189 q 350 164 329 164 q 408 183 381 164 q 458 238 436 203 q 492 321 479 272 q 506 428 506 369 q 488 506 506 482 q 442 531 471 531 z "},"c":{"ha":619,"x_min":36,"x_max":642,"o":"m 36 272 q 67 439 36 360 q 155 578 99 518 q 287 675 211 639 q 453 711 363 711 q 568 684 519 711 q 642 625 617 657 l 519 494 q 482 524 500 514 q 439 533 464 533 q 369 513 401 533 q 314 458 338 493 q 277 375 290 422 q 264 275 264 328 q 289 192 264 222 q 364 161 314 161 q 417 173 396 161 q 458 200 439 185 l 550 64 q 453 9 510 35 q 314 -17 397 -17 q 205 3 256 -17 q 117 59 154 22 q 58 149 79 96 q 36 272 36 203 z "},"d":{"ha":764,"x_min":39,"x_max":819,"o":"m 558 764 l 597 967 l 819 967 l 625 0 l 444 0 l 444 86 l 442 86 q 340 10 396 38 q 233 -17 283 -17 q 90 49 142 -17 q 39 239 39 115 q 69 424 39 338 q 151 574 100 510 q 269 674 203 638 q 408 711 336 711 q 488 690 453 711 q 542 633 522 669 l 544 633 l 558 764 m 333 164 q 393 181 360 164 q 456 256 426 199 l 500 478 q 466 518 488 506 q 425 531 444 531 q 367 511 394 531 q 317 457 339 492 q 283 374 296 422 q 269 267 269 325 q 287 188 269 213 q 333 164 304 164 z "},"e":{"ha":697,"x_min":36,"x_max":658,"o":"m 36 283 q 71 458 36 379 q 162 592 106 536 q 288 680 218 649 q 428 711 358 711 q 535 690 492 711 q 606 633 579 669 q 646 549 633 597 q 658 447 658 501 q 653 394 658 421 q 642 345 649 368 q 630 305 636 322 q 619 281 624 288 l 244 281 q 288 181 247 211 q 389 150 328 150 q 450 164 418 150 q 506 194 482 178 l 583 56 q 476 5 542 26 q 325 -17 411 -17 q 208 4 261 -17 q 117 64 156 25 q 58 158 79 103 q 36 283 36 214 m 472 414 q 476 434 475 422 q 478 458 478 446 q 461 518 478 494 q 400 542 444 542 q 322 511 360 542 q 261 414 285 481 l 472 414 z "},"f":{"ha":478,"x_min":47,"x_max":636,"o":"m 97 686 l 189 694 l 192 714 q 223 817 201 768 q 279 903 244 865 q 363 962 314 940 q 478 983 413 983 q 636 944 563 983 l 567 789 q 538 802 556 796 q 503 808 519 808 q 471 806 485 808 q 446 794 457 803 q 427 767 435 785 q 414 722 419 750 l 408 694 l 522 694 l 489 522 l 372 522 l 269 0 l 47 0 l 153 522 l 64 522 l 97 686 z "},"g":{"ha":767,"x_min":-22,"x_max":756,"o":"m 756 694 l 622 28 q 491 -211 590 -133 q 239 -289 392 -289 q 110 -265 181 -289 q -22 -192 40 -242 l 72 -44 q 156 -94 113 -74 q 244 -114 199 -114 q 408 8 367 -114 l 442 117 l 439 117 q 344 50 393 72 q 242 28 296 28 q 97 87 154 28 q 39 269 39 146 q 68 443 39 363 q 147 583 97 524 q 263 677 197 643 q 400 711 328 711 q 483 688 444 711 q 542 625 522 665 l 544 625 l 575 694 l 756 694 m 331 208 q 392 223 360 208 q 453 286 425 238 l 489 478 q 456 518 476 506 q 417 531 436 531 q 360 514 386 531 q 313 466 333 497 q 281 392 293 435 q 269 297 269 349 q 286 230 269 251 q 331 208 303 208 z "},"h":{"ha":772,"x_min":11,"x_max":728,"o":"m 206 967 l 428 967 l 381 742 l 347 619 l 353 619 q 448 684 394 657 q 564 711 501 711 q 689 666 650 711 q 728 531 728 621 q 726 481 728 507 q 717 431 724 456 l 631 0 l 408 0 l 489 403 q 497 437 493 422 q 500 464 500 451 q 485 508 500 493 q 442 522 469 522 q 385 503 413 522 q 319 444 357 485 l 233 0 l 11 0 l 206 967 z "},"i":{"ha":383,"x_min":11,"x_max":431,"o":"m 150 694 l 372 694 l 233 0 l 11 0 l 150 694 m 297 783 q 254 790 275 783 q 217 808 233 796 q 190 840 200 821 q 181 886 181 860 q 191 934 181 911 q 219 974 201 957 q 262 1001 238 990 q 314 1011 286 1011 q 357 1004 336 1011 q 394 985 378 997 q 421 953 411 972 q 431 908 431 933 q 392 819 431 854 q 297 783 354 783 z "},"j":{"ha":386,"x_min":-186,"x_max":433,"o":"m 236 3 q 204 -99 225 -51 q 150 -183 183 -147 q 69 -240 117 -219 q -42 -261 22 -261 q -114 -254 -79 -261 q -186 -228 -149 -247 l -119 -69 q -61 -86 -90 -86 q -12 -63 -28 -86 q 17 14 4 -40 l 153 694 l 375 694 l 236 3 m 300 783 q 257 790 278 783 q 219 808 236 796 q 193 840 203 821 q 183 886 183 860 q 194 934 183 911 q 222 974 204 957 q 265 1001 240 990 q 317 1011 289 1011 q 360 1004 339 1011 q 397 985 381 997 q 424 953 414 972 q 433 908 433 933 q 395 819 433 854 q 300 783 357 783 z "},"k":{"ha":756,"x_min":11,"x_max":800,"o":"m 206 967 l 428 967 l 322 444 l 328 444 l 556 694 l 800 694 l 514 386 l 678 0 l 456 0 l 361 258 l 267 164 l 233 0 l 11 0 l 206 967 z "},"l":{"ha":397,"x_min":47,"x_max":428,"o":"m 206 967 l 428 967 l 278 222 q 275 206 275 211 q 275 196 275 201 q 283 169 275 176 q 303 161 292 161 q 315 161 310 161 q 328 164 319 161 l 319 0 q 272 -12 300 -7 q 206 -17 243 -17 q 83 24 119 -17 q 47 136 47 65 q 49 179 47 157 q 58 231 51 201 l 206 967 z "},"m":{"ha":1164,"x_min":11,"x_max":1111,"o":"m 147 694 l 328 694 l 328 606 l 333 606 q 438 679 382 647 q 556 711 494 711 q 665 680 631 711 q 717 594 700 649 q 828 678 771 644 q 947 711 886 711 q 1072 666 1033 711 q 1111 531 1111 621 q 1100 431 1111 483 l 1014 0 l 792 0 l 872 403 q 880 437 876 422 q 883 464 883 451 q 868 508 883 493 q 825 522 853 522 q 711 444 785 522 l 622 0 l 400 0 l 481 403 q 488 437 485 422 q 492 464 492 451 q 476 508 492 493 q 436 522 461 522 q 319 444 393 522 l 233 0 l 11 0 l 147 694 z "},"n":{"ha":781,"x_min":11,"x_max":728,"o":"m 147 694 l 328 694 l 328 606 l 333 606 q 440 679 382 647 q 564 711 497 711 q 689 666 650 711 q 728 531 728 621 q 717 431 728 483 l 631 0 l 408 0 l 489 403 q 497 437 493 422 q 500 464 500 451 q 485 508 500 493 q 442 522 469 522 q 385 503 413 522 q 319 444 357 485 l 233 0 l 11 0 l 147 694 z "},"o":{"ha":750,"x_min":36,"x_max":708,"o":"m 314 -17 q 200 4 251 -17 q 113 63 149 25 q 56 154 76 101 q 36 272 36 207 q 71 455 36 374 q 162 593 106 536 q 288 681 218 650 q 431 711 358 711 q 544 690 493 711 q 632 631 596 669 q 688 540 668 593 q 708 422 708 486 q 674 240 708 321 q 583 101 639 158 q 456 14 526 44 q 314 -17 386 -17 m 406 533 q 349 514 375 533 q 303 460 322 494 q 272 378 283 426 q 261 275 261 331 q 280 192 261 222 q 339 161 299 161 q 396 181 369 161 q 442 234 422 200 q 472 315 461 268 q 483 419 483 363 q 465 503 483 472 q 406 533 446 533 z "},"p":{"ha":778,"x_min":-39,"x_max":736,"o":"m 217 -72 l 183 -244 l -39 -244 l 150 694 l 331 694 l 336 619 l 339 619 q 438 686 385 661 q 542 711 492 711 q 685 645 633 711 q 736 456 736 579 q 706 271 736 357 q 624 121 675 185 q 506 20 572 57 q 367 -17 439 -17 q 292 3 326 -17 q 236 58 257 22 l 233 58 l 217 -72 m 442 531 q 382 515 414 531 q 325 453 350 499 l 278 217 q 309 176 289 189 q 350 164 329 164 q 408 183 381 164 q 458 238 436 203 q 492 321 479 272 q 506 428 506 369 q 488 506 506 482 q 442 531 471 531 z "},"q":{"ha":775,"x_min":39,"x_max":764,"o":"m 444 86 l 442 86 q 340 10 396 38 q 233 -17 283 -17 q 90 49 142 -17 q 39 239 39 115 q 69 424 39 338 q 151 574 100 510 q 269 674 203 638 q 408 711 336 711 q 493 688 453 711 q 553 625 533 665 l 556 625 l 586 694 l 764 694 l 575 -244 l 353 -244 l 389 -72 l 444 86 m 333 164 q 393 181 360 164 q 456 256 426 199 l 500 478 q 466 518 488 506 q 425 531 444 531 q 367 511 394 531 q 317 457 339 492 q 283 374 296 422 q 269 267 269 325 q 287 188 269 213 q 333 164 304 164 z "},"r":{"ha":556,"x_min":11,"x_max":614,"o":"m 147 694 l 328 694 l 322 558 l 328 558 q 424 668 368 625 q 539 711 481 711 q 585 708 568 711 q 614 697 603 704 l 542 506 q 506 515 526 514 q 469 517 486 517 q 387 488 425 517 q 308 389 349 458 l 233 0 l 11 0 l 147 694 z "},"s":{"ha":600,"x_min":-14,"x_max":597,"o":"m 114 225 q 186 163 151 181 q 253 144 221 144 q 308 158 285 144 q 331 192 331 171 q 322 215 331 206 q 299 235 314 225 q 263 257 285 246 q 214 283 240 268 q 165 317 189 297 q 122 360 140 336 q 92 414 103 385 q 81 478 81 443 q 103 570 81 528 q 163 644 125 613 q 251 693 200 675 q 361 711 303 711 q 494 678 436 711 q 597 600 553 646 l 478 486 q 424 529 453 511 q 361 547 394 547 q 308 533 328 547 q 289 497 289 518 q 299 472 289 482 q 324 451 308 461 q 360 432 340 442 q 400 411 381 422 q 450 380 425 397 q 494 339 475 363 q 526 285 514 315 q 539 217 539 256 q 517 122 539 164 q 455 48 494 79 q 360 0 415 17 q 239 -17 304 -17 q 174 -8 208 -17 q 105 17 139 0 q 40 59 71 33 q -14 119 8 85 l 114 225 z "},"t":{"ha":533,"x_min":58,"x_max":556,"o":"m 147 522 l 58 522 l 92 686 l 192 694 l 253 872 l 439 872 l 406 694 l 556 694 l 522 522 l 367 522 l 314 261 q 311 238 311 249 q 311 217 311 228 q 378 156 311 156 q 428 169 400 156 l 467 14 q 394 -7 438 3 q 292 -17 350 -17 q 197 -2 236 -17 q 132 38 157 13 q 95 99 107 64 q 83 178 83 135 q 87 224 83 201 q 94 269 90 246 l 147 522 z "},"u":{"ha":767,"x_min":44,"x_max":753,"o":"m 617 0 l 436 0 l 436 89 l 431 89 q 328 15 386 47 q 208 -17 271 -17 q 83 28 122 -17 q 44 164 44 74 q 56 264 44 211 l 142 694 l 364 694 l 283 292 q 276 258 279 272 q 272 231 272 243 q 288 187 272 201 q 331 172 303 172 q 385 191 358 172 q 444 250 411 210 l 531 694 l 753 694 l 617 0 z "},"v":{"ha":719,"x_min":83,"x_max":769,"o":"m 83 694 l 306 694 l 319 378 q 322 272 322 325 q 322 164 322 219 l 328 164 q 372 271 351 218 q 417 378 393 324 l 553 694 l 769 694 l 422 0 l 167 0 l 83 694 z "},"w":{"ha":1061,"x_min":101,"x_max":1094,"o":"m 101 694 l 321 694 l 314 386 q 307 283 311 335 q 300 178 303 231 l 306 178 q 343 283 325 231 q 383 386 361 336 l 510 694 l 699 694 l 706 386 q 705 283 707 335 q 703 178 703 231 l 708 178 q 743 283 728 231 q 778 386 758 335 l 889 694 l 1094 694 l 806 0 l 547 0 l 547 258 q 550 356 550 307 q 553 461 550 404 l 547 461 q 512 356 528 404 q 478 258 496 307 l 378 0 l 128 0 l 101 694 z "},"x":{"ha":714,"x_min":-53,"x_max":767,"o":"m 233 372 l 117 694 l 342 694 l 376 588 q 392 528 383 558 q 407 469 400 499 l 413 469 q 445 528 428 499 q 478 588 463 558 l 531 694 l 767 694 l 500 322 l 625 0 l 397 0 l 361 106 q 343 165 351 135 q 325 225 335 196 l 319 225 q 285 166 303 196 q 249 106 267 136 l 185 0 l -53 0 l 233 372 z "},"y":{"ha":719,"x_min":-33,"x_max":778,"o":"m 33 -72 q 86 -86 57 -86 q 149 -65 118 -86 q 199 -7 179 -43 l 213 21 l 90 694 l 311 694 l 336 410 q 342 308 340 365 q 344 200 344 250 l 350 200 q 394 306 371 249 q 439 410 418 363 l 564 694 l 778 694 l 415 1 q 338 -115 376 -65 q 260 -197 300 -165 q 174 -245 219 -229 q 72 -261 128 -261 q 19 -252 51 -261 q -33 -231 -12 -243 l 33 -72 l 33 -72 z "},"z":{"ha":633,"x_min":-14,"x_max":656,"o":"m 11 125 l 344 522 l 117 522 l 150 694 l 656 694 l 631 567 l 297 172 l 561 172 l 528 0 l -14 0 l 11 125 z "},"À":{"ha":781,"x_min":-92,"x_max":733,"o":"m 489 372 l 486 478 q 482 605 483 543 q 481 736 481 667 l 475 736 q 423 606 447 669 q 369 478 399 543 l 322 372 l 489 372 m 494 206 l 246 206 l 153 0 l -92 0 l 381 903 l 647 903 l 733 0 l 500 0 l 494 206 m 311 1142 l 536 1142 l 608 972 l 442 972 l 311 1142 z "},"Á":{"ha":781,"x_min":-92,"x_max":769,"o":"m 489 372 l 486 478 q 482 605 483 543 q 481 736 481 667 l 475 736 q 423 606 447 669 q 369 478 399 543 l 322 372 l 489 372 m 494 206 l 246 206 l 153 0 l -92 0 l 381 903 l 647 903 l 733 0 l 500 0 l 494 206 m 531 1142 l 769 1142 l 572 972 l 392 972 l 531 1142 z "},"Â":{"ha":781,"x_min":-92,"x_max":742,"o":"m 489 372 l 486 478 q 482 605 483 543 q 481 736 481 667 l 475 736 q 423 606 447 669 q 369 478 399 543 l 322 372 l 489 372 m 494 206 l 246 206 l 153 0 l -92 0 l 381 903 l 647 903 l 733 0 l 500 0 l 494 206 m 431 1142 l 647 1142 l 742 972 l 581 972 l 528 1056 l 525 1056 l 444 972 l 269 972 l 431 1142 z "},"Ã":{"ha":781,"x_min":-92,"x_max":781,"o":"m 489 372 l 486 478 q 482 605 483 543 q 481 736 481 667 l 475 736 q 423 606 447 669 q 369 478 399 543 l 322 372 l 489 372 m 494 206 l 246 206 l 153 0 l -92 0 l 381 903 l 647 903 l 733 0 l 500 0 l 494 206 m 269 972 q 347 1119 297 1071 q 449 1167 397 1167 q 502 1157 481 1167 q 541 1136 524 1147 q 574 1115 558 1125 q 611 1106 590 1106 q 640 1119 626 1106 q 667 1164 653 1132 l 781 1164 q 703 1017 753 1065 q 601 969 653 969 q 548 979 569 969 q 509 1000 526 989 q 476 1021 492 1011 q 439 1031 460 1031 q 410 1017 424 1031 q 383 972 397 1004 l 269 972 z "},"Ä":{"ha":781,"x_min":-92,"x_max":767,"o":"m 489 372 l 486 478 q 482 605 483 543 q 481 736 481 667 l 475 736 q 423 606 447 669 q 369 478 399 543 l 322 372 l 489 372 m 494 206 l 246 206 l 153 0 l -92 0 l 381 903 l 647 903 l 733 0 l 500 0 l 494 206 m 375 967 q 312 990 338 967 q 286 1056 286 1014 q 294 1097 286 1076 q 318 1135 303 1118 q 354 1162 333 1151 q 400 1172 375 1172 q 463 1149 436 1172 q 489 1083 489 1125 q 481 1042 489 1063 q 457 1004 472 1021 q 421 977 442 988 q 375 967 400 967 m 653 967 q 590 990 615 967 q 564 1056 564 1014 q 572 1097 564 1076 q 596 1135 581 1118 q 632 1162 611 1151 q 678 1172 653 1172 q 740 1149 714 1172 q 767 1083 767 1125 q 758 1042 767 1063 q 735 1004 750 1021 q 699 977 719 988 q 653 967 678 967 z "},"Ā":{"ha":781,"x_min":-92,"x_max":733,"o":"m 489 372 l 486 478 q 482 605 483 543 q 481 736 481 667 l 475 736 q 423 606 447 669 q 369 478 399 543 l 322 372 l 489 372 m 494 206 l 246 206 l 153 0 l -92 0 l 381 903 l 647 903 l 733 0 l 500 0 l 494 206 m 344 1136 l 733 1136 l 706 994 l 317 994 l 344 1136 z "},"Ă":{"ha":781,"x_min":-92,"x_max":733,"o":"m 489 372 l 486 478 q 482 605 483 543 q 481 736 481 667 l 475 736 q 423 606 447 669 q 369 478 399 543 l 322 372 l 489 372 m 494 206 l 246 206 l 153 0 l -92 0 l 381 903 l 647 903 l 733 0 l 500 0 l 494 206 m 506 972 q 384 1017 424 972 q 353 1142 344 1063 l 469 1142 q 526 1081 465 1081 q 578 1097 558 1081 q 608 1142 597 1114 l 728 1142 q 651 1017 703 1063 q 506 972 600 972 z "},"Å":{"ha":781,"x_min":-92,"x_max":733,"o":"m 489 372 l 486 478 q 482 605 483 543 q 481 736 481 667 l 475 736 q 423 606 447 669 q 369 478 399 543 l 322 372 l 489 372 m 494 206 l 246 206 l 153 0 l -92 0 l 381 903 l 647 903 l 733 0 l 500 0 l 494 206 m 525 967 q 467 974 494 967 q 419 995 440 981 q 387 1033 399 1010 q 375 1089 375 1057 q 388 1150 375 1121 q 424 1201 401 1179 q 477 1235 447 1222 q 542 1247 507 1247 q 598 1240 571 1247 q 646 1217 625 1232 q 679 1179 667 1203 q 692 1125 692 1156 q 678 1063 692 1092 q 642 1013 665 1033 q 590 979 619 992 q 525 967 560 967 m 539 1164 q 497 1143 514 1164 q 481 1097 481 1122 q 492 1064 481 1078 q 528 1050 504 1050 q 569 1069 551 1050 q 586 1117 586 1089 q 574 1150 586 1136 q 539 1164 563 1164 z "},"Ǎ":{"ha":781,"x_min":-92,"x_max":775,"o":"m 489 372 l 486 478 q 482 605 483 543 q 481 736 481 667 l 475 736 q 423 606 447 669 q 369 478 399 543 l 322 372 l 489 372 m 494 206 l 246 206 l 153 0 l -92 0 l 381 903 l 647 903 l 733 0 l 500 0 l 494 206 m 614 972 l 397 972 l 303 1142 l 464 1142 l 517 1058 l 519 1058 l 600 1142 l 775 1142 l 614 972 z "},"Ạ":{"ha":781,"x_min":-92,"x_max":733,"o":"m 489 372 l 486 478 q 482 605 483 543 q 481 736 481 667 l 475 736 q 423 606 447 669 q 369 478 399 543 l 322 372 l 489 372 m 494 206 l 246 206 l 153 0 l -92 0 l 381 903 l 647 903 l 733 0 l 500 0 l 494 206 m 286 -317 q 243 -310 264 -317 q 206 -292 222 -304 q 179 -260 189 -279 q 169 -214 169 -240 q 180 -166 169 -189 q 208 -126 190 -143 q 251 -99 226 -110 q 303 -89 275 -89 q 346 -96 325 -89 q 383 -115 367 -103 q 410 -147 400 -128 q 419 -192 419 -167 q 381 -281 419 -246 q 286 -317 343 -317 z "},"Ả":{"ha":781,"x_min":-92,"x_max":733,"o":"m 489 372 l 486 478 q 482 605 483 543 q 481 736 481 667 l 475 736 q 423 606 447 669 q 369 478 399 543 l 322 372 l 489 372 m 494 206 l 246 206 l 153 0 l -92 0 l 381 903 l 647 903 l 733 0 l 500 0 l 494 206 m 469 1233 q 635 1199 588 1229 q 683 1122 683 1168 q 665 1052 683 1082 q 617 1002 647 1022 q 545 971 586 982 q 458 956 504 960 l 453 1042 q 499 1054 481 1046 q 517 1083 517 1063 q 496 1110 517 1100 q 422 1122 475 1119 l 469 1233 z "},"Ấ":{"ha":781,"x_min":-92,"x_max":983,"o":"m 489 372 l 486 478 q 482 605 483 543 q 481 736 481 667 l 475 736 q 423 606 447 669 q 369 478 399 543 l 322 372 l 489 372 m 494 206 l 246 206 l 153 0 l -92 0 l 381 903 l 647 903 l 733 0 l 500 0 l 494 206 m 817 1236 l 983 1236 l 828 1067 l 706 1067 l 817 1236 m 450 1133 l 642 1133 l 736 972 l 581 972 l 531 1044 l 525 1044 l 447 972 l 292 972 l 450 1133 z "},"Ầ":{"ha":781,"x_min":-92,"x_max":872,"o":"m 489 372 l 486 478 q 482 605 483 543 q 481 736 481 667 l 475 736 q 423 606 447 669 q 369 478 399 543 l 322 372 l 489 372 m 494 206 l 246 206 l 153 0 l -92 0 l 381 903 l 647 903 l 733 0 l 500 0 l 494 206 m 872 1067 l 747 1067 l 661 1236 l 828 1236 l 872 1067 m 450 1133 l 642 1133 l 736 972 l 581 972 l 531 1044 l 525 1044 l 447 972 l 292 972 l 450 1133 z "},"Ẩ":{"ha":781,"x_min":-92,"x_max":907,"o":"m 489 372 l 486 478 q 482 605 483 543 q 481 736 481 667 l 475 736 q 423 606 447 669 q 369 478 399 543 l 322 372 l 489 372 m 494 206 l 246 206 l 153 0 l -92 0 l 381 903 l 647 903 l 733 0 l 500 0 l 494 206 m 450 1133 l 642 1133 l 736 972 l 581 972 l 531 1044 l 525 1044 l 447 972 l 292 972 l 450 1133 m 724 1275 q 813 1265 778 1272 q 869 1244 849 1257 q 899 1215 890 1232 q 907 1178 907 1197 q 855 1076 907 1107 q 721 1039 803 1046 l 718 1108 q 752 1121 739 1113 q 765 1150 765 1129 q 748 1174 765 1165 q 685 1186 731 1182 l 724 1275 z "},"Ẫ":{"ha":781,"x_min":-92,"x_max":792,"o":"m 489 372 l 486 478 q 482 605 483 543 q 481 736 481 667 l 475 736 q 423 606 447 669 q 369 478 399 543 l 322 372 l 489 372 m 494 206 l 246 206 l 153 0 l -92 0 l 381 903 l 647 903 l 733 0 l 500 0 l 494 206 m 450 1133 l 642 1133 l 736 972 l 581 972 l 531 1044 l 525 1044 l 447 972 l 292 972 l 450 1133 m 344 1183 q 417 1308 372 1269 q 506 1347 461 1347 q 547 1339 528 1347 q 581 1321 565 1331 q 611 1303 597 1311 q 639 1294 625 1294 q 669 1307 654 1294 q 697 1347 685 1319 l 792 1347 q 719 1222 764 1260 q 631 1183 675 1183 q 589 1191 607 1183 q 556 1208 571 1199 q 527 1226 540 1218 q 500 1233 514 1233 q 468 1221 483 1233 q 442 1183 453 1208 l 344 1183 z "},"Ậ":{"ha":781,"x_min":-92,"x_max":742,"o":"m 489 372 l 486 478 q 482 605 483 543 q 481 736 481 667 l 475 736 q 423 606 447 669 q 369 478 399 543 l 322 372 l 489 372 m 494 206 l 246 206 l 153 0 l -92 0 l 381 903 l 647 903 l 733 0 l 500 0 l 494 206 m 431 1142 l 647 1142 l 742 972 l 581 972 l 528 1056 l 525 1056 l 444 972 l 269 972 l 431 1142 m 286 -317 q 243 -310 264 -317 q 206 -292 222 -304 q 179 -260 189 -279 q 169 -214 169 -240 q 180 -166 169 -189 q 208 -126 190 -143 q 251 -99 226 -110 q 303 -89 275 -89 q 346 -96 325 -89 q 383 -115 367 -103 q 410 -147 400 -128 q 419 -192 419 -167 q 381 -281 419 -246 q 286 -317 343 -317 z "},"Ắ":{"ha":781,"x_min":-92,"x_max":749,"o":"m 489 372 l 486 478 q 482 605 483 543 q 481 736 481 667 l 475 736 q 423 606 447 669 q 369 478 399 543 l 322 372 l 489 372 m 494 206 l 246 206 l 153 0 l -92 0 l 381 903 l 647 903 l 733 0 l 500 0 l 494 206 m 588 1289 l 749 1289 l 579 1122 l 471 1122 l 588 1289 m 507 972 q 385 1017 425 972 q 354 1142 346 1063 l 457 1142 q 476 1085 454 1101 q 528 1069 499 1069 q 586 1087 560 1069 q 624 1142 613 1104 l 729 1142 q 653 1017 704 1063 q 507 972 601 972 z "},"Ằ":{"ha":781,"x_min":-92,"x_max":733,"o":"m 489 372 l 486 478 q 482 605 483 543 q 481 736 481 667 l 475 736 q 423 606 447 669 q 369 478 399 543 l 322 372 l 489 372 m 494 206 l 246 206 l 153 0 l -92 0 l 381 903 l 647 903 l 733 0 l 500 0 l 494 206 m 606 1122 l 497 1122 l 422 1289 l 583 1289 l 606 1122 m 507 972 q 385 1017 425 972 q 354 1142 346 1063 l 457 1142 q 476 1085 454 1101 q 528 1069 499 1069 q 586 1087 560 1069 q 624 1142 613 1104 l 729 1142 q 653 1017 704 1063 q 507 972 601 972 z "},"Ẳ":{"ha":781,"x_min":-92,"x_max":733,"o":"m 489 372 l 486 478 q 482 605 483 543 q 481 736 481 667 l 475 736 q 423 606 447 669 q 369 478 399 543 l 322 372 l 489 372 m 494 206 l 246 206 l 153 0 l -92 0 l 381 903 l 647 903 l 733 0 l 500 0 l 494 206 m 507 972 q 385 1017 425 972 q 354 1142 346 1063 l 457 1142 q 476 1085 454 1101 q 528 1069 499 1069 q 586 1087 560 1069 q 624 1142 613 1104 l 729 1142 q 653 1017 704 1063 q 507 972 601 972 m 490 1356 q 580 1345 544 1353 q 636 1325 615 1338 q 665 1295 657 1313 q 674 1258 674 1278 q 622 1157 674 1188 q 488 1119 569 1126 l 485 1189 q 519 1201 506 1193 q 532 1231 532 1210 q 515 1254 532 1246 q 451 1267 497 1263 l 490 1356 z "},"Ẵ":{"ha":781,"x_min":-92,"x_max":792,"o":"m 489 372 l 486 478 q 482 605 483 543 q 481 736 481 667 l 475 736 q 423 606 447 669 q 369 478 399 543 l 322 372 l 489 372 m 494 206 l 246 206 l 153 0 l -92 0 l 381 903 l 647 903 l 733 0 l 500 0 l 494 206 m 507 972 q 385 1017 425 972 q 354 1142 346 1063 l 457 1142 q 476 1085 454 1101 q 528 1069 499 1069 q 586 1087 560 1069 q 624 1142 613 1104 l 729 1142 q 653 1017 704 1063 q 507 972 601 972 m 344 1183 q 417 1308 372 1269 q 506 1347 461 1347 q 547 1339 528 1347 q 581 1321 565 1331 q 611 1303 597 1311 q 639 1294 625 1294 q 669 1307 654 1294 q 697 1347 685 1319 l 792 1347 q 719 1222 764 1260 q 631 1183 675 1183 q 589 1191 607 1183 q 556 1208 571 1199 q 527 1226 540 1218 q 500 1233 514 1233 q 468 1221 483 1233 q 442 1183 453 1208 l 344 1183 z "},"Ặ":{"ha":781,"x_min":-92,"x_max":733,"o":"m 489 372 l 486 478 q 482 605 483 543 q 481 736 481 667 l 475 736 q 423 606 447 669 q 369 478 399 543 l 322 372 l 489 372 m 494 206 l 246 206 l 153 0 l -92 0 l 381 903 l 647 903 l 733 0 l 500 0 l 494 206 m 506 972 q 384 1017 424 972 q 353 1142 344 1063 l 469 1142 q 526 1081 465 1081 q 578 1097 558 1081 q 608 1142 597 1114 l 728 1142 q 651 1017 703 1063 q 506 972 600 972 m 286 -317 q 243 -310 264 -317 q 206 -292 222 -304 q 179 -260 189 -279 q 169 -214 169 -240 q 180 -166 169 -189 q 208 -126 190 -143 q 251 -99 226 -110 q 303 -89 275 -89 q 346 -96 325 -89 q 383 -115 367 -103 q 410 -147 400 -128 q 419 -192 419 -167 q 381 -281 419 -246 q 286 -317 343 -317 z "},"Ą":{"ha":781,"x_min":-92,"x_max":733,"o":"m 489 372 l 486 478 q 482 605 483 543 q 481 736 481 667 l 475 736 q 423 606 447 669 q 369 478 399 543 l 322 372 l 489 372 m 733 0 q 615 -65 646 -29 q 583 -131 583 -101 q 597 -162 583 -151 q 631 -172 611 -172 q 664 -161 646 -172 l 706 -267 q 629 -301 674 -287 q 547 -314 585 -314 q 449 -285 486 -314 q 411 -203 411 -256 q 425 -136 411 -168 q 460 -78 439 -104 q 503 -33 481 -53 q 544 0 526 -12 l 500 0 l 494 206 l 246 206 l 153 0 l -92 0 l 381 903 l 647 903 l 733 0 z "},"Æ":{"ha":1183,"x_min":-50,"x_max":1206,"o":"m 560 367 l 635 744 l 631 744 q 558 621 593 679 q 486 500 522 563 l 410 367 l 560 367 m 850 717 l 819 558 l 1089 558 l 1053 372 l 783 372 l 744 186 l 1075 186 l 1039 0 l 486 0 l 525 194 l 311 194 l 200 0 l -50 0 l 517 903 l 1206 903 l 1169 717 l 850 717 z "},"Ç":{"ha":797,"x_min":78,"x_max":811,"o":"m 78 367 q 116 589 78 488 q 221 764 154 690 q 376 878 288 838 q 564 919 464 919 q 707 881 643 919 q 811 772 771 843 l 661 656 q 553 728 613 728 q 459 701 504 728 q 380 627 414 674 q 326 517 346 581 q 306 381 306 453 q 346 228 306 282 q 478 175 386 175 q 549 193 514 175 q 617 239 585 211 l 708 97 q 661 59 689 79 q 598 22 633 39 q 520 -6 563 6 q 431 -17 478 -17 q 286 9 351 -17 q 175 83 221 35 q 103 203 129 132 q 78 367 78 275 m 347 6 l 475 6 l 436 -58 q 481 -89 464 -69 q 497 -142 497 -108 q 474 -215 497 -185 q 413 -266 451 -246 q 323 -297 374 -286 q 217 -308 272 -307 l 211 -222 q 297 -203 261 -218 q 333 -158 333 -187 q 322 -130 333 -143 q 272 -106 310 -117 l 347 6 z "},"Ć":{"ha":797,"x_min":78,"x_max":867,"o":"m 78 367 q 116 589 78 488 q 221 764 154 690 q 376 878 288 838 q 564 919 464 919 q 707 881 643 919 q 811 772 771 843 l 661 656 q 553 728 613 728 q 459 701 504 728 q 380 627 414 674 q 326 517 346 581 q 306 381 306 453 q 346 228 306 282 q 478 175 386 175 q 549 193 514 175 q 617 239 585 211 l 708 97 q 661 59 689 79 q 598 22 633 39 q 520 -6 563 6 q 431 -17 478 -17 q 286 9 351 -17 q 175 83 221 35 q 103 203 129 132 q 78 367 78 275 m 628 1142 l 867 1142 l 669 972 l 489 972 l 628 1142 z "},"Ĉ":{"ha":797,"x_min":78,"x_max":839,"o":"m 78 367 q 116 589 78 488 q 221 764 154 690 q 376 878 288 838 q 564 919 464 919 q 707 881 643 919 q 811 772 771 843 l 661 656 q 553 728 613 728 q 459 701 504 728 q 380 627 414 674 q 326 517 346 581 q 306 381 306 453 q 346 228 306 282 q 478 175 386 175 q 549 193 514 175 q 617 239 585 211 l 708 97 q 661 59 689 79 q 598 22 633 39 q 520 -6 563 6 q 431 -17 478 -17 q 286 9 351 -17 q 175 83 221 35 q 103 203 129 132 q 78 367 78 275 m 528 1142 l 744 1142 l 839 972 l 678 972 l 625 1056 l 622 1056 l 542 972 l 367 972 l 528 1142 z "},"Č":{"ha":797,"x_min":78,"x_max":872,"o":"m 78 367 q 116 589 78 488 q 221 764 154 690 q 376 878 288 838 q 564 919 464 919 q 707 881 643 919 q 811 772 771 843 l 661 656 q 553 728 613 728 q 459 701 504 728 q 380 627 414 674 q 326 517 346 581 q 306 381 306 453 q 346 228 306 282 q 478 175 386 175 q 549 193 514 175 q 617 239 585 211 l 708 97 q 661 59 689 79 q 598 22 633 39 q 520 -6 563 6 q 431 -17 478 -17 q 286 9 351 -17 q 175 83 221 35 q 103 203 129 132 q 78 367 78 275 m 711 972 l 494 972 l 400 1142 l 561 1142 l 614 1058 l 617 1058 l 697 1142 l 872 1142 l 711 972 z "},"Ċ":{"ha":797,"x_min":78,"x_max":811,"o":"m 78 367 q 116 589 78 488 q 221 764 154 690 q 376 878 288 838 q 564 919 464 919 q 707 881 643 919 q 811 772 771 843 l 661 656 q 553 728 613 728 q 459 701 504 728 q 380 627 414 674 q 326 517 346 581 q 306 381 306 453 q 346 228 306 282 q 478 175 386 175 q 549 193 514 175 q 617 239 585 211 l 708 97 q 661 59 689 79 q 598 22 633 39 q 520 -6 563 6 q 431 -17 478 -17 q 286 9 351 -17 q 175 83 221 35 q 103 203 129 132 q 78 367 78 275 m 617 969 q 574 976 594 969 q 536 994 553 982 q 510 1026 519 1007 q 500 1072 500 1046 q 510 1120 500 1097 q 539 1160 521 1143 q 581 1187 557 1176 q 633 1197 606 1197 q 676 1190 656 1197 q 714 1171 697 1183 q 740 1139 731 1158 q 750 1094 750 1119 q 712 1005 750 1040 q 617 969 674 969 z "},"Ď":{"ha":869,"x_min":36,"x_max":833,"o":"m 217 903 l 428 903 q 598 881 522 903 q 726 816 674 860 q 806 706 778 772 q 833 547 833 639 q 795 307 833 410 q 690 136 757 204 q 531 34 622 68 q 333 0 439 0 l 36 0 l 217 903 m 328 178 q 434 197 383 178 q 523 258 485 215 q 583 367 561 300 q 606 533 606 435 q 592 623 606 586 q 553 683 578 660 q 495 715 529 706 q 422 725 461 725 l 403 725 l 294 178 l 328 178 m 656 972 l 439 972 l 344 1142 l 506 1142 l 558 1058 l 561 1058 l 642 1142 l 817 1142 l 656 972 z "},"Ḍ":{"ha":869,"x_min":36,"x_max":833,"o":"m 217 903 l 428 903 q 598 881 522 903 q 726 816 674 860 q 806 706 778 772 q 833 547 833 639 q 795 307 833 410 q 690 136 757 204 q 531 34 622 68 q 333 0 439 0 l 36 0 l 217 903 m 328 178 q 434 197 383 178 q 523 258 485 215 q 583 367 561 300 q 606 533 606 435 q 592 623 606 586 q 553 683 578 660 q 495 715 529 706 q 422 725 461 725 l 403 725 l 294 178 l 328 178 m 361 -317 q 318 -310 339 -317 q 281 -292 297 -304 q 254 -260 264 -279 q 244 -214 244 -240 q 255 -166 244 -189 q 283 -126 265 -143 q 326 -99 301 -110 q 378 -89 350 -89 q 421 -96 400 -89 q 458 -115 442 -103 q 485 -147 475 -128 q 494 -192 494 -167 q 456 -281 494 -246 q 361 -317 418 -317 z "},"Ḏ":{"ha":869,"x_min":36,"x_max":833,"o":"m 217 903 l 428 903 q 598 881 522 903 q 726 816 674 860 q 806 706 778 772 q 833 547 833 639 q 795 307 833 410 q 690 136 757 204 q 531 34 622 68 q 333 0 439 0 l 36 0 l 217 903 m 328 178 q 434 197 383 178 q 523 258 485 215 q 583 367 561 300 q 606 533 606 435 q 592 623 606 586 q 553 683 578 660 q 495 715 529 706 q 422 725 461 725 l 403 725 l 294 178 l 328 178 m 194 -114 l 575 -114 l 547 -253 l 167 -253 l 194 -114 z "},"Đ":{"ha":894,"x_min":47,"x_max":858,"o":"m 353 178 q 459 197 408 178 q 548 258 510 215 q 608 367 586 300 q 631 533 631 435 q 617 623 631 586 q 578 683 603 660 q 520 715 554 706 q 447 725 486 725 l 428 725 l 388 522 l 547 522 l 525 417 l 367 417 l 319 178 l 353 178 m 453 903 q 623 881 547 903 q 751 816 699 860 q 831 706 803 772 q 858 547 858 639 q 820 307 858 410 q 715 136 782 204 q 556 34 647 68 q 358 0 464 0 l 61 0 l 144 417 l 47 417 l 67 514 l 165 522 l 242 903 l 453 903 z "},"È":{"ha":744,"x_min":36,"x_max":767,"o":"m 217 903 l 767 903 l 731 717 l 400 717 l 369 558 l 650 558 l 614 372 l 333 372 l 294 186 l 636 186 l 600 0 l 36 0 l 217 903 m 311 1142 l 536 1142 l 608 972 l 442 972 l 311 1142 z "},"É":{"ha":744,"x_min":36,"x_max":769,"o":"m 217 903 l 767 903 l 731 717 l 400 717 l 369 558 l 650 558 l 614 372 l 333 372 l 294 186 l 636 186 l 600 0 l 36 0 l 217 903 m 531 1142 l 769 1142 l 572 972 l 392 972 l 531 1142 z "},"Ê":{"ha":744,"x_min":36,"x_max":767,"o":"m 217 903 l 767 903 l 731 717 l 400 717 l 369 558 l 650 558 l 614 372 l 333 372 l 294 186 l 636 186 l 600 0 l 36 0 l 217 903 m 431 1142 l 647 1142 l 742 972 l 581 972 l 528 1056 l 525 1056 l 444 972 l 269 972 l 431 1142 z "},"Ě":{"ha":744,"x_min":36,"x_max":775,"o":"m 217 903 l 767 903 l 731 717 l 400 717 l 369 558 l 650 558 l 614 372 l 333 372 l 294 186 l 636 186 l 600 0 l 36 0 l 217 903 m 614 972 l 397 972 l 303 1142 l 464 1142 l 517 1058 l 519 1058 l 600 1142 l 775 1142 l 614 972 z "},"Ë":{"ha":744,"x_min":36,"x_max":767,"o":"m 217 903 l 767 903 l 731 717 l 400 717 l 369 558 l 650 558 l 614 372 l 333 372 l 294 186 l 636 186 l 600 0 l 36 0 l 217 903 m 375 967 q 312 990 338 967 q 286 1056 286 1014 q 294 1097 286 1076 q 318 1135 303 1118 q 354 1162 333 1151 q 400 1172 375 1172 q 463 1149 436 1172 q 489 1083 489 1125 q 481 1042 489 1063 q 457 1004 472 1021 q 421 977 442 988 q 375 967 400 967 m 653 967 q 590 990 615 967 q 564 1056 564 1014 q 572 1097 564 1076 q 596 1135 581 1118 q 632 1162 611 1151 q 678 1172 653 1172 q 740 1149 714 1172 q 767 1083 767 1125 q 758 1042 767 1063 q 735 1004 750 1021 q 699 977 719 988 q 653 967 678 967 z "},"Ē":{"ha":744,"x_min":36,"x_max":767,"o":"m 217 903 l 767 903 l 731 717 l 400 717 l 369 558 l 650 558 l 614 372 l 333 372 l 294 186 l 636 186 l 600 0 l 36 0 l 217 903 m 344 1136 l 733 1136 l 706 994 l 317 994 l 344 1136 z "},"Ĕ":{"ha":744,"x_min":36,"x_max":767,"o":"m 217 903 l 767 903 l 731 717 l 400 717 l 369 558 l 650 558 l 614 372 l 333 372 l 294 186 l 636 186 l 600 0 l 36 0 l 217 903 m 506 972 q 384 1017 424 972 q 353 1142 344 1063 l 469 1142 q 526 1081 465 1081 q 578 1097 558 1081 q 608 1142 597 1114 l 728 1142 q 651 1017 703 1063 q 506 972 600 972 z "},"Ė":{"ha":744,"x_min":36,"x_max":767,"o":"m 217 903 l 767 903 l 731 717 l 400 717 l 369 558 l 650 558 l 614 372 l 333 372 l 294 186 l 636 186 l 600 0 l 36 0 l 217 903 m 519 969 q 476 976 497 969 q 439 994 456 982 q 413 1026 422 1007 q 403 1072 403 1046 q 413 1120 403 1097 q 442 1160 424 1143 q 484 1187 460 1176 q 536 1197 508 1197 q 579 1190 558 1197 q 617 1171 600 1183 q 643 1139 633 1158 q 653 1094 653 1119 q 615 1005 653 1040 q 519 969 576 969 z "},"Ẹ":{"ha":744,"x_min":36,"x_max":767,"o":"m 217 903 l 767 903 l 731 717 l 400 717 l 369 558 l 650 558 l 614 372 l 333 372 l 294 186 l 636 186 l 600 0 l 36 0 l 217 903 m 297 -317 q 254 -310 275 -317 q 217 -292 233 -304 q 190 -260 200 -279 q 181 -214 181 -240 q 191 -166 181 -189 q 219 -126 201 -143 q 262 -99 238 -110 q 314 -89 286 -89 q 357 -96 336 -89 q 394 -115 378 -103 q 421 -147 411 -128 q 431 -192 431 -167 q 392 -281 431 -246 q 297 -317 354 -317 z "},"Ẻ":{"ha":744,"x_min":36,"x_max":767,"o":"m 217 903 l 767 903 l 731 717 l 400 717 l 369 558 l 650 558 l 614 372 l 333 372 l 294 186 l 636 186 l 600 0 l 36 0 l 217 903 m 469 1233 q 635 1199 588 1229 q 683 1122 683 1168 q 665 1052 683 1082 q 617 1002 647 1022 q 545 971 586 982 q 458 956 504 960 l 453 1042 q 499 1054 481 1046 q 517 1083 517 1063 q 496 1110 517 1100 q 422 1122 475 1119 l 469 1233 z "},"Ẽ":{"ha":744,"x_min":36,"x_max":781,"o":"m 217 903 l 767 903 l 731 717 l 400 717 l 369 558 l 650 558 l 614 372 l 333 372 l 294 186 l 636 186 l 600 0 l 36 0 l 217 903 m 269 972 q 347 1119 297 1071 q 449 1167 397 1167 q 502 1157 481 1167 q 541 1136 524 1147 q 574 1115 558 1125 q 611 1106 590 1106 q 640 1119 626 1106 q 667 1164 653 1132 l 781 1164 q 703 1017 753 1065 q 601 969 653 969 q 548 979 569 969 q 509 1000 526 989 q 476 1021 492 1011 q 439 1031 460 1031 q 410 1017 424 1031 q 383 972 397 1004 l 269 972 z "},"Ế":{"ha":744,"x_min":36,"x_max":983,"o":"m 217 903 l 767 903 l 731 717 l 400 717 l 369 558 l 650 558 l 614 372 l 333 372 l 294 186 l 636 186 l 600 0 l 36 0 l 217 903 m 817 1236 l 983 1236 l 828 1067 l 706 1067 l 817 1236 m 450 1133 l 642 1133 l 736 972 l 581 972 l 531 1044 l 525 1044 l 447 972 l 292 972 l 450 1133 z "},"Ề":{"ha":744,"x_min":36,"x_max":872,"o":"m 217 903 l 767 903 l 731 717 l 400 717 l 369 558 l 650 558 l 614 372 l 333 372 l 294 186 l 636 186 l 600 0 l 36 0 l 217 903 m 872 1067 l 747 1067 l 661 1236 l 828 1236 l 872 1067 m 450 1133 l 642 1133 l 736 972 l 581 972 l 531 1044 l 525 1044 l 447 972 l 292 972 l 450 1133 z "},"Ể":{"ha":744,"x_min":36,"x_max":907,"o":"m 217 903 l 767 903 l 731 717 l 400 717 l 369 558 l 650 558 l 614 372 l 333 372 l 294 186 l 636 186 l 600 0 l 36 0 l 217 903 m 450 1133 l 642 1133 l 736 972 l 581 972 l 531 1044 l 525 1044 l 447 972 l 292 972 l 450 1133 m 724 1275 q 813 1265 778 1272 q 869 1244 849 1257 q 899 1215 890 1232 q 907 1178 907 1197 q 855 1076 907 1107 q 721 1039 803 1046 l 718 1108 q 752 1121 739 1113 q 765 1150 765 1129 q 748 1174 765 1165 q 685 1186 731 1182 l 724 1275 z "},"Ễ":{"ha":744,"x_min":36,"x_max":792,"o":"m 217 903 l 767 903 l 731 717 l 400 717 l 369 558 l 650 558 l 614 372 l 333 372 l 294 186 l 636 186 l 600 0 l 36 0 l 217 903 m 450 1133 l 642 1133 l 736 972 l 581 972 l 531 1044 l 525 1044 l 447 972 l 292 972 l 450 1133 m 344 1183 q 417 1308 372 1269 q 506 1347 461 1347 q 547 1339 528 1347 q 581 1321 565 1331 q 611 1303 597 1311 q 639 1294 625 1294 q 669 1307 654 1294 q 697 1347 685 1319 l 792 1347 q 719 1222 764 1260 q 631 1183 675 1183 q 589 1191 607 1183 q 556 1208 571 1199 q 527 1226 540 1218 q 500 1233 514 1233 q 468 1221 483 1233 q 442 1183 453 1208 l 344 1183 z "},"Ệ":{"ha":744,"x_min":36,"x_max":767,"o":"m 217 903 l 767 903 l 731 717 l 400 717 l 369 558 l 650 558 l 614 372 l 333 372 l 294 186 l 636 186 l 600 0 l 36 0 l 217 903 m 431 1142 l 647 1142 l 742 972 l 581 972 l 528 1056 l 525 1056 l 444 972 l 269 972 l 431 1142 m 297 -317 q 254 -310 275 -317 q 217 -292 233 -304 q 190 -260 200 -279 q 181 -214 181 -240 q 191 -166 181 -189 q 219 -126 201 -143 q 262 -99 238 -110 q 314 -89 286 -89 q 357 -96 336 -89 q 394 -115 378 -103 q 421 -147 411 -128 q 431 -192 431 -167 q 392 -281 431 -246 q 297 -317 354 -317 z "},"Ę":{"ha":744,"x_min":36,"x_max":767,"o":"m 217 903 l 767 903 l 731 717 l 400 717 l 369 558 l 650 558 l 614 372 l 333 372 l 294 186 l 636 186 l 600 0 q 544 -21 568 -6 q 502 -56 519 -36 q 476 -96 485 -75 q 467 -131 467 -117 q 481 -162 467 -151 q 514 -172 494 -172 q 547 -161 529 -172 l 589 -267 q 513 -301 557 -287 q 431 -314 468 -314 q 332 -285 369 -314 q 294 -203 294 -256 q 310 -134 294 -167 q 347 -74 325 -101 q 390 -28 368 -47 q 428 0 413 -10 l 36 0 l 217 903 z "},"Ĝ":{"ha":861,"x_min":78,"x_max":839,"o":"m 78 367 q 117 589 78 488 q 223 764 156 690 q 381 878 290 838 q 578 919 472 919 q 733 881 668 919 q 839 772 799 843 l 689 656 q 635 710 664 693 q 567 728 607 728 q 465 701 513 728 q 381 627 417 674 q 326 517 346 581 q 306 381 306 453 q 347 227 306 282 q 483 172 388 172 q 524 178 503 172 q 561 194 546 183 l 594 344 l 461 344 l 494 525 l 822 525 l 736 78 q 608 10 683 38 q 444 -17 532 -17 q 292 9 360 -17 q 177 83 225 35 q 103 203 129 132 q 78 367 78 275 m 519 1142 l 736 1142 l 831 972 l 669 972 l 617 1056 l 614 1056 l 533 972 l 358 972 l 519 1142 z "},"Ğ":{"ha":861,"x_min":78,"x_max":839,"o":"m 78 367 q 117 589 78 488 q 223 764 156 690 q 381 878 290 838 q 578 919 472 919 q 733 881 668 919 q 839 772 799 843 l 689 656 q 635 710 664 693 q 567 728 607 728 q 465 701 513 728 q 381 627 417 674 q 326 517 346 581 q 306 381 306 453 q 347 227 306 282 q 483 172 388 172 q 524 178 503 172 q 561 194 546 183 l 594 344 l 461 344 l 494 525 l 822 525 l 736 78 q 608 10 683 38 q 444 -17 532 -17 q 292 9 360 -17 q 177 83 225 35 q 103 203 129 132 q 78 367 78 275 m 594 972 q 473 1017 513 972 q 442 1142 433 1063 l 558 1142 q 615 1081 554 1081 q 667 1097 647 1081 q 697 1142 686 1114 l 817 1142 q 740 1017 792 1063 q 594 972 689 972 z "},"Ġ":{"ha":861,"x_min":78,"x_max":839,"o":"m 78 367 q 117 589 78 488 q 223 764 156 690 q 381 878 290 838 q 578 919 472 919 q 733 881 668 919 q 839 772 799 843 l 689 656 q 635 710 664 693 q 567 728 607 728 q 465 701 513 728 q 381 627 417 674 q 326 517 346 581 q 306 381 306 453 q 347 227 306 282 q 483 172 388 172 q 524 178 503 172 q 561 194 546 183 l 594 344 l 461 344 l 494 525 l 822 525 l 736 78 q 608 10 683 38 q 444 -17 532 -17 q 292 9 360 -17 q 177 83 225 35 q 103 203 129 132 q 78 367 78 275 m 608 969 q 565 976 586 969 q 528 994 544 982 q 501 1026 511 1007 q 492 1072 492 1046 q 502 1120 492 1097 q 531 1160 513 1143 q 573 1187 549 1176 q 625 1197 597 1197 q 668 1190 647 1197 q 706 1171 689 1183 q 732 1139 722 1158 q 742 1094 742 1119 q 703 1005 742 1040 q 608 969 665 969 z "},"Ģ":{"ha":861,"x_min":78,"x_max":839,"o":"m 78 367 q 117 589 78 488 q 223 764 156 690 q 381 878 290 838 q 578 919 472 919 q 733 881 668 919 q 839 772 799 843 l 689 656 q 635 710 664 693 q 567 728 607 728 q 465 701 513 728 q 381 627 417 674 q 326 517 346 581 q 306 381 306 453 q 347 227 306 282 q 483 172 388 172 q 524 178 503 172 q 561 194 546 183 l 594 344 l 461 344 l 494 525 l 822 525 l 736 78 q 608 10 683 38 q 444 -17 532 -17 q 292 9 360 -17 q 177 83 225 35 q 103 203 129 132 q 78 367 78 275 m 392 -50 q 501 -87 463 -61 q 539 -161 539 -112 q 517 -234 539 -206 q 459 -279 496 -262 q 374 -303 422 -296 q 269 -311 325 -310 l 264 -225 q 356 -209 329 -221 q 383 -169 383 -197 q 336 -125 383 -142 l 392 -50 z "},"Ǧ":{"ha":861,"x_min":78,"x_max":864,"o":"m 78 367 q 117 589 78 488 q 223 764 156 690 q 381 878 290 838 q 578 919 472 919 q 733 881 668 919 q 839 772 799 843 l 689 656 q 635 710 664 693 q 567 728 607 728 q 465 701 513 728 q 381 627 417 674 q 326 517 346 581 q 306 381 306 453 q 347 227 306 282 q 483 172 388 172 q 524 178 503 172 q 561 194 546 183 l 594 344 l 461 344 l 494 525 l 822 525 l 736 78 q 608 10 683 38 q 444 -17 532 -17 q 292 9 360 -17 q 177 83 225 35 q 103 203 129 132 q 78 367 78 275 m 703 972 l 486 972 l 392 1142 l 553 1142 l 606 1058 l 608 1058 l 689 1142 l 864 1142 l 703 972 z "},"Ḡ":{"ha":861,"x_min":78,"x_max":839,"o":"m 78 367 q 117 589 78 488 q 223 764 156 690 q 381 878 290 838 q 578 919 472 919 q 733 881 668 919 q 839 772 799 843 l 689 656 q 635 710 664 693 q 567 728 607 728 q 465 701 513 728 q 381 627 417 674 q 326 517 346 581 q 306 381 306 453 q 347 227 306 282 q 483 172 388 172 q 524 178 503 172 q 561 194 546 183 l 594 344 l 461 344 l 494 525 l 822 525 l 736 78 q 608 10 683 38 q 444 -17 532 -17 q 292 9 360 -17 q 177 83 225 35 q 103 203 129 132 q 78 367 78 275 m 433 1136 l 822 1136 l 794 994 l 406 994 l 433 1136 z "},"Ĥ":{"ha":922,"x_min":36,"x_max":928,"o":"m 217 903 l 439 903 l 369 564 l 639 564 l 706 903 l 928 903 l 747 0 l 525 0 l 600 369 l 331 369 l 258 0 l 36 0 l 217 903 m 486 1142 l 703 1142 l 797 972 l 636 972 l 583 1056 l 581 1056 l 500 972 l 325 972 l 486 1142 z "},"Ḥ":{"ha":922,"x_min":36,"x_max":928,"o":"m 217 903 l 439 903 l 369 564 l 639 564 l 706 903 l 928 903 l 747 0 l 525 0 l 600 369 l 331 369 l 258 0 l 36 0 l 217 903 m 353 -317 q 310 -310 331 -317 q 272 -292 289 -304 q 246 -260 256 -279 q 236 -214 236 -240 q 247 -166 236 -189 q 275 -126 257 -143 q 317 -99 293 -110 q 369 -89 342 -89 q 413 -96 392 -89 q 450 -115 433 -103 q 476 -147 467 -128 q 486 -192 486 -167 q 448 -281 486 -246 q 353 -317 410 -317 z "},"Ḫ":{"ha":922,"x_min":36,"x_max":928,"o":"m 217 903 l 439 903 l 369 564 l 639 564 l 706 903 l 928 903 l 747 0 l 525 0 l 600 369 l 331 369 l 258 0 l 36 0 l 217 903 m 344 -289 q 266 -273 299 -289 q 215 -230 233 -257 q 191 -167 196 -203 q 194 -92 186 -132 l 311 -92 q 319 -149 307 -125 q 367 -172 331 -172 q 424 -149 403 -172 q 456 -92 444 -125 l 578 -92 q 549 -167 568 -132 q 500 -230 529 -203 q 431 -273 471 -257 q 344 -289 392 -289 z "},"Ħ":{"ha":922,"x_min":36,"x_max":1042,"o":"m 661 678 l 393 678 l 369 564 l 639 564 l 661 678 m 1022 678 l 883 678 l 747 0 l 525 0 l 600 369 l 331 369 l 258 0 l 36 0 l 172 678 l 94 678 l 114 775 l 193 782 l 217 903 l 439 903 l 414 783 l 682 783 l 706 903 l 928 903 l 904 783 l 1042 783 l 1022 678 z "},"Ì":{"ha":431,"x_min":36,"x_max":439,"o":"m 217 903 l 439 903 l 258 0 l 36 0 l 217 903 m 128 1142 l 353 1142 l 425 972 l 258 972 l 128 1142 z "},"Í":{"ha":431,"x_min":36,"x_max":586,"o":"m 217 903 l 439 903 l 258 0 l 36 0 l 217 903 m 347 1142 l 586 1142 l 389 972 l 208 972 l 347 1142 z "},"Î":{"ha":431,"x_min":36,"x_max":558,"o":"m 217 903 l 439 903 l 258 0 l 36 0 l 217 903 m 247 1142 l 464 1142 l 558 972 l 397 972 l 344 1056 l 342 1056 l 261 972 l 86 972 l 247 1142 z "},"Ĩ":{"ha":431,"x_min":36,"x_max":597,"o":"m 217 903 l 439 903 l 258 0 l 36 0 l 217 903 m 86 972 q 164 1119 114 1071 q 265 1167 214 1167 q 319 1157 297 1167 q 358 1136 340 1147 q 391 1115 375 1125 q 428 1106 407 1106 q 456 1119 443 1106 q 483 1164 469 1132 l 597 1164 q 519 1017 569 1065 q 418 969 469 969 q 365 979 386 969 q 326 1000 343 989 q 292 1021 308 1011 q 256 1031 276 1031 q 227 1017 240 1031 q 200 972 214 1004 l 86 972 z "},"Ï":{"ha":431,"x_min":36,"x_max":583,"o":"m 217 903 l 439 903 l 258 0 l 36 0 l 217 903 m 192 967 q 128 990 154 967 q 103 1056 103 1014 q 111 1097 103 1076 q 135 1135 119 1118 q 171 1162 150 1151 q 217 1172 192 1172 q 279 1149 253 1172 q 306 1083 306 1125 q 297 1042 306 1063 q 274 1004 289 1021 q 238 977 258 988 q 192 967 217 967 m 469 967 q 406 990 432 967 q 381 1056 381 1014 q 389 1097 381 1076 q 413 1135 397 1118 q 449 1162 428 1151 q 494 1172 469 1172 q 557 1149 531 1172 q 583 1083 583 1125 q 575 1042 583 1063 q 551 1004 567 1021 q 515 977 536 988 q 469 967 494 967 z "},"Ī":{"ha":431,"x_min":36,"x_max":550,"o":"m 217 903 l 439 903 l 258 0 l 36 0 l 217 903 m 161 1136 l 550 1136 l 522 994 l 133 994 l 161 1136 z "},"İ":{"ha":431,"x_min":36,"x_max":469,"o":"m 217 903 l 439 903 l 258 0 l 36 0 l 217 903 m 336 969 q 293 976 314 969 q 256 994 272 982 q 229 1026 239 1007 q 219 1072 219 1046 q 230 1120 219 1097 q 258 1160 240 1143 q 301 1187 276 1176 q 353 1197 325 1197 q 396 1190 375 1197 q 433 1171 417 1183 q 460 1139 450 1158 q 469 1094 469 1119 q 431 1005 469 1040 q 336 969 393 969 z "},"Ǐ":{"ha":431,"x_min":36,"x_max":592,"o":"m 217 903 l 439 903 l 258 0 l 36 0 l 217 903 m 431 972 l 214 972 l 119 1142 l 281 1142 l 333 1058 l 336 1058 l 417 1142 l 592 1142 l 431 972 z "},"Ỉ":{"ha":431,"x_min":36,"x_max":500,"o":"m 217 903 l 439 903 l 258 0 l 36 0 l 217 903 m 286 1233 q 452 1199 404 1229 q 500 1122 500 1168 q 482 1052 500 1082 q 433 1002 464 1022 q 362 971 403 982 q 275 956 321 960 l 269 1042 q 315 1054 297 1046 q 333 1083 333 1063 q 313 1110 333 1100 q 239 1122 292 1119 l 286 1233 z "},"Ị":{"ha":431,"x_min":-14,"x_max":439,"o":"m 217 903 l 439 903 l 258 0 l 36 0 l 217 903 m 103 -317 q 60 -310 81 -317 q 22 -292 39 -304 q -4 -260 6 -279 q -14 -214 -14 -240 q -3 -166 -14 -189 q 25 -126 7 -143 q 67 -99 43 -110 q 119 -89 92 -89 q 163 -96 142 -89 q 200 -115 183 -103 q 226 -147 217 -128 q 236 -192 236 -167 q 198 -281 236 -246 q 103 -317 160 -317 z "},"Į":{"ha":431,"x_min":-47,"x_max":439,"o":"m 125 -131 q 139 -162 125 -151 q 172 -172 153 -172 q 206 -161 188 -172 l 247 -267 q 171 -301 215 -287 q 89 -314 126 -314 q -10 -285 28 -314 q -47 -203 -47 -256 q -32 -134 -47 -167 q 5 -74 -17 -101 q 50 -28 26 -47 q 89 0 74 -10 l 36 0 l 217 903 l 439 903 l 258 0 q 156 -62 188 -24 q 125 -131 125 -101 z "},"Ĵ":{"ha":700,"x_min":-14,"x_max":831,"o":"m 592 293 q 553 175 579 231 q 487 76 528 119 q 388 8 446 33 q 253 -17 329 -17 q 103 18 175 -17 q -14 119 31 53 l 119 256 q 174 201 140 226 q 253 175 208 175 q 331 212 301 175 q 378 332 361 249 l 492 903 l 714 903 l 592 293 l 592 293 m 519 1142 l 736 1142 l 831 972 l 669 972 l 617 1056 l 614 1056 l 533 972 l 358 972 l 519 1142 z "},"Ķ":{"ha":864,"x_min":36,"x_max":914,"o":"m 217 903 l 439 903 l 371 561 l 376 561 l 672 903 l 914 903 l 589 522 l 789 0 l 558 0 l 425 383 l 308 250 l 258 0 l 36 0 l 217 903 m 358 -50 q 467 -87 429 -61 q 506 -161 506 -112 q 484 -234 506 -206 q 426 -279 463 -262 q 340 -303 389 -296 q 236 -311 292 -310 l 231 -225 q 323 -209 296 -221 q 350 -169 350 -197 q 303 -125 350 -142 l 358 -50 z "},"Ĺ":{"ha":714,"x_min":36,"x_max":622,"o":"m 217 903 l 439 903 l 294 186 l 622 186 l 586 0 l 36 0 l 217 903 m 372 1142 l 611 1142 l 414 972 l 233 972 l 372 1142 z "},"Ľ":{"ha":714,"x_min":36,"x_max":747,"o":"m 217 903 l 439 903 l 294 186 l 622 186 l 586 0 l 36 0 l 217 903 m 553 704 l 608 1018 l 747 1018 l 725 915 l 647 704 l 553 704 z "},"Ļ":{"ha":714,"x_min":36,"x_max":622,"o":"m 217 903 l 439 903 l 294 186 l 622 186 l 586 0 l 36 0 l 217 903 m 278 -50 q 387 -87 349 -61 q 425 -161 425 -112 q 403 -234 425 -206 q 345 -279 382 -262 q 260 -303 308 -296 q 156 -311 211 -310 l 150 -225 q 242 -209 215 -221 q 269 -169 269 -197 q 222 -125 269 -142 l 278 -50 z "},"Ŀ":{"ha":714,"x_min":36,"x_max":728,"o":"m 217 903 l 439 903 l 294 186 l 622 186 l 586 0 l 36 0 l 217 903 m 575 317 q 494 349 525 317 q 464 433 464 381 q 475 489 464 461 q 506 539 486 517 q 554 575 526 561 q 617 589 582 589 q 697 556 667 589 q 728 472 728 522 q 717 415 728 443 q 685 365 706 388 q 638 330 665 343 q 575 317 610 317 z "},"Ḷ":{"ha":714,"x_min":36,"x_max":622,"o":"m 217 903 l 439 903 l 294 186 l 622 186 l 586 0 l 36 0 l 217 903 m 283 -317 q 240 -310 261 -317 q 203 -292 219 -304 q 176 -260 186 -279 q 167 -214 167 -240 q 177 -166 167 -189 q 206 -126 188 -143 q 248 -99 224 -110 q 300 -89 272 -89 q 343 -96 322 -89 q 381 -115 364 -103 q 407 -147 397 -128 q 417 -192 417 -167 q 378 -281 417 -246 q 283 -317 340 -317 z "},"Ḹ":{"ha":714,"x_min":36,"x_max":622,"o":"m 217 903 l 439 903 l 294 186 l 622 186 l 586 0 l 36 0 l 217 903 m 186 1136 l 575 1136 l 547 994 l 158 994 l 186 1136 m 283 -317 q 240 -310 261 -317 q 203 -292 219 -304 q 176 -260 186 -279 q 167 -214 167 -240 q 177 -166 167 -189 q 206 -126 188 -143 q 248 -99 224 -110 q 300 -89 272 -89 q 343 -96 322 -89 q 381 -115 364 -103 q 407 -147 397 -128 q 417 -192 417 -167 q 378 -281 417 -246 q 283 -317 340 -317 z "},"Ḻ":{"ha":714,"x_min":36,"x_max":622,"o":"m 217 903 l 439 903 l 294 186 l 622 186 l 586 0 l 36 0 l 217 903 m 117 -114 l 497 -114 l 469 -253 l 89 -253 l 117 -114 z "},"Ł":{"ha":714,"x_min":-11,"x_max":622,"o":"m 294 186 l 622 186 l 586 0 l 36 0 l 89 265 l -11 214 l 25 397 l 126 449 l 217 903 l 439 903 l 371 561 l 622 692 l 586 508 l 333 378 l 294 186 z "},"Ṃ":{"ha":1047,"x_min":36,"x_max":1053,"o":"m 217 903 l 447 903 l 506 514 l 526 361 l 532 361 l 611 514 l 822 903 l 1053 903 l 872 0 l 664 0 l 728 300 q 745 376 735 335 q 768 460 756 418 q 793 542 781 501 q 817 617 806 582 l 813 617 l 700 406 l 508 78 l 425 78 l 367 406 l 339 617 l 335 617 q 328 541 332 582 q 321 458 325 500 q 312 376 317 417 q 300 300 307 335 l 239 0 l 36 0 l 217 903 m 414 -328 q 371 -322 392 -328 q 333 -303 350 -315 q 307 -271 317 -290 q 297 -225 297 -251 q 308 -177 297 -200 q 336 -137 318 -154 q 378 -110 354 -121 q 431 -100 403 -100 q 474 -107 453 -100 q 511 -126 494 -114 q 538 -158 528 -139 q 547 -203 547 -178 q 509 -292 547 -257 q 414 -328 471 -328 z "},"Ń":{"ha":906,"x_min":36,"x_max":911,"o":"m 217 903 l 431 903 l 556 475 l 600 272 l 606 272 q 611 351 608 308 q 618 439 614 394 q 628 528 622 483 q 642 614 633 574 l 700 903 l 911 903 l 731 0 l 517 0 l 392 428 l 350 631 l 344 631 q 330 463 338 553 q 306 292 322 374 l 247 0 l 36 0 l 217 903 m 603 1142 l 842 1142 l 644 972 l 464 972 l 603 1142 z "},"Ň":{"ha":906,"x_min":36,"x_max":911,"o":"m 217 903 l 431 903 l 556 475 l 600 272 l 606 272 q 611 351 608 308 q 618 439 614 394 q 628 528 622 483 q 642 614 633 574 l 700 903 l 911 903 l 731 0 l 517 0 l 392 428 l 350 631 l 344 631 q 330 463 338 553 q 306 292 322 374 l 247 0 l 36 0 l 217 903 m 686 972 l 469 972 l 375 1142 l 536 1142 l 589 1058 l 592 1058 l 672 1142 l 847 1142 l 686 972 z "},"Ñ":{"ha":906,"x_min":36,"x_max":911,"o":"m 217 903 l 431 903 l 556 475 l 600 272 l 606 272 q 611 351 608 308 q 618 439 614 394 q 628 528 622 483 q 642 614 633 574 l 700 903 l 911 903 l 731 0 l 517 0 l 392 428 l 350 631 l 344 631 q 330 463 338 553 q 306 292 322 374 l 247 0 l 36 0 l 217 903 m 342 972 q 419 1119 369 1071 q 521 1167 469 1167 q 574 1157 553 1167 q 613 1136 596 1147 q 647 1115 631 1125 q 683 1106 663 1106 q 712 1119 699 1106 q 739 1164 725 1132 l 853 1164 q 775 1017 825 1065 q 674 969 725 969 q 620 979 642 969 q 581 1000 599 989 q 548 1021 564 1011 q 511 1031 532 1031 q 483 1017 496 1031 q 456 972 469 1004 l 342 972 z "},"Ņ":{"ha":906,"x_min":36,"x_max":911,"o":"m 217 903 l 431 903 l 556 475 l 600 272 l 606 272 q 611 351 608 308 q 618 439 614 394 q 628 528 622 483 q 642 614 633 574 l 700 903 l 911 903 l 731 0 l 517 0 l 392 428 l 350 631 l 344 631 q 330 463 338 553 q 306 292 322 374 l 247 0 l 36 0 l 217 903 m 372 -61 q 481 -98 443 -72 q 519 -172 519 -124 q 498 -245 519 -217 q 440 -290 476 -274 q 354 -314 403 -307 q 250 -322 306 -321 l 244 -236 q 337 -220 310 -232 q 364 -181 364 -208 q 317 -136 364 -153 l 372 -61 z "},"Ṅ":{"ha":906,"x_min":36,"x_max":911,"o":"m 217 903 l 431 903 l 556 475 l 600 272 l 606 272 q 611 351 608 308 q 618 439 614 394 q 628 528 622 483 q 642 614 633 574 l 700 903 l 911 903 l 731 0 l 517 0 l 392 428 l 350 631 l 344 631 q 330 463 338 553 q 306 292 322 374 l 247 0 l 36 0 l 217 903 m 592 969 q 549 976 569 969 q 511 994 528 982 q 485 1026 494 1007 q 475 1072 475 1046 q 485 1120 475 1097 q 514 1160 496 1143 q 556 1187 532 1176 q 608 1197 581 1197 q 651 1190 631 1197 q 689 1171 672 1183 q 715 1139 706 1158 q 725 1094 725 1119 q 687 1005 725 1040 q 592 969 649 969 z "},"Ṇ":{"ha":906,"x_min":36,"x_max":911,"o":"m 217 903 l 431 903 l 556 475 l 600 272 l 606 272 q 611 351 608 308 q 618 439 614 394 q 628 528 622 483 q 642 614 633 574 l 700 903 l 911 903 l 731 0 l 517 0 l 392 428 l 350 631 l 344 631 q 330 463 338 553 q 306 292 322 374 l 247 0 l 36 0 l 217 903 m 378 -328 q 335 -322 356 -328 q 297 -303 314 -315 q 271 -271 281 -290 q 261 -225 261 -251 q 272 -177 261 -200 q 300 -137 282 -154 q 342 -110 318 -121 q 394 -100 367 -100 q 438 -107 417 -100 q 475 -126 458 -114 q 501 -158 492 -139 q 511 -203 511 -178 q 473 -292 511 -257 q 378 -328 435 -328 z "},"Ṉ":{"ha":906,"x_min":36,"x_max":911,"o":"m 217 903 l 431 903 l 556 475 l 600 272 l 606 272 q 611 351 608 308 q 618 439 614 394 q 628 528 622 483 q 642 614 633 574 l 700 903 l 911 903 l 731 0 l 517 0 l 392 428 l 350 631 l 344 631 q 330 463 338 553 q 306 292 322 374 l 247 0 l 36 0 l 217 903 m 211 -125 l 592 -125 l 564 -264 l 183 -264 l 211 -125 z "},"Ò":{"ha":931,"x_min":78,"x_max":894,"o":"m 428 -17 q 285 9 350 -17 q 175 83 221 35 q 103 203 129 132 q 78 367 78 275 q 117 595 78 493 q 222 769 157 697 q 370 881 286 842 q 544 919 454 919 q 687 894 622 919 q 797 819 751 868 q 869 699 843 771 q 894 536 894 628 q 855 308 894 410 q 751 133 815 206 q 601 22 686 61 q 428 -17 517 -17 m 533 728 q 454 703 494 728 q 381 632 414 678 q 326 522 347 586 q 306 381 306 458 q 341 228 306 282 q 439 175 376 175 q 518 200 478 175 q 592 271 558 225 q 646 381 625 317 q 667 522 667 444 q 631 674 667 621 q 533 728 596 728 m 386 1142 l 611 1142 l 683 972 l 517 972 l 386 1142 z "},"Ó":{"ha":931,"x_min":78,"x_max":894,"o":"m 428 -17 q 285 9 350 -17 q 175 83 221 35 q 103 203 129 132 q 78 367 78 275 q 117 595 78 493 q 222 769 157 697 q 370 881 286 842 q 544 919 454 919 q 687 894 622 919 q 797 819 751 868 q 869 699 843 771 q 894 536 894 628 q 855 308 894 410 q 751 133 815 206 q 601 22 686 61 q 428 -17 517 -17 m 533 728 q 454 703 494 728 q 381 632 414 678 q 326 522 347 586 q 306 381 306 458 q 341 228 306 282 q 439 175 376 175 q 518 200 478 175 q 592 271 558 225 q 646 381 625 317 q 667 522 667 444 q 631 674 667 621 q 533 728 596 728 m 606 1142 l 844 1142 l 647 972 l 467 972 l 606 1142 z "},"Ô":{"ha":931,"x_min":78,"x_max":894,"o":"m 428 -17 q 285 9 350 -17 q 175 83 221 35 q 103 203 129 132 q 78 367 78 275 q 117 595 78 493 q 222 769 157 697 q 370 881 286 842 q 544 919 454 919 q 687 894 622 919 q 797 819 751 868 q 869 699 843 771 q 894 536 894 628 q 855 308 894 410 q 751 133 815 206 q 601 22 686 61 q 428 -17 517 -17 m 533 728 q 454 703 494 728 q 381 632 414 678 q 326 522 347 586 q 306 381 306 458 q 341 228 306 282 q 439 175 376 175 q 518 200 478 175 q 592 271 558 225 q 646 381 625 317 q 667 522 667 444 q 631 674 667 621 q 533 728 596 728 m 506 1142 l 722 1142 l 817 972 l 656 972 l 603 1056 l 600 1056 l 519 972 l 344 972 l 506 1142 z "},"Õ":{"ha":931,"x_min":78,"x_max":894,"o":"m 428 -17 q 285 9 350 -17 q 175 83 221 35 q 103 203 129 132 q 78 367 78 275 q 117 595 78 493 q 222 769 157 697 q 370 881 286 842 q 544 919 454 919 q 687 894 622 919 q 797 819 751 868 q 869 699 843 771 q 894 536 894 628 q 855 308 894 410 q 751 133 815 206 q 601 22 686 61 q 428 -17 517 -17 m 533 728 q 454 703 494 728 q 381 632 414 678 q 326 522 347 586 q 306 381 306 458 q 341 228 306 282 q 439 175 376 175 q 518 200 478 175 q 592 271 558 225 q 646 381 625 317 q 667 522 667 444 q 631 674 667 621 q 533 728 596 728 m 344 972 q 422 1119 372 1071 q 524 1167 472 1167 q 577 1157 556 1167 q 616 1136 599 1147 q 649 1115 633 1125 q 686 1106 665 1106 q 715 1119 701 1106 q 742 1164 728 1132 l 856 1164 q 778 1017 828 1065 q 676 969 728 969 q 623 979 644 969 q 584 1000 601 989 q 551 1021 567 1011 q 514 1031 535 1031 q 485 1017 499 1031 q 458 972 472 1004 l 344 972 z "},"Ö":{"ha":931,"x_min":78,"x_max":894,"o":"m 428 -17 q 285 9 350 -17 q 175 83 221 35 q 103 203 129 132 q 78 367 78 275 q 117 595 78 493 q 222 769 157 697 q 370 881 286 842 q 544 919 454 919 q 687 894 622 919 q 797 819 751 868 q 869 699 843 771 q 894 536 894 628 q 855 308 894 410 q 751 133 815 206 q 601 22 686 61 q 428 -17 517 -17 m 533 728 q 454 703 494 728 q 381 632 414 678 q 326 522 347 586 q 306 381 306 458 q 341 228 306 282 q 439 175 376 175 q 518 200 478 175 q 592 271 558 225 q 646 381 625 317 q 667 522 667 444 q 631 674 667 621 q 533 728 596 728 m 450 967 q 387 990 413 967 q 361 1056 361 1014 q 369 1097 361 1076 q 393 1135 378 1118 q 429 1162 408 1151 q 475 1172 450 1172 q 538 1149 511 1172 q 564 1083 564 1125 q 556 1042 564 1063 q 532 1004 547 1021 q 496 977 517 988 q 450 967 475 967 m 728 967 q 665 990 690 967 q 639 1056 639 1014 q 647 1097 639 1076 q 671 1135 656 1118 q 707 1162 686 1151 q 753 1172 728 1172 q 815 1149 789 1172 q 842 1083 842 1125 q 833 1042 842 1063 q 810 1004 825 1021 q 774 977 794 988 q 728 967 753 967 z "},"Ō":{"ha":931,"x_min":78,"x_max":894,"o":"m 428 -17 q 285 9 350 -17 q 175 83 221 35 q 103 203 129 132 q 78 367 78 275 q 117 595 78 493 q 222 769 157 697 q 370 881 286 842 q 544 919 454 919 q 687 894 622 919 q 797 819 751 868 q 869 699 843 771 q 894 536 894 628 q 855 308 894 410 q 751 133 815 206 q 601 22 686 61 q 428 -17 517 -17 m 533 728 q 454 703 494 728 q 381 632 414 678 q 326 522 347 586 q 306 381 306 458 q 341 228 306 282 q 439 175 376 175 q 518 200 478 175 q 592 271 558 225 q 646 381 625 317 q 667 522 667 444 q 631 674 667 621 q 533 728 596 728 m 419 1136 l 808 1136 l 781 994 l 392 994 l 419 1136 z "},"Ő":{"ha":931,"x_min":78,"x_max":939,"o":"m 428 -17 q 285 9 350 -17 q 175 83 221 35 q 103 203 129 132 q 78 367 78 275 q 117 595 78 493 q 222 769 157 697 q 370 881 286 842 q 544 919 454 919 q 687 894 622 919 q 797 819 751 868 q 869 699 843 771 q 894 536 894 628 q 855 308 894 410 q 751 133 815 206 q 601 22 686 61 q 428 -17 517 -17 m 533 728 q 454 703 494 728 q 381 632 414 678 q 326 522 347 586 q 306 381 306 458 q 341 228 306 282 q 439 175 376 175 q 518 200 478 175 q 592 271 558 225 q 646 381 625 317 q 667 522 667 444 q 631 674 667 621 q 533 728 596 728 m 506 1142 l 692 1142 l 536 972 l 389 972 l 506 1142 m 753 1142 l 939 1142 l 783 972 l 636 972 l 753 1142 z "},"Ǒ":{"ha":931,"x_min":78,"x_max":894,"o":"m 428 -17 q 285 9 350 -17 q 175 83 221 35 q 103 203 129 132 q 78 367 78 275 q 117 595 78 493 q 222 769 157 697 q 370 881 286 842 q 544 919 454 919 q 687 894 622 919 q 797 819 751 868 q 869 699 843 771 q 894 536 894 628 q 855 308 894 410 q 751 133 815 206 q 601 22 686 61 q 428 -17 517 -17 m 533 728 q 454 703 494 728 q 381 632 414 678 q 326 522 347 586 q 306 381 306 458 q 341 228 306 282 q 439 175 376 175 q 518 200 478 175 q 592 271 558 225 q 646 381 625 317 q 667 522 667 444 q 631 674 667 621 q 533 728 596 728 m 689 972 l 472 972 l 378 1142 l 539 1142 l 592 1058 l 594 1058 l 675 1142 l 850 1142 l 689 972 z "},"Ọ":{"ha":931,"x_min":78,"x_max":894,"o":"m 428 -17 q 285 9 350 -17 q 175 83 221 35 q 103 203 129 132 q 78 367 78 275 q 117 595 78 493 q 222 769 157 697 q 370 881 286 842 q 544 919 454 919 q 687 894 622 919 q 797 819 751 868 q 869 699 843 771 q 894 536 894 628 q 855 308 894 410 q 751 133 815 206 q 601 22 686 61 q 428 -17 517 -17 m 533 728 q 454 703 494 728 q 381 632 414 678 q 326 522 347 586 q 306 381 306 458 q 341 228 306 282 q 439 175 376 175 q 518 200 478 175 q 592 271 558 225 q 646 381 625 317 q 667 522 667 444 q 631 674 667 621 q 533 728 596 728 m 364 -317 q 321 -310 342 -317 q 283 -292 300 -304 q 257 -260 267 -279 q 247 -214 247 -240 q 258 -166 247 -189 q 286 -126 268 -143 q 328 -99 304 -110 q 381 -89 353 -89 q 424 -96 403 -89 q 461 -115 444 -103 q 488 -147 478 -128 q 497 -192 497 -167 q 459 -281 497 -246 q 364 -317 421 -317 z "},"Ỏ":{"ha":931,"x_min":78,"x_max":894,"o":"m 428 -17 q 285 9 350 -17 q 175 83 221 35 q 103 203 129 132 q 78 367 78 275 q 117 595 78 493 q 222 769 157 697 q 370 881 286 842 q 544 919 454 919 q 687 894 622 919 q 797 819 751 868 q 869 699 843 771 q 894 536 894 628 q 855 308 894 410 q 751 133 815 206 q 601 22 686 61 q 428 -17 517 -17 m 533 728 q 454 703 494 728 q 381 632 414 678 q 326 522 347 586 q 306 381 306 458 q 341 228 306 282 q 439 175 376 175 q 518 200 478 175 q 592 271 558 225 q 646 381 625 317 q 667 522 667 444 q 631 674 667 621 q 533 728 596 728 m 544 1233 q 710 1199 663 1229 q 758 1122 758 1168 q 740 1052 758 1082 q 692 1002 722 1022 q 620 971 661 982 q 533 956 579 960 l 528 1042 q 574 1054 556 1046 q 592 1083 592 1063 q 571 1110 592 1100 q 497 1122 550 1119 l 544 1233 z "},"Ố":{"ha":931,"x_min":78,"x_max":1058,"o":"m 428 -17 q 285 9 350 -17 q 175 83 221 35 q 103 203 129 132 q 78 367 78 275 q 117 595 78 493 q 222 769 157 697 q 370 881 286 842 q 544 919 454 919 q 687 894 622 919 q 797 819 751 868 q 869 699 843 771 q 894 536 894 628 q 855 308 894 410 q 751 133 815 206 q 601 22 686 61 q 428 -17 517 -17 m 533 728 q 454 703 494 728 q 381 632 414 678 q 326 522 347 586 q 306 381 306 458 q 341 228 306 282 q 439 175 376 175 q 518 200 478 175 q 592 271 558 225 q 646 381 625 317 q 667 522 667 444 q 631 674 667 621 q 533 728 596 728 m 892 1236 l 1058 1236 l 903 1067 l 781 1067 l 892 1236 m 525 1133 l 717 1133 l 811 972 l 656 972 l 606 1044 l 600 1044 l 522 972 l 367 972 l 525 1133 z "},"Ồ":{"ha":931,"x_min":78,"x_max":947,"o":"m 428 -17 q 285 9 350 -17 q 175 83 221 35 q 103 203 129 132 q 78 367 78 275 q 117 595 78 493 q 222 769 157 697 q 370 881 286 842 q 544 919 454 919 q 687 894 622 919 q 797 819 751 868 q 869 699 843 771 q 894 536 894 628 q 855 308 894 410 q 751 133 815 206 q 601 22 686 61 q 428 -17 517 -17 m 533 728 q 454 703 494 728 q 381 632 414 678 q 326 522 347 586 q 306 381 306 458 q 341 228 306 282 q 439 175 376 175 q 518 200 478 175 q 592 271 558 225 q 646 381 625 317 q 667 522 667 444 q 631 674 667 621 q 533 728 596 728 m 947 1067 l 822 1067 l 736 1236 l 903 1236 l 947 1067 m 525 1133 l 717 1133 l 811 972 l 656 972 l 606 1044 l 600 1044 l 522 972 l 367 972 l 525 1133 z "},"Ổ":{"ha":931,"x_min":78,"x_max":982,"o":"m 428 -17 q 285 9 350 -17 q 175 83 221 35 q 103 203 129 132 q 78 367 78 275 q 117 595 78 493 q 222 769 157 697 q 370 881 286 842 q 544 919 454 919 q 687 894 622 919 q 797 819 751 868 q 869 699 843 771 q 894 536 894 628 q 855 308 894 410 q 751 133 815 206 q 601 22 686 61 q 428 -17 517 -17 m 533 728 q 454 703 494 728 q 381 632 414 678 q 326 522 347 586 q 306 381 306 458 q 341 228 306 282 q 439 175 376 175 q 518 200 478 175 q 592 271 558 225 q 646 381 625 317 q 667 522 667 444 q 631 674 667 621 q 533 728 596 728 m 525 1133 l 717 1133 l 811 972 l 656 972 l 606 1044 l 600 1044 l 522 972 l 367 972 l 525 1133 m 799 1275 q 888 1265 853 1272 q 944 1244 924 1257 q 974 1215 965 1232 q 982 1178 982 1197 q 930 1076 982 1107 q 796 1039 878 1046 l 793 1108 q 827 1121 814 1113 q 840 1150 840 1129 q 823 1174 840 1165 q 760 1186 806 1182 l 799 1275 z "},"Ỗ":{"ha":931,"x_min":78,"x_max":894,"o":"m 428 -17 q 285 9 350 -17 q 175 83 221 35 q 103 203 129 132 q 78 367 78 275 q 117 595 78 493 q 222 769 157 697 q 370 881 286 842 q 544 919 454 919 q 687 894 622 919 q 797 819 751 868 q 869 699 843 771 q 894 536 894 628 q 855 308 894 410 q 751 133 815 206 q 601 22 686 61 q 428 -17 517 -17 m 533 728 q 454 703 494 728 q 381 632 414 678 q 326 522 347 586 q 306 381 306 458 q 341 228 306 282 q 439 175 376 175 q 518 200 478 175 q 592 271 558 225 q 646 381 625 317 q 667 522 667 444 q 631 674 667 621 q 533 728 596 728 m 525 1133 l 717 1133 l 811 972 l 656 972 l 606 1044 l 600 1044 l 522 972 l 367 972 l 525 1133 m 419 1183 q 492 1308 447 1269 q 581 1347 536 1347 q 622 1339 603 1347 q 656 1321 640 1331 q 686 1303 672 1311 q 714 1294 700 1294 q 744 1307 729 1294 q 772 1347 760 1319 l 867 1347 q 794 1222 839 1260 q 706 1183 750 1183 q 664 1191 682 1183 q 631 1208 646 1199 q 602 1226 615 1218 q 575 1233 589 1233 q 543 1221 558 1233 q 517 1183 528 1208 l 419 1183 z "},"Ộ":{"ha":931,"x_min":78,"x_max":894,"o":"m 428 -17 q 285 9 350 -17 q 175 83 221 35 q 103 203 129 132 q 78 367 78 275 q 117 595 78 493 q 222 769 157 697 q 370 881 286 842 q 544 919 454 919 q 687 894 622 919 q 797 819 751 868 q 869 699 843 771 q 894 536 894 628 q 855 308 894 410 q 751 133 815 206 q 601 22 686 61 q 428 -17 517 -17 m 533 728 q 454 703 494 728 q 381 632 414 678 q 326 522 347 586 q 306 381 306 458 q 341 228 306 282 q 439 175 376 175 q 518 200 478 175 q 592 271 558 225 q 646 381 625 317 q 667 522 667 444 q 631 674 667 621 q 533 728 596 728 m 506 1142 l 722 1142 l 817 972 l 656 972 l 603 1056 l 600 1056 l 519 972 l 344 972 l 506 1142 m 364 -317 q 321 -310 342 -317 q 283 -292 300 -304 q 257 -260 267 -279 q 247 -214 247 -240 q 258 -166 247 -189 q 286 -126 268 -143 q 328 -99 304 -110 q 381 -89 353 -89 q 424 -96 403 -89 q 461 -115 444 -103 q 488 -147 478 -128 q 497 -192 497 -167 q 459 -281 497 -246 q 364 -317 421 -317 z "},"Ø":{"ha":931,"x_min":-17,"x_max":1008,"o":"m 351 215 q 439 175 385 175 q 518 200 478 175 q 592 271 558 225 q 646 381 625 317 q 667 522 667 444 l 667 538 l 351 215 m 625 683 q 533 728 592 728 q 454 703 494 728 q 381 632 414 678 q 326 522 347 586 q 306 381 306 458 l 306 357 l 625 683 m 857 731 q 885 642 875 690 q 894 536 894 593 q 855 308 894 410 q 751 133 815 206 q 601 22 686 61 q 428 -17 517 -17 q 199 60 290 -17 l 81 -61 l -17 28 l 118 165 q 78 367 78 250 q 117 595 78 493 q 222 769 157 697 q 370 881 286 842 q 544 919 454 919 q 778 839 686 919 l 911 975 l 1008 886 l 857 731 z "},"Œ":{"ha":1167,"x_min":78,"x_max":1189,"o":"m 78 356 q 116 596 78 493 q 222 767 154 699 q 380 869 289 835 q 578 903 471 903 l 1189 903 l 1153 717 l 836 717 l 806 558 l 1072 558 l 1036 372 l 769 372 l 731 186 l 1058 186 l 1022 0 l 483 0 q 185 86 293 0 q 78 356 78 172 m 583 725 q 476 706 526 725 q 388 645 426 688 q 328 535 350 603 q 306 369 306 467 q 319 280 306 317 q 358 220 333 243 q 415 188 382 197 q 489 178 449 178 l 508 178 l 617 725 l 583 725 z "},"Ơ":{"ha":931,"x_min":78,"x_max":992,"o":"m 439 175 q 518 200 478 175 q 592 271 558 225 q 646 381 625 317 q 667 522 667 444 q 631 674 667 621 q 533 728 596 728 q 454 703 494 728 q 381 632 414 678 q 326 522 347 586 q 306 381 306 458 q 341 228 306 282 q 439 175 376 175 m 972 1081 q 992 989 992 1038 q 944 872 992 921 q 810 806 897 824 q 872 690 850 757 q 894 536 894 622 q 855 308 894 410 q 751 133 815 206 q 601 22 686 61 q 428 -17 517 -17 q 285 9 350 -17 q 175 83 221 35 q 103 203 129 132 q 78 367 78 275 q 117 595 78 493 q 222 769 157 697 q 370 881 286 842 q 544 919 454 919 q 717 881 642 919 q 794 917 769 888 q 819 978 819 946 q 808 1031 819 1004 l 972 1081 z "},"Ớ":{"ha":931,"x_min":78,"x_max":992,"o":"m 439 175 q 518 200 478 175 q 592 271 558 225 q 646 381 625 317 q 667 522 667 444 q 631 674 667 621 q 533 728 596 728 q 454 703 494 728 q 381 632 414 678 q 326 522 347 586 q 306 381 306 458 q 341 228 306 282 q 439 175 376 175 m 972 1081 q 992 989 992 1038 q 944 872 992 921 q 810 806 897 824 q 872 690 850 757 q 894 536 894 622 q 855 308 894 410 q 751 133 815 206 q 601 22 686 61 q 428 -17 517 -17 q 285 9 350 -17 q 175 83 221 35 q 103 203 129 132 q 78 367 78 275 q 117 595 78 493 q 222 769 157 697 q 370 881 286 842 q 544 919 454 919 q 717 881 642 919 q 794 917 769 888 q 819 978 819 946 q 808 1031 819 1004 l 972 1081 m 575 1142 l 814 1142 l 617 972 l 436 972 l 575 1142 z "},"Ờ":{"ha":931,"x_min":78,"x_max":992,"o":"m 439 175 q 518 200 478 175 q 592 271 558 225 q 646 381 625 317 q 667 522 667 444 q 631 674 667 621 q 533 728 596 728 q 454 703 494 728 q 381 632 414 678 q 326 522 347 586 q 306 381 306 458 q 341 228 306 282 q 439 175 376 175 m 972 1081 q 992 989 992 1038 q 944 872 992 921 q 810 806 897 824 q 872 690 850 757 q 894 536 894 622 q 855 308 894 410 q 751 133 815 206 q 601 22 686 61 q 428 -17 517 -17 q 285 9 350 -17 q 175 83 221 35 q 103 203 129 132 q 78 367 78 275 q 117 595 78 493 q 222 769 157 697 q 370 881 286 842 q 544 919 454 919 q 717 881 642 919 q 794 917 769 888 q 819 978 819 946 q 808 1031 819 1004 l 972 1081 m 356 1142 l 581 1142 l 653 972 l 486 972 l 356 1142 z "},"Ở":{"ha":931,"x_min":78,"x_max":992,"o":"m 439 175 q 518 200 478 175 q 592 271 558 225 q 646 381 625 317 q 667 522 667 444 q 631 674 667 621 q 533 728 596 728 q 454 703 494 728 q 381 632 414 678 q 326 522 347 586 q 306 381 306 458 q 341 228 306 282 q 439 175 376 175 m 972 1081 q 992 989 992 1038 q 944 872 992 921 q 810 806 897 824 q 872 690 850 757 q 894 536 894 622 q 855 308 894 410 q 751 133 815 206 q 601 22 686 61 q 428 -17 517 -17 q 285 9 350 -17 q 175 83 221 35 q 103 203 129 132 q 78 367 78 275 q 117 595 78 493 q 222 769 157 697 q 370 881 286 842 q 544 919 454 919 q 717 881 642 919 q 794 917 769 888 q 819 978 819 946 q 808 1031 819 1004 l 972 1081 m 514 1233 q 680 1199 632 1229 q 728 1122 728 1168 q 710 1052 728 1082 q 661 1002 692 1022 q 590 971 631 982 q 503 956 549 960 l 497 1042 q 543 1054 525 1046 q 561 1083 561 1063 q 540 1110 561 1100 q 467 1122 519 1119 l 514 1233 z "},"Ỡ":{"ha":931,"x_min":78,"x_max":992,"o":"m 439 175 q 518 200 478 175 q 592 271 558 225 q 646 381 625 317 q 667 522 667 444 q 631 674 667 621 q 533 728 596 728 q 454 703 494 728 q 381 632 414 678 q 326 522 347 586 q 306 381 306 458 q 341 228 306 282 q 439 175 376 175 m 972 1081 q 992 989 992 1038 q 944 872 992 921 q 810 806 897 824 q 872 690 850 757 q 894 536 894 622 q 855 308 894 410 q 751 133 815 206 q 601 22 686 61 q 428 -17 517 -17 q 285 9 350 -17 q 175 83 221 35 q 103 203 129 132 q 78 367 78 275 q 117 595 78 493 q 222 769 157 697 q 370 881 286 842 q 544 919 454 919 q 717 881 642 919 q 794 917 769 888 q 819 978 819 946 q 808 1031 819 1004 l 972 1081 m 314 972 q 392 1119 342 1071 q 493 1167 442 1167 q 547 1157 525 1167 q 585 1136 568 1147 q 619 1115 603 1125 q 656 1106 635 1106 q 684 1119 671 1106 q 711 1164 697 1132 l 825 1164 q 747 1017 797 1065 q 646 969 697 969 q 592 979 614 969 q 553 1000 571 989 q 520 1021 536 1011 q 483 1031 504 1031 q 455 1017 468 1031 q 428 972 442 1004 l 314 972 z "},"Ợ":{"ha":931,"x_min":78,"x_max":992,"o":"m 439 175 q 518 200 478 175 q 592 271 558 225 q 646 381 625 317 q 667 522 667 444 q 631 674 667 621 q 533 728 596 728 q 454 703 494 728 q 381 632 414 678 q 326 522 347 586 q 306 381 306 458 q 341 228 306 282 q 439 175 376 175 m 972 1081 q 992 989 992 1038 q 944 872 992 921 q 810 806 897 824 q 872 690 850 757 q 894 536 894 622 q 855 308 894 410 q 751 133 815 206 q 601 22 686 61 q 428 -17 517 -17 q 285 9 350 -17 q 175 83 221 35 q 103 203 129 132 q 78 367 78 275 q 117 595 78 493 q 222 769 157 697 q 370 881 286 842 q 544 919 454 919 q 717 881 642 919 q 794 917 769 888 q 819 978 819 946 q 808 1031 819 1004 l 972 1081 m 361 -317 q 318 -310 339 -317 q 281 -292 297 -304 q 254 -260 264 -279 q 244 -214 244 -240 q 255 -166 244 -189 q 283 -126 265 -143 q 326 -99 301 -110 q 378 -89 350 -89 q 421 -96 400 -89 q 458 -115 442 -103 q 485 -147 475 -128 q 494 -192 494 -167 q 456 -281 494 -246 q 361 -317 418 -317 z "},"Ǫ":{"ha":931,"x_min":78,"x_max":894,"o":"m 533 728 q 454 703 494 728 q 381 632 414 678 q 326 522 347 586 q 306 381 306 458 q 341 228 306 282 q 439 175 376 175 q 518 200 478 175 q 592 271 558 225 q 646 381 625 317 q 667 522 667 444 q 631 674 667 621 q 533 728 596 728 m 894 536 q 803 206 894 340 q 533 -6 711 72 q 441 -68 468 -35 q 414 -131 414 -101 q 428 -162 414 -151 q 461 -172 442 -172 q 494 -161 476 -172 l 536 -267 q 460 -301 504 -287 q 378 -314 415 -314 q 279 -285 317 -314 q 242 -203 242 -256 q 253 -142 242 -171 q 283 -88 265 -112 q 322 -44 301 -64 q 361 -11 343 -25 q 154 108 231 13 q 78 367 78 203 q 117 595 78 493 q 222 769 157 697 q 370 881 286 842 q 544 919 454 919 q 687 894 622 919 q 797 819 751 868 q 869 699 843 771 q 894 536 894 628 z "},"Ŕ":{"ha":850,"x_min":36,"x_max":833,"o":"m 356 486 l 436 486 q 570 526 526 486 q 614 631 614 565 q 580 704 614 681 q 483 728 546 728 l 403 728 l 356 486 m 514 903 q 640 890 582 903 q 742 849 699 878 q 809 775 785 821 q 833 664 833 729 q 817 551 833 601 q 772 460 801 500 q 703 392 743 421 q 615 346 663 364 l 750 0 l 517 0 l 413 311 l 319 311 l 258 0 l 36 0 l 217 903 l 514 903 m 558 1142 l 797 1142 l 600 972 l 419 972 l 558 1142 z "},"Ř":{"ha":850,"x_min":36,"x_max":833,"o":"m 356 486 l 436 486 q 570 526 526 486 q 614 631 614 565 q 580 704 614 681 q 483 728 546 728 l 403 728 l 356 486 m 514 903 q 640 890 582 903 q 742 849 699 878 q 809 775 785 821 q 833 664 833 729 q 817 551 833 601 q 772 460 801 500 q 703 392 743 421 q 615 346 663 364 l 750 0 l 517 0 l 413 311 l 319 311 l 258 0 l 36 0 l 217 903 l 514 903 m 642 972 l 425 972 l 331 1142 l 492 1142 l 544 1058 l 547 1058 l 628 1142 l 803 1142 l 642 972 z "},"Ŗ":{"ha":850,"x_min":36,"x_max":833,"o":"m 356 486 l 436 486 q 570 526 526 486 q 614 631 614 565 q 580 704 614 681 q 483 728 546 728 l 403 728 l 356 486 m 514 903 q 640 890 582 903 q 742 849 699 878 q 809 775 785 821 q 833 664 833 729 q 817 551 833 601 q 772 460 801 500 q 703 392 743 421 q 615 346 663 364 l 750 0 l 517 0 l 413 311 l 319 311 l 258 0 l 36 0 l 217 903 l 514 903 m 350 -61 q 459 -98 421 -72 q 497 -172 497 -124 q 476 -245 497 -217 q 417 -290 454 -274 q 332 -314 381 -307 q 228 -322 283 -321 l 222 -236 q 315 -220 288 -232 q 342 -181 342 -208 q 294 -136 342 -153 l 350 -61 z "},"Ṛ":{"ha":850,"x_min":36,"x_max":833,"o":"m 356 486 l 436 486 q 570 526 526 486 q 614 631 614 565 q 580 704 614 681 q 483 728 546 728 l 403 728 l 356 486 m 514 903 q 640 890 582 903 q 742 849 699 878 q 809 775 785 821 q 833 664 833 729 q 817 551 833 601 q 772 460 801 500 q 703 392 743 421 q 615 346 663 364 l 750 0 l 517 0 l 413 311 l 319 311 l 258 0 l 36 0 l 217 903 l 514 903 m 356 -328 q 313 -322 333 -328 q 275 -303 292 -315 q 249 -271 258 -290 q 239 -225 239 -251 q 249 -177 239 -200 q 278 -137 260 -154 q 320 -110 296 -121 q 372 -100 344 -100 q 415 -107 394 -100 q 453 -126 436 -114 q 479 -158 469 -139 q 489 -203 489 -178 q 451 -292 489 -257 q 356 -328 413 -328 z "},"Ṝ":{"ha":850,"x_min":36,"x_max":833,"o":"m 356 486 l 436 486 q 570 526 526 486 q 614 631 614 565 q 580 704 614 681 q 483 728 546 728 l 403 728 l 356 486 m 514 903 q 640 890 582 903 q 742 849 699 878 q 809 775 785 821 q 833 664 833 729 q 817 551 833 601 q 772 460 801 500 q 703 392 743 421 q 615 346 663 364 l 750 0 l 517 0 l 413 311 l 319 311 l 258 0 l 36 0 l 217 903 l 514 903 m 372 1136 l 761 1136 l 733 994 l 344 994 l 372 1136 m 356 -328 q 313 -322 333 -328 q 275 -303 292 -315 q 249 -271 258 -290 q 239 -225 239 -251 q 249 -177 239 -200 q 278 -137 260 -154 q 320 -110 296 -121 q 372 -100 344 -100 q 415 -107 394 -100 q 453 -126 436 -114 q 479 -158 469 -139 q 489 -203 489 -178 q 451 -292 489 -257 q 356 -328 413 -328 z "},"Ṟ":{"ha":850,"x_min":36,"x_max":833,"o":"m 356 486 l 436 486 q 570 526 526 486 q 614 631 614 565 q 580 704 614 681 q 483 728 546 728 l 403 728 l 356 486 m 514 903 q 640 890 582 903 q 742 849 699 878 q 809 775 785 821 q 833 664 833 729 q 817 551 833 601 q 772 460 801 500 q 703 392 743 421 q 615 346 663 364 l 750 0 l 517 0 l 413 311 l 319 311 l 258 0 l 36 0 l 217 903 l 514 903 m 189 -125 l 569 -125 l 542 -264 l 161 -264 l 189 -125 z "},"Ś":{"ha":747,"x_min":3,"x_max":764,"o":"m 161 282 q 247 203 197 233 q 350 172 297 172 q 427 193 399 172 q 456 251 456 214 q 428 301 456 282 q 353 349 400 319 l 275 397 q 177 490 213 438 q 142 628 142 543 q 168 742 142 689 q 239 834 194 794 q 344 897 283 874 q 474 919 404 919 q 626 883 553 919 q 754 779 699 846 l 615 649 q 545 706 581 683 q 465 728 510 728 q 393 705 417 728 q 369 650 369 682 q 398 603 369 622 q 481 550 426 585 l 564 499 q 658 410 629 458 q 686 283 686 363 q 661 167 686 221 q 590 72 636 113 q 479 7 544 31 q 333 -17 414 -17 q 160 23 247 -17 q 3 157 74 63 l 161 282 m 525 1153 l 764 1153 l 567 983 l 386 983 l 525 1153 z "},"Ŝ":{"ha":747,"x_min":3,"x_max":754,"o":"m 161 282 q 247 203 197 233 q 350 172 297 172 q 427 193 399 172 q 456 251 456 214 q 428 301 456 282 q 353 349 400 319 l 275 397 q 177 490 213 438 q 142 628 142 543 q 168 742 142 689 q 239 834 194 794 q 344 897 283 874 q 474 919 404 919 q 626 883 553 919 q 754 779 699 846 l 615 649 q 545 706 581 683 q 465 728 510 728 q 393 705 417 728 q 369 650 369 682 q 398 603 369 622 q 481 550 426 585 l 564 499 q 658 410 629 458 q 686 283 686 363 q 661 167 686 221 q 590 72 636 113 q 479 7 544 31 q 333 -17 414 -17 q 160 23 247 -17 q 3 157 74 63 l 161 282 m 425 1153 l 642 1153 l 736 983 l 575 983 l 522 1067 l 519 1067 l 439 983 l 264 983 l 425 1153 z "},"Š":{"ha":747,"x_min":3,"x_max":769,"o":"m 161 282 q 247 203 197 233 q 350 172 297 172 q 427 193 399 172 q 456 251 456 214 q 428 301 456 282 q 353 349 400 319 l 275 397 q 177 490 213 438 q 142 628 142 543 q 168 742 142 689 q 239 834 194 794 q 344 897 283 874 q 474 919 404 919 q 626 883 553 919 q 754 779 699 846 l 615 649 q 545 706 581 683 q 465 728 510 728 q 393 705 417 728 q 369 650 369 682 q 398 603 369 622 q 481 550 426 585 l 564 499 q 658 410 629 458 q 686 283 686 363 q 661 167 686 221 q 590 72 636 113 q 479 7 544 31 q 333 -17 414 -17 q 160 23 247 -17 q 3 157 74 63 l 161 282 m 608 983 l 392 983 l 297 1153 l 458 1153 l 511 1069 l 514 1069 l 594 1153 l 769 1153 l 608 983 z "},"Ş":{"ha":747,"x_min":3,"x_max":754,"o":"m 161 282 q 247 203 197 233 q 350 172 297 172 q 427 193 399 172 q 456 251 456 214 q 428 301 456 282 q 353 349 400 319 l 275 397 q 177 490 213 438 q 142 628 142 543 q 168 742 142 689 q 239 834 194 794 q 344 897 283 874 q 474 919 404 919 q 626 883 553 919 q 754 779 699 846 l 615 649 q 545 706 581 683 q 465 728 510 728 q 393 705 417 728 q 369 650 369 682 q 398 603 369 622 q 481 550 426 585 l 564 499 q 658 410 629 458 q 686 283 686 363 q 661 167 686 221 q 590 72 636 113 q 479 7 544 31 q 333 -17 414 -17 q 160 23 247 -17 q 3 157 74 63 l 161 282 m 292 6 l 419 6 l 381 -58 q 425 -89 408 -69 q 442 -142 442 -108 q 419 -215 442 -185 q 357 -266 396 -246 q 267 -297 318 -286 q 161 -308 217 -307 l 156 -222 q 242 -203 206 -218 q 278 -158 278 -187 q 266 -130 278 -143 q 217 -106 254 -117 l 292 6 z "},"Ș":{"ha":747,"x_min":3,"x_max":754,"o":"m 161 282 q 247 203 197 233 q 350 172 297 172 q 427 193 399 172 q 456 251 456 214 q 428 301 456 282 q 353 349 400 319 l 275 397 q 177 490 213 438 q 142 628 142 543 q 168 742 142 689 q 239 834 194 794 q 344 897 283 874 q 474 919 404 919 q 626 883 553 919 q 754 779 699 846 l 615 649 q 545 706 581 683 q 465 728 510 728 q 393 705 417 728 q 369 650 369 682 q 398 603 369 622 q 481 550 426 585 l 564 499 q 658 410 629 458 q 686 283 686 363 q 661 167 686 221 q 590 72 636 113 q 479 7 544 31 q 333 -17 414 -17 q 160 23 247 -17 q 3 157 74 63 l 161 282 m 289 -61 q 398 -98 360 -72 q 436 -172 436 -124 q 415 -245 436 -217 q 356 -290 393 -274 q 271 -314 319 -307 q 167 -322 222 -321 l 161 -236 q 253 -220 226 -232 q 281 -181 281 -208 q 233 -136 281 -153 l 289 -61 z "},"Ṡ":{"ha":747,"x_min":3,"x_max":754,"o":"m 161 282 q 247 203 197 233 q 350 172 297 172 q 427 193 399 172 q 456 251 456 214 q 428 301 456 282 q 353 349 400 319 l 275 397 q 177 490 213 438 q 142 628 142 543 q 168 742 142 689 q 239 834 194 794 q 344 897 283 874 q 474 919 404 919 q 626 883 553 919 q 754 779 699 846 l 615 649 q 545 706 581 683 q 465 728 510 728 q 393 705 417 728 q 369 650 369 682 q 398 603 369 622 q 481 550 426 585 l 564 499 q 658 410 629 458 q 686 283 686 363 q 661 167 686 221 q 590 72 636 113 q 479 7 544 31 q 333 -17 414 -17 q 160 23 247 -17 q 3 157 74 63 l 161 282 m 514 981 q 471 987 492 981 q 433 1006 450 993 q 407 1038 417 1018 q 397 1083 397 1057 q 408 1131 397 1108 q 436 1171 418 1154 q 478 1198 454 1188 q 531 1208 503 1208 q 574 1201 553 1208 q 611 1182 594 1194 q 638 1150 628 1169 q 647 1106 647 1131 q 609 1016 647 1051 q 514 981 571 981 z "},"Ṣ":{"ha":747,"x_min":3,"x_max":754,"o":"m 161 282 q 247 203 197 233 q 350 172 297 172 q 427 193 399 172 q 456 251 456 214 q 428 301 456 282 q 353 349 400 319 l 275 397 q 177 490 213 438 q 142 628 142 543 q 168 742 142 689 q 239 834 194 794 q 344 897 283 874 q 474 919 404 919 q 626 883 553 919 q 754 779 699 846 l 615 649 q 545 706 581 683 q 465 728 510 728 q 393 705 417 728 q 369 650 369 682 q 398 603 369 622 q 481 550 426 585 l 564 499 q 658 410 629 458 q 686 283 686 363 q 661 167 686 221 q 590 72 636 113 q 479 7 544 31 q 333 -17 414 -17 q 160 23 247 -17 q 3 157 74 63 l 161 282 m 294 -328 q 251 -322 272 -328 q 214 -303 231 -315 q 188 -271 197 -290 q 178 -225 178 -251 q 188 -177 178 -200 q 217 -137 199 -154 q 259 -110 235 -121 q 311 -100 283 -100 q 354 -107 333 -100 q 392 -126 375 -114 q 418 -158 408 -139 q 428 -203 428 -178 q 390 -292 428 -257 q 294 -328 351 -328 z "},"ẞ":{"ha":953,"x_min":36,"x_max":897,"o":"m 156 594 q 199 726 169 664 q 278 833 229 788 q 396 906 326 879 q 558 933 465 933 q 683 916 624 933 q 790 863 743 899 q 865 772 836 828 q 897 642 893 717 l 728 489 q 792 449 763 471 q 845 399 822 426 q 881 338 868 371 q 894 263 894 304 q 873 152 894 203 q 813 64 851 101 q 719 5 774 26 q 599 -17 664 -17 q 464 7 529 -17 q 346 83 399 31 l 469 222 q 516 181 488 201 q 581 161 544 161 q 640 185 614 161 q 667 251 667 210 q 626 322 667 286 q 503 381 586 357 l 514 508 l 681 667 q 629 733 665 711 q 544 756 593 756 q 432 701 478 756 q 367 553 386 647 l 258 0 l 36 0 l 156 594 z "},"Ť":{"ha":750,"x_min":111,"x_max":825,"o":"m 339 717 l 111 717 l 147 903 l 825 903 l 789 717 l 561 717 l 419 0 l 197 0 l 339 717 m 594 972 l 378 972 l 283 1142 l 444 1142 l 497 1058 l 500 1058 l 581 1142 l 756 1142 l 594 972 z "},"Ţ":{"ha":750,"x_min":111,"x_max":825,"o":"m 339 717 l 111 717 l 147 903 l 825 903 l 789 717 l 561 717 l 419 0 l 197 0 l 339 717 m 256 6 l 383 6 l 344 -58 q 389 -89 372 -69 q 406 -142 406 -108 q 383 -215 406 -185 q 321 -266 360 -246 q 231 -297 282 -286 q 125 -308 181 -307 l 119 -222 q 206 -203 169 -218 q 242 -158 242 -187 q 230 -130 242 -143 q 181 -106 218 -117 l 256 6 z "},"Ț":{"ha":750,"x_min":111,"x_max":825,"o":"m 339 717 l 111 717 l 147 903 l 825 903 l 789 717 l 561 717 l 419 0 l 197 0 l 339 717 m 250 -50 q 359 -87 321 -61 q 397 -161 397 -112 q 376 -234 397 -206 q 317 -279 354 -262 q 232 -303 281 -296 q 128 -311 183 -310 l 122 -225 q 215 -209 188 -221 q 242 -169 242 -197 q 194 -125 242 -142 l 250 -50 z "},"Ṭ":{"ha":750,"x_min":111,"x_max":825,"o":"m 339 717 l 111 717 l 147 903 l 825 903 l 789 717 l 561 717 l 419 0 l 197 0 l 339 717 m 256 -317 q 213 -310 233 -317 q 175 -292 192 -304 q 149 -260 158 -279 q 139 -214 139 -240 q 149 -166 139 -189 q 178 -126 160 -143 q 220 -99 196 -110 q 272 -89 244 -89 q 315 -96 294 -89 q 353 -115 336 -103 q 379 -147 369 -128 q 389 -192 389 -167 q 351 -281 389 -246 q 256 -317 313 -317 z "},"Ṯ":{"ha":750,"x_min":61,"x_max":825,"o":"m 339 717 l 111 717 l 147 903 l 825 903 l 789 717 l 561 717 l 419 0 l 197 0 l 339 717 m 89 -114 l 469 -114 l 442 -253 l 61 -253 l 89 -114 z "},"Ù":{"ha":908,"x_min":103,"x_max":919,"o":"m 211 903 l 433 903 l 336 417 q 328 364 332 389 q 325 314 325 339 q 350 210 325 244 q 444 175 375 175 q 540 225 504 175 q 600 392 576 275 l 703 903 l 919 903 l 817 397 q 685 83 775 183 q 439 -17 594 -17 q 186 62 269 -17 q 103 308 103 140 q 109 383 103 340 q 122 461 115 425 l 211 903 m 378 1142 l 603 1142 l 675 972 l 508 972 l 378 1142 z "},"Ú":{"ha":908,"x_min":103,"x_max":919,"o":"m 211 903 l 433 903 l 336 417 q 328 364 332 389 q 325 314 325 339 q 350 210 325 244 q 444 175 375 175 q 540 225 504 175 q 600 392 576 275 l 703 903 l 919 903 l 817 397 q 685 83 775 183 q 439 -17 594 -17 q 186 62 269 -17 q 103 308 103 140 q 109 383 103 340 q 122 461 115 425 l 211 903 m 597 1142 l 836 1142 l 639 972 l 458 972 l 597 1142 z "},"Û":{"ha":908,"x_min":103,"x_max":919,"o":"m 211 903 l 433 903 l 336 417 q 328 364 332 389 q 325 314 325 339 q 350 210 325 244 q 444 175 375 175 q 540 225 504 175 q 600 392 576 275 l 703 903 l 919 903 l 817 397 q 685 83 775 183 q 439 -17 594 -17 q 186 62 269 -17 q 103 308 103 140 q 109 383 103 340 q 122 461 115 425 l 211 903 m 497 1142 l 714 1142 l 808 972 l 647 972 l 594 1056 l 592 1056 l 511 972 l 336 972 l 497 1142 z "},"Ũ":{"ha":908,"x_min":103,"x_max":919,"o":"m 211 903 l 433 903 l 336 417 q 328 364 332 389 q 325 314 325 339 q 350 210 325 244 q 444 175 375 175 q 540 225 504 175 q 600 392 576 275 l 703 903 l 919 903 l 817 397 q 685 83 775 183 q 439 -17 594 -17 q 186 62 269 -17 q 103 308 103 140 q 109 383 103 340 q 122 461 115 425 l 211 903 m 336 972 q 414 1119 364 1071 q 515 1167 464 1167 q 569 1157 547 1167 q 608 1136 590 1147 q 641 1115 625 1125 q 678 1106 657 1106 q 706 1119 693 1106 q 733 1164 719 1132 l 847 1164 q 769 1017 819 1065 q 668 969 719 969 q 615 979 636 969 q 576 1000 593 989 q 542 1021 558 1011 q 506 1031 526 1031 q 477 1017 490 1031 q 450 972 464 1004 l 336 972 z "},"Ü":{"ha":908,"x_min":103,"x_max":919,"o":"m 211 903 l 433 903 l 336 417 q 328 364 332 389 q 325 314 325 339 q 350 210 325 244 q 444 175 375 175 q 540 225 504 175 q 600 392 576 275 l 703 903 l 919 903 l 817 397 q 685 83 775 183 q 439 -17 594 -17 q 186 62 269 -17 q 103 308 103 140 q 109 383 103 340 q 122 461 115 425 l 211 903 m 442 967 q 378 990 404 967 q 353 1056 353 1014 q 361 1097 353 1076 q 385 1135 369 1118 q 421 1162 400 1151 q 467 1172 442 1172 q 529 1149 503 1172 q 556 1083 556 1125 q 547 1042 556 1063 q 524 1004 539 1021 q 488 977 508 988 q 442 967 467 967 m 719 967 q 656 990 682 967 q 631 1056 631 1014 q 639 1097 631 1076 q 663 1135 647 1118 q 699 1162 678 1151 q 744 1172 719 1172 q 807 1149 781 1172 q 833 1083 833 1125 q 825 1042 833 1063 q 801 1004 817 1021 q 765 977 786 988 q 719 967 744 967 z "},"Ū":{"ha":908,"x_min":103,"x_max":919,"o":"m 211 903 l 433 903 l 336 417 q 328 364 332 389 q 325 314 325 339 q 350 210 325 244 q 444 175 375 175 q 540 225 504 175 q 600 392 576 275 l 703 903 l 919 903 l 817 397 q 685 83 775 183 q 439 -17 594 -17 q 186 62 269 -17 q 103 308 103 140 q 109 383 103 340 q 122 461 115 425 l 211 903 m 411 1136 l 800 1136 l 772 994 l 383 994 l 411 1136 z "},"Ŭ":{"ha":908,"x_min":103,"x_max":919,"o":"m 211 903 l 433 903 l 336 417 q 328 364 332 389 q 325 314 325 339 q 350 210 325 244 q 444 175 375 175 q 540 225 504 175 q 600 392 576 275 l 703 903 l 919 903 l 817 397 q 685 83 775 183 q 439 -17 594 -17 q 186 62 269 -17 q 103 308 103 140 q 109 383 103 340 q 122 461 115 425 l 211 903 m 572 972 q 451 1017 490 972 q 419 1142 411 1063 l 536 1142 q 593 1081 532 1081 q 644 1097 625 1081 q 675 1142 664 1114 l 794 1142 q 718 1017 769 1063 q 572 972 667 972 z "},"Ů":{"ha":908,"x_min":103,"x_max":919,"o":"m 211 903 l 433 903 l 336 417 q 328 364 332 389 q 325 314 325 339 q 350 210 325 244 q 444 175 375 175 q 540 225 504 175 q 600 392 576 275 l 703 903 l 919 903 l 817 397 q 685 83 775 183 q 439 -17 594 -17 q 186 62 269 -17 q 103 308 103 140 q 109 383 103 340 q 122 461 115 425 l 211 903 m 592 967 q 534 974 561 967 q 486 995 507 981 q 453 1033 465 1010 q 442 1089 442 1057 q 455 1150 442 1121 q 491 1201 468 1179 q 544 1235 514 1222 q 608 1247 574 1247 q 665 1240 638 1247 q 713 1217 692 1232 q 746 1179 733 1203 q 758 1125 758 1156 q 745 1063 758 1092 q 709 1013 732 1033 q 656 979 686 992 q 592 967 626 967 m 606 1164 q 564 1143 581 1164 q 547 1097 547 1122 q 559 1064 547 1078 q 594 1050 571 1050 q 635 1069 618 1050 q 653 1117 653 1089 q 641 1150 653 1136 q 606 1164 629 1164 z "},"Ű":{"ha":908,"x_min":103,"x_max":931,"o":"m 211 903 l 433 903 l 336 417 q 328 364 332 389 q 325 314 325 339 q 350 210 325 244 q 444 175 375 175 q 540 225 504 175 q 600 392 576 275 l 703 903 l 919 903 l 817 397 q 685 83 775 183 q 439 -17 594 -17 q 186 62 269 -17 q 103 308 103 140 q 109 383 103 340 q 122 461 115 425 l 211 903 m 497 1142 l 683 1142 l 528 972 l 381 972 l 497 1142 m 744 1142 l 931 1142 l 775 972 l 628 972 l 744 1142 z "},"Ǔ":{"ha":908,"x_min":103,"x_max":919,"o":"m 211 903 l 433 903 l 336 417 q 328 364 332 389 q 325 314 325 339 q 350 210 325 244 q 444 175 375 175 q 540 225 504 175 q 600 392 576 275 l 703 903 l 919 903 l 817 397 q 685 83 775 183 q 439 -17 594 -17 q 186 62 269 -17 q 103 308 103 140 q 109 383 103 340 q 122 461 115 425 l 211 903 m 681 972 l 464 972 l 369 1142 l 531 1142 l 583 1058 l 586 1058 l 667 1142 l 842 1142 l 681 972 z "},"Ǖ":{"ha":908,"x_min":103,"x_max":919,"o":"m 211 903 l 433 903 l 336 417 q 328 364 332 389 q 325 314 325 339 q 350 210 325 244 q 444 175 375 175 q 540 225 504 175 q 600 392 576 275 l 703 903 l 919 903 l 817 397 q 685 83 775 183 q 439 -17 594 -17 q 186 62 269 -17 q 103 308 103 140 q 109 383 103 340 q 122 461 115 425 l 211 903 m 453 967 q 397 988 419 967 q 375 1044 375 1008 q 383 1081 375 1063 q 403 1115 390 1100 q 435 1138 417 1129 q 475 1147 453 1147 q 531 1126 508 1147 q 553 1069 553 1106 q 545 1032 553 1050 q 524 999 538 1014 q 493 976 511 985 q 453 967 475 967 m 722 967 q 667 988 689 967 q 644 1044 644 1008 q 652 1081 644 1063 q 673 1115 660 1100 q 704 1138 686 1129 q 744 1147 722 1147 q 800 1126 778 1147 q 822 1069 822 1106 q 815 1032 822 1050 q 794 999 807 1014 q 763 976 781 985 q 722 967 744 967 m 453 1314 l 844 1314 l 822 1211 l 433 1211 l 453 1314 z "},"Ǘ":{"ha":908,"x_min":103,"x_max":919,"o":"m 211 903 l 433 903 l 336 417 q 328 364 332 389 q 325 314 325 339 q 350 210 325 244 q 444 175 375 175 q 540 225 504 175 q 600 392 576 275 l 703 903 l 919 903 l 817 397 q 685 83 775 183 q 439 -17 594 -17 q 186 62 269 -17 q 103 308 103 140 q 109 383 103 340 q 122 461 115 425 l 211 903 m 653 1358 l 886 1358 l 689 1189 l 514 1189 l 653 1358 m 453 967 q 397 988 419 967 q 375 1044 375 1008 q 383 1081 375 1063 q 403 1115 390 1100 q 435 1138 417 1129 q 475 1147 453 1147 q 531 1126 508 1147 q 553 1069 553 1106 q 545 1032 553 1050 q 524 999 538 1014 q 493 976 511 985 q 453 967 475 967 m 722 967 q 667 988 689 967 q 644 1044 644 1008 q 652 1081 644 1063 q 673 1115 660 1100 q 704 1138 686 1129 q 744 1147 722 1147 q 800 1126 778 1147 q 822 1069 822 1106 q 815 1032 822 1050 q 794 999 807 1014 q 763 976 781 985 q 722 967 744 967 z "},"Ǚ":{"ha":908,"x_min":103,"x_max":919,"o":"m 211 903 l 433 903 l 336 417 q 328 364 332 389 q 325 314 325 339 q 350 210 325 244 q 444 175 375 175 q 540 225 504 175 q 600 392 576 275 l 703 903 l 919 903 l 817 397 q 685 83 775 183 q 439 -17 594 -17 q 186 62 269 -17 q 103 308 103 140 q 109 383 103 340 q 122 461 115 425 l 211 903 m 453 967 q 397 988 419 967 q 375 1044 375 1008 q 383 1081 375 1063 q 403 1115 390 1100 q 435 1138 417 1129 q 475 1147 453 1147 q 531 1126 508 1147 q 553 1069 553 1106 q 545 1032 553 1050 q 524 999 538 1014 q 493 976 511 985 q 453 967 475 967 m 722 967 q 667 988 689 967 q 644 1044 644 1008 q 652 1081 644 1063 q 673 1115 660 1100 q 704 1138 686 1129 q 744 1147 722 1147 q 800 1126 778 1147 q 822 1069 822 1106 q 815 1032 822 1050 q 794 999 807 1014 q 763 976 781 985 q 722 967 744 967 m 419 1358 l 589 1358 l 639 1275 l 642 1275 l 725 1358 l 892 1358 l 731 1189 l 514 1189 l 419 1358 z "},"Ǜ":{"ha":908,"x_min":103,"x_max":919,"o":"m 211 903 l 433 903 l 336 417 q 328 364 332 389 q 325 314 325 339 q 350 210 325 244 q 444 175 375 175 q 540 225 504 175 q 600 392 576 275 l 703 903 l 919 903 l 817 397 q 685 83 775 183 q 439 -17 594 -17 q 186 62 269 -17 q 103 308 103 140 q 109 383 103 340 q 122 461 115 425 l 211 903 m 428 1358 l 661 1358 l 733 1189 l 556 1189 l 428 1358 m 453 967 q 397 988 419 967 q 375 1044 375 1008 q 383 1081 375 1063 q 403 1115 390 1100 q 435 1138 417 1129 q 475 1147 453 1147 q 531 1126 508 1147 q 553 1069 553 1106 q 545 1032 553 1050 q 524 999 538 1014 q 493 976 511 985 q 453 967 475 967 m 722 967 q 667 988 689 967 q 644 1044 644 1008 q 652 1081 644 1063 q 673 1115 660 1100 q 704 1138 686 1129 q 744 1147 722 1147 q 800 1126 778 1147 q 822 1069 822 1106 q 815 1032 822 1050 q 794 999 807 1014 q 763 976 781 985 q 722 967 744 967 z "},"Ụ":{"ha":908,"x_min":103,"x_max":919,"o":"m 211 903 l 433 903 l 336 417 q 328 364 332 389 q 325 314 325 339 q 350 210 325 244 q 444 175 375 175 q 540 225 504 175 q 600 392 576 275 l 703 903 l 919 903 l 817 397 q 685 83 775 183 q 439 -17 594 -17 q 186 62 269 -17 q 103 308 103 140 q 109 383 103 340 q 122 461 115 425 l 211 903 m 353 -317 q 310 -310 331 -317 q 272 -292 289 -304 q 246 -260 256 -279 q 236 -214 236 -240 q 247 -166 236 -189 q 275 -126 257 -143 q 317 -99 293 -110 q 369 -89 342 -89 q 413 -96 392 -89 q 450 -115 433 -103 q 476 -147 467 -128 q 486 -192 486 -167 q 448 -281 486 -246 q 353 -317 410 -317 z "},"Ủ":{"ha":908,"x_min":103,"x_max":919,"o":"m 211 903 l 433 903 l 336 417 q 328 364 332 389 q 325 314 325 339 q 350 210 325 244 q 444 175 375 175 q 540 225 504 175 q 600 392 576 275 l 703 903 l 919 903 l 817 397 q 685 83 775 183 q 439 -17 594 -17 q 186 62 269 -17 q 103 308 103 140 q 109 383 103 340 q 122 461 115 425 l 211 903 m 536 1233 q 702 1199 654 1229 q 750 1122 750 1168 q 732 1052 750 1082 q 683 1002 714 1022 q 612 971 653 982 q 525 956 571 960 l 519 1042 q 565 1054 547 1046 q 583 1083 583 1063 q 563 1110 583 1100 q 489 1122 542 1119 l 536 1233 z "},"Ų":{"ha":908,"x_min":103,"x_max":919,"o":"m 817 397 q 775 238 800 304 q 715 125 750 172 q 633 46 679 78 q 525 -8 586 14 q 424 -67 454 -33 q 394 -131 394 -101 q 408 -162 394 -151 q 442 -172 422 -172 q 475 -161 457 -172 l 517 -267 q 440 -301 485 -287 q 358 -314 396 -314 q 260 -285 297 -314 q 222 -203 222 -256 q 235 -142 222 -172 q 266 -87 247 -112 q 306 -41 285 -61 q 344 -8 326 -21 q 164 90 225 13 q 103 308 103 168 q 109 383 103 340 q 122 461 115 425 l 211 903 l 433 903 l 336 417 q 328 364 332 389 q 325 314 325 339 q 350 210 325 244 q 444 175 375 175 q 540 225 504 175 q 600 392 576 275 l 703 903 l 919 903 l 817 397 z "},"Ư":{"ha":944,"x_min":103,"x_max":1108,"o":"m 1089 1103 q 1108 1011 1108 1060 q 1061 894 1108 946 q 903 819 1014 843 l 817 397 q 685 83 775 183 q 439 -17 594 -17 q 186 62 269 -17 q 103 308 103 140 q 109 383 103 340 q 122 461 115 425 l 211 903 l 433 903 l 336 417 q 328 364 332 389 q 325 314 325 339 q 350 210 325 244 q 444 175 375 175 q 540 225 504 175 q 600 392 576 275 l 703 903 l 833 903 q 910 938 883 910 q 936 1000 936 967 q 925 1053 936 1026 l 1089 1103 z "},"Ứ":{"ha":944,"x_min":103,"x_max":1108,"o":"m 1089 1103 q 1108 1011 1108 1060 q 1061 894 1108 946 q 903 819 1014 843 l 817 397 q 685 83 775 183 q 439 -17 594 -17 q 186 62 269 -17 q 103 308 103 140 q 109 383 103 340 q 122 461 115 425 l 211 903 l 433 903 l 336 417 q 328 364 332 389 q 325 314 325 339 q 350 210 325 244 q 444 175 375 175 q 540 225 504 175 q 600 392 576 275 l 703 903 l 833 903 q 910 938 883 910 q 936 1000 936 967 q 925 1053 936 1026 l 1089 1103 m 590 1142 l 829 1142 l 632 972 l 451 972 l 590 1142 z "},"Ừ":{"ha":944,"x_min":103,"x_max":1108,"o":"m 1089 1103 q 1108 1011 1108 1060 q 1061 894 1108 946 q 903 819 1014 843 l 817 397 q 685 83 775 183 q 439 -17 594 -17 q 186 62 269 -17 q 103 308 103 140 q 109 383 103 340 q 122 461 115 425 l 211 903 l 433 903 l 336 417 q 328 364 332 389 q 325 314 325 339 q 350 210 325 244 q 444 175 375 175 q 540 225 504 175 q 600 392 576 275 l 703 903 l 833 903 q 910 938 883 910 q 936 1000 936 967 q 925 1053 936 1026 l 1089 1103 m 371 1142 l 596 1142 l 668 972 l 501 972 l 371 1142 z "},"Ử":{"ha":944,"x_min":103,"x_max":1108,"o":"m 1089 1103 q 1108 1011 1108 1060 q 1061 894 1108 946 q 903 819 1014 843 l 817 397 q 685 83 775 183 q 439 -17 594 -17 q 186 62 269 -17 q 103 308 103 140 q 109 383 103 340 q 122 461 115 425 l 211 903 l 433 903 l 336 417 q 328 364 332 389 q 325 314 325 339 q 350 210 325 244 q 444 175 375 175 q 540 225 504 175 q 600 392 576 275 l 703 903 l 833 903 q 910 938 883 910 q 936 1000 936 967 q 925 1053 936 1026 l 1089 1103 m 529 1233 q 695 1199 647 1229 q 743 1122 743 1168 q 725 1052 743 1082 q 676 1002 707 1022 q 605 971 646 982 q 518 956 564 960 l 513 1042 q 558 1054 540 1046 q 576 1083 576 1063 q 556 1110 576 1100 q 482 1122 535 1119 l 529 1233 z "},"Ữ":{"ha":944,"x_min":103,"x_max":1108,"o":"m 1089 1103 q 1108 1011 1108 1060 q 1061 894 1108 946 q 903 819 1014 843 l 817 397 q 685 83 775 183 q 439 -17 594 -17 q 186 62 269 -17 q 103 308 103 140 q 109 383 103 340 q 122 461 115 425 l 211 903 l 433 903 l 336 417 q 328 364 332 389 q 325 314 325 339 q 350 210 325 244 q 444 175 375 175 q 540 225 504 175 q 600 392 576 275 l 703 903 l 833 903 q 910 938 883 910 q 936 1000 936 967 q 925 1053 936 1026 l 1089 1103 m 329 972 q 407 1119 357 1071 q 508 1167 457 1167 q 562 1157 540 1167 q 601 1136 583 1147 q 634 1115 618 1125 q 671 1106 650 1106 q 699 1119 686 1106 q 726 1164 713 1132 l 840 1164 q 763 1017 813 1065 q 661 969 713 969 q 608 979 629 969 q 569 1000 586 989 q 535 1021 551 1011 q 499 1031 519 1031 q 470 1017 483 1031 q 443 972 457 1004 l 329 972 z "},"Ự":{"ha":944,"x_min":103,"x_max":1108,"o":"m 1089 1103 q 1108 1011 1108 1060 q 1061 894 1108 946 q 903 819 1014 843 l 817 397 q 685 83 775 183 q 439 -17 594 -17 q 186 62 269 -17 q 103 308 103 140 q 109 383 103 340 q 122 461 115 425 l 211 903 l 433 903 l 336 417 q 328 364 332 389 q 325 314 325 339 q 350 210 325 244 q 444 175 375 175 q 540 225 504 175 q 600 392 576 275 l 703 903 l 833 903 q 910 938 883 910 q 936 1000 936 967 q 925 1053 936 1026 l 1089 1103 m 354 -317 q 311 -310 332 -317 q 274 -292 290 -304 q 247 -260 257 -279 q 238 -214 238 -240 q 248 -166 238 -189 q 276 -126 258 -143 q 319 -99 294 -110 q 371 -89 343 -89 q 414 -96 393 -89 q 451 -115 435 -103 q 478 -147 468 -128 q 488 -192 488 -167 q 449 -281 488 -246 q 354 -317 411 -317 z "},"Ẁ":{"ha":1122,"x_min":97,"x_max":1203,"o":"m 136 903 l 364 903 l 328 494 q 313 351 321 424 q 294 206 306 278 l 300 206 q 358 351 328 278 q 414 494 388 424 l 585 903 l 769 903 l 769 494 q 763 352 767 425 q 756 206 760 279 l 761 206 q 810 351 785 279 q 856 494 835 424 l 992 903 l 1203 903 l 861 0 l 581 0 l 592 386 q 593 433 592 407 q 597 486 594 458 q 601 542 599 514 q 607 596 604 571 l 601 596 q 563 492 583 546 q 522 386 542 439 l 372 0 l 97 0 l 136 903 m 475 1142 l 700 1142 l 772 972 l 606 972 l 475 1142 z "},"Ẃ":{"ha":1122,"x_min":97,"x_max":1203,"o":"m 136 903 l 364 903 l 328 494 q 313 351 321 424 q 294 206 306 278 l 300 206 q 358 351 328 278 q 414 494 388 424 l 585 903 l 769 903 l 769 494 q 763 352 767 425 q 756 206 760 279 l 761 206 q 810 351 785 279 q 856 494 835 424 l 992 903 l 1203 903 l 861 0 l 581 0 l 592 386 q 593 433 592 407 q 597 486 594 458 q 601 542 599 514 q 607 596 604 571 l 601 596 q 563 492 583 546 q 522 386 542 439 l 372 0 l 97 0 l 136 903 m 694 1142 l 933 1142 l 736 972 l 556 972 l 694 1142 z "},"Ŵ":{"ha":1122,"x_min":97,"x_max":1203,"o":"m 136 903 l 364 903 l 328 494 q 313 351 321 424 q 294 206 306 278 l 300 206 q 358 351 328 278 q 414 494 388 424 l 585 903 l 769 903 l 769 494 q 763 352 767 425 q 756 206 760 279 l 761 206 q 810 351 785 279 q 856 494 835 424 l 992 903 l 1203 903 l 861 0 l 581 0 l 592 386 q 593 433 592 407 q 597 486 594 458 q 601 542 599 514 q 607 596 604 571 l 601 596 q 563 492 583 546 q 522 386 542 439 l 372 0 l 97 0 l 136 903 m 594 1142 l 811 1142 l 906 972 l 744 972 l 692 1056 l 689 1056 l 608 972 l 433 972 l 594 1142 z "},"Ẅ":{"ha":1122,"x_min":97,"x_max":1203,"o":"m 136 903 l 364 903 l 328 494 q 313 351 321 424 q 294 206 306 278 l 300 206 q 358 351 328 278 q 414 494 388 424 l 585 903 l 769 903 l 769 494 q 763 352 767 425 q 756 206 760 279 l 761 206 q 810 351 785 279 q 856 494 835 424 l 992 903 l 1203 903 l 861 0 l 581 0 l 592 386 q 593 433 592 407 q 597 486 594 458 q 601 542 599 514 q 607 596 604 571 l 601 596 q 563 492 583 546 q 522 386 542 439 l 372 0 l 97 0 l 136 903 m 539 967 q 476 990 501 967 q 450 1056 450 1014 q 458 1097 450 1076 q 482 1135 467 1118 q 518 1162 497 1151 q 564 1172 539 1172 q 626 1149 600 1172 q 653 1083 653 1125 q 644 1042 653 1063 q 621 1004 636 1021 q 585 977 606 988 q 539 967 564 967 m 817 967 q 753 990 779 967 q 728 1056 728 1014 q 736 1097 728 1076 q 760 1135 744 1118 q 796 1162 775 1151 q 842 1172 817 1172 q 904 1149 878 1172 q 931 1083 931 1125 q 922 1042 931 1063 q 899 1004 914 1021 q 863 977 883 988 q 817 967 842 967 z "},"Ỳ":{"ha":733,"x_min":110,"x_max":858,"o":"m 253 317 l 110 903 l 340 903 l 369 703 q 385 603 378 650 q 400 503 392 557 l 406 503 q 458 605 433 557 q 511 706 482 653 l 619 903 l 858 903 l 475 317 l 411 0 l 190 0 l 253 317 m 278 1142 l 503 1142 l 575 972 l 408 972 l 278 1142 z "},"Ý":{"ha":733,"x_min":110,"x_max":858,"o":"m 253 317 l 110 903 l 340 903 l 369 703 q 385 603 378 650 q 400 503 392 557 l 406 503 q 458 605 433 557 q 511 706 482 653 l 619 903 l 858 903 l 475 317 l 411 0 l 190 0 l 253 317 m 497 1142 l 736 1142 l 539 972 l 358 972 l 497 1142 z "},"Ŷ":{"ha":733,"x_min":110,"x_max":858,"o":"m 253 317 l 110 903 l 340 903 l 369 703 q 385 603 378 650 q 400 503 392 557 l 406 503 q 458 605 433 557 q 511 706 482 653 l 619 903 l 858 903 l 475 317 l 411 0 l 190 0 l 253 317 m 397 1142 l 614 1142 l 708 972 l 547 972 l 494 1056 l 492 1056 l 411 972 l 236 972 l 397 1142 z "},"Ÿ":{"ha":733,"x_min":110,"x_max":858,"o":"m 253 317 l 110 903 l 340 903 l 369 703 q 385 603 378 650 q 400 503 392 557 l 406 503 q 458 605 433 557 q 511 706 482 653 l 619 903 l 858 903 l 475 317 l 411 0 l 190 0 l 253 317 m 342 967 q 278 990 304 967 q 253 1056 253 1014 q 261 1097 253 1076 q 285 1135 269 1118 q 321 1162 300 1151 q 367 1172 342 1172 q 429 1149 403 1172 q 456 1083 456 1125 q 447 1042 456 1063 q 424 1004 439 1021 q 388 977 408 988 q 342 967 367 967 m 619 967 q 556 990 582 967 q 531 1056 531 1014 q 539 1097 531 1076 q 563 1135 547 1118 q 599 1162 578 1151 q 644 1172 619 1172 q 707 1149 681 1172 q 733 1083 733 1125 q 725 1042 733 1063 q 701 1004 717 1021 q 665 977 686 988 q 619 967 644 967 z "},"Ẏ":{"ha":733,"x_min":110,"x_max":858,"o":"m 253 317 l 110 903 l 340 903 l 369 703 q 385 603 378 650 q 400 503 392 557 l 406 503 q 458 605 433 557 q 511 706 482 653 l 619 903 l 858 903 l 475 317 l 411 0 l 190 0 l 253 317 m 486 969 q 443 976 464 969 q 406 994 422 982 q 379 1026 389 1007 q 369 1072 369 1046 q 380 1120 369 1097 q 408 1160 390 1143 q 451 1187 426 1176 q 503 1197 475 1197 q 546 1190 525 1197 q 583 1171 567 1183 q 610 1139 600 1158 q 619 1094 619 1119 q 581 1005 619 1040 q 486 969 543 969 z "},"Ỵ":{"ha":733,"x_min":110,"x_max":858,"o":"m 253 317 l 110 903 l 340 903 l 369 703 q 385 603 378 650 q 400 503 392 557 l 406 503 q 458 605 433 557 q 511 706 482 653 l 619 903 l 858 903 l 475 317 l 411 0 l 190 0 l 253 317 m 247 -328 q 204 -322 225 -328 q 167 -303 183 -315 q 140 -271 150 -290 q 131 -225 131 -251 q 141 -177 131 -200 q 169 -137 151 -154 q 212 -110 188 -121 q 264 -100 236 -100 q 307 -107 286 -100 q 344 -126 328 -114 q 371 -158 361 -139 q 381 -203 381 -178 q 342 -292 381 -257 q 247 -328 304 -328 z "},"Ỷ":{"ha":733,"x_min":110,"x_max":858,"o":"m 253 317 l 110 903 l 340 903 l 369 703 q 385 603 378 650 q 400 503 392 557 l 406 503 q 458 605 433 557 q 511 706 482 653 l 619 903 l 858 903 l 475 317 l 411 0 l 190 0 l 253 317 m 436 1233 q 602 1199 554 1229 q 650 1122 650 1168 q 632 1052 650 1082 q 583 1002 614 1022 q 512 971 553 982 q 425 956 471 960 l 419 1042 q 465 1054 447 1046 q 483 1083 483 1063 q 463 1110 483 1100 q 389 1122 442 1119 l 436 1233 z "},"Ỹ":{"ha":733,"x_min":110,"x_max":858,"o":"m 253 317 l 110 903 l 340 903 l 369 703 q 385 603 378 650 q 400 503 392 557 l 406 503 q 458 605 433 557 q 511 706 482 653 l 619 903 l 858 903 l 475 317 l 411 0 l 190 0 l 253 317 m 236 972 q 314 1119 264 1071 q 415 1167 364 1167 q 469 1157 447 1167 q 508 1136 490 1147 q 541 1115 525 1125 q 578 1106 557 1106 q 606 1119 593 1106 q 633 1164 619 1132 l 747 1164 q 669 1017 719 1065 q 568 969 619 969 q 515 979 536 969 q 476 1000 493 989 q 442 1021 458 1011 q 406 1031 426 1031 q 377 1017 390 1031 q 350 972 364 1004 l 236 972 z "},"Ź":{"ha":736,"x_min":-8,"x_max":781,"o":"m 19 133 l 478 717 l 144 717 l 181 903 l 781 903 l 753 769 l 300 186 l 667 186 l 628 0 l -8 0 l 19 133 m 514 1142 l 753 1142 l 556 972 l 375 972 l 514 1142 z "},"Ž":{"ha":736,"x_min":-8,"x_max":781,"o":"m 19 133 l 478 717 l 144 717 l 181 903 l 781 903 l 753 769 l 300 186 l 667 186 l 628 0 l -8 0 l 19 133 m 597 972 l 381 972 l 286 1142 l 447 1142 l 500 1058 l 503 1058 l 583 1142 l 758 1142 l 597 972 z "},"Ż":{"ha":736,"x_min":-8,"x_max":781,"o":"m 19 133 l 478 717 l 144 717 l 181 903 l 781 903 l 753 769 l 300 186 l 667 186 l 628 0 l -8 0 l 19 133 m 503 969 q 460 976 481 969 q 422 994 439 982 q 396 1026 406 1007 q 386 1072 386 1046 q 397 1120 386 1097 q 425 1160 407 1143 q 467 1187 443 1176 q 519 1197 492 1197 q 563 1190 542 1197 q 600 1171 583 1183 q 626 1139 617 1158 q 636 1094 636 1119 q 598 1005 636 1040 q 503 969 560 969 z "},"Ẓ":{"ha":736,"x_min":-8,"x_max":781,"o":"m 19 133 l 478 717 l 144 717 l 181 903 l 781 903 l 753 769 l 300 186 l 667 186 l 628 0 l -8 0 l 19 133 m 253 -328 q 210 -322 231 -328 q 172 -303 189 -315 q 146 -271 156 -290 q 136 -225 136 -251 q 147 -177 136 -200 q 175 -137 157 -154 q 217 -110 193 -121 q 269 -100 242 -100 q 313 -107 292 -100 q 350 -126 333 -114 q 376 -158 367 -139 q 386 -203 386 -178 q 348 -292 386 -257 q 253 -328 310 -328 z "},"Ð":{"ha":894,"x_min":47,"x_max":858,"o":"m 353 178 q 459 197 408 178 q 548 258 510 215 q 608 367 586 300 q 631 533 631 435 q 617 623 631 586 q 578 683 603 660 q 520 715 554 706 q 447 725 486 725 l 428 725 l 388 522 l 547 522 l 525 417 l 367 417 l 319 178 l 353 178 m 453 903 q 623 881 547 903 q 751 816 699 860 q 831 706 803 772 q 858 547 858 639 q 820 307 858 410 q 715 136 782 204 q 556 34 647 68 q 358 0 464 0 l 61 0 l 144 417 l 47 417 l 67 514 l 165 522 l 242 903 l 453 903 z "},"Þ":{"ha":844,"x_min":36,"x_max":814,"o":"m 217 917 l 439 917 l 411 778 l 519 778 q 635 765 581 778 q 728 722 689 751 q 791 646 768 693 q 814 531 814 599 q 778 363 814 432 q 684 251 743 294 q 548 189 625 208 q 386 169 471 169 l 289 169 l 256 0 l 36 0 l 217 917 m 411 344 q 547 383 499 344 q 594 497 594 422 q 563 577 594 551 q 475 603 532 603 l 375 603 l 325 344 l 411 344 z "},"Ə":{"ha":944,"x_min":92,"x_max":911,"o":"m 300 372 q 302 287 293 324 q 332 224 311 250 q 382 185 353 199 q 444 172 411 172 q 572 226 513 172 q 664 372 632 279 l 300 372 m 261 819 q 392 901 318 869 q 567 933 467 933 q 823 834 735 933 q 911 558 911 735 q 872 324 911 431 q 767 142 833 218 q 613 25 701 67 q 428 -17 525 -17 q 288 8 350 -17 q 181 81 225 33 q 115 194 138 128 q 92 344 92 261 q 94 394 92 371 q 100 440 96 418 q 110 485 104 463 q 125 533 117 507 l 689 533 l 689 536 q 655 690 689 636 q 539 744 621 744 q 433 722 476 744 q 353 669 390 699 l 261 819 z "},"à":{"ha":775,"x_min":39,"x_max":764,"o":"m 39 239 q 69 424 39 338 q 151 574 100 510 q 269 674 203 638 q 408 711 336 711 q 493 688 453 711 q 553 625 533 665 l 556 625 l 586 694 l 764 694 l 625 0 l 444 0 l 444 86 l 442 86 q 340 10 396 38 q 233 -17 283 -17 q 90 49 142 -17 q 39 239 39 115 m 333 164 q 394 181 361 164 q 456 256 428 199 l 500 478 q 466 518 488 506 q 425 531 444 531 q 367 511 394 531 q 317 457 339 492 q 283 374 296 422 q 269 267 269 325 q 287 188 269 213 q 333 164 304 164 m 292 1008 l 494 1008 l 572 797 l 419 797 l 292 1008 z "},"á":{"ha":775,"x_min":39,"x_max":764,"o":"m 39 239 q 69 424 39 338 q 151 574 100 510 q 269 674 203 638 q 408 711 336 711 q 493 688 453 711 q 553 625 533 665 l 556 625 l 586 694 l 764 694 l 625 0 l 444 0 l 444 86 l 442 86 q 340 10 396 38 q 233 -17 283 -17 q 90 49 142 -17 q 39 239 39 115 m 333 164 q 394 181 361 164 q 456 256 428 199 l 500 478 q 466 518 488 506 q 425 531 444 531 q 367 511 394 531 q 317 457 339 492 q 283 374 296 422 q 269 267 269 325 q 287 188 269 213 q 333 164 304 164 m 500 1008 l 719 1008 l 506 797 l 339 797 l 500 1008 z "},"â":{"ha":775,"x_min":39,"x_max":764,"o":"m 39 239 q 69 424 39 338 q 151 574 100 510 q 269 674 203 638 q 408 711 336 711 q 493 688 453 711 q 553 625 533 665 l 556 625 l 586 694 l 764 694 l 625 0 l 444 0 l 444 86 l 442 86 q 340 10 396 38 q 233 -17 283 -17 q 90 49 142 -17 q 39 239 39 115 m 333 164 q 394 181 361 164 q 456 256 428 199 l 500 478 q 466 518 488 506 q 425 531 444 531 q 367 511 394 531 q 317 457 339 492 q 283 374 296 422 q 269 267 269 325 q 287 188 269 213 q 333 164 304 164 m 417 1008 l 592 1008 l 678 797 l 536 797 l 492 903 l 486 903 l 400 797 l 247 797 l 417 1008 z "},"ã":{"ha":775,"x_min":39,"x_max":764,"o":"m 39 239 q 69 424 39 338 q 151 574 100 510 q 269 674 203 638 q 408 711 336 711 q 493 688 453 711 q 553 625 533 665 l 556 625 l 586 694 l 764 694 l 625 0 l 444 0 l 444 86 l 442 86 q 340 10 396 38 q 233 -17 283 -17 q 90 49 142 -17 q 39 239 39 115 m 333 164 q 394 181 361 164 q 456 256 428 199 l 500 478 q 466 518 488 506 q 425 531 444 531 q 367 511 394 531 q 317 457 339 492 q 283 374 296 422 q 269 267 269 325 q 287 188 269 213 q 333 164 304 164 m 239 800 q 315 945 267 899 q 415 992 364 992 q 469 983 447 992 q 508 963 490 974 q 541 942 525 951 q 578 933 557 933 q 605 945 593 933 q 631 989 617 957 l 744 989 q 668 844 717 890 q 568 797 619 797 q 515 806 536 797 q 476 826 493 815 q 442 847 458 838 q 406 856 426 856 q 378 844 390 856 q 353 800 367 832 l 239 800 z "},"ä":{"ha":775,"x_min":39,"x_max":764,"o":"m 39 239 q 69 424 39 338 q 151 574 100 510 q 269 674 203 638 q 408 711 336 711 q 493 688 453 711 q 553 625 533 665 l 556 625 l 586 694 l 764 694 l 625 0 l 444 0 l 444 86 l 442 86 q 340 10 396 38 q 233 -17 283 -17 q 90 49 142 -17 q 39 239 39 115 m 333 164 q 394 181 361 164 q 456 256 428 199 l 500 478 q 466 518 488 506 q 425 531 444 531 q 367 511 394 531 q 317 457 339 492 q 283 374 296 422 q 269 267 269 325 q 287 188 269 213 q 333 164 304 164 m 328 786 q 263 810 289 786 q 236 878 236 833 q 245 921 236 900 q 269 957 254 942 q 306 982 285 972 q 353 992 328 992 q 418 967 392 992 q 444 900 444 943 q 411 819 444 851 q 328 786 378 786 m 606 786 q 540 810 567 786 q 514 878 514 833 q 523 921 514 900 q 547 957 532 942 q 584 982 563 972 q 631 992 606 992 q 696 967 669 992 q 722 900 722 943 q 689 819 722 851 q 606 786 656 786 z "},"ā":{"ha":775,"x_min":39,"x_max":764,"o":"m 39 239 q 69 424 39 338 q 151 574 100 510 q 269 674 203 638 q 408 711 336 711 q 493 688 453 711 q 553 625 533 665 l 556 625 l 586 694 l 764 694 l 625 0 l 444 0 l 444 86 l 442 86 q 340 10 396 38 q 233 -17 283 -17 q 90 49 142 -17 q 39 239 39 115 m 333 164 q 394 181 361 164 q 456 256 428 199 l 500 478 q 466 518 488 506 q 425 531 444 531 q 367 511 394 531 q 317 457 339 492 q 283 374 296 422 q 269 267 269 325 q 287 188 269 213 q 333 164 304 164 m 303 958 l 683 958 l 656 819 l 275 819 l 303 958 z "},"ă":{"ha":775,"x_min":39,"x_max":764,"o":"m 39 239 q 69 424 39 338 q 151 574 100 510 q 269 674 203 638 q 408 711 336 711 q 493 688 453 711 q 553 625 533 665 l 556 625 l 586 694 l 764 694 l 625 0 l 444 0 l 444 86 l 442 86 q 340 10 396 38 q 233 -17 283 -17 q 90 49 142 -17 q 39 239 39 115 m 333 164 q 394 181 361 164 q 456 256 428 199 l 500 478 q 466 518 488 506 q 425 531 444 531 q 367 511 394 531 q 317 457 339 492 q 283 374 296 422 q 269 267 269 325 q 287 188 269 213 q 333 164 304 164 m 461 797 q 383 813 415 797 q 331 856 350 829 q 308 919 313 883 q 311 994 303 954 l 428 994 q 435 938 424 961 q 483 914 447 914 q 540 938 519 914 q 572 994 561 961 l 694 994 q 665 919 685 954 q 617 856 646 883 q 548 813 588 829 q 461 797 508 797 z "},"å":{"ha":775,"x_min":39,"x_max":764,"o":"m 39 239 q 69 424 39 338 q 151 574 100 510 q 269 674 203 638 q 408 711 336 711 q 493 688 453 711 q 553 625 533 665 l 556 625 l 586 694 l 764 694 l 625 0 l 444 0 l 444 86 l 442 86 q 340 10 396 38 q 233 -17 283 -17 q 90 49 142 -17 q 39 239 39 115 m 333 164 q 394 181 361 164 q 456 256 428 199 l 500 478 q 466 518 488 506 q 425 531 444 531 q 367 511 394 531 q 317 457 339 492 q 283 374 296 422 q 269 267 269 325 q 287 188 269 213 q 333 164 304 164 m 478 764 q 372 797 413 764 q 331 892 331 831 q 343 956 331 926 q 377 1006 356 985 q 428 1040 399 1028 q 494 1053 458 1053 q 601 1019 560 1053 q 642 925 642 986 q 629 861 642 890 q 595 810 617 832 q 543 776 574 789 q 478 764 513 764 m 492 969 q 452 948 468 969 q 436 897 436 926 q 447 862 436 876 q 481 847 457 847 q 520 869 504 847 q 536 919 536 890 q 526 954 536 939 q 492 969 515 969 z "},"ǎ":{"ha":775,"x_min":39,"x_max":764,"o":"m 39 239 q 69 424 39 338 q 151 574 100 510 q 269 674 203 638 q 408 711 336 711 q 493 688 453 711 q 553 625 533 665 l 556 625 l 586 694 l 764 694 l 625 0 l 444 0 l 444 86 l 442 86 q 340 10 396 38 q 233 -17 283 -17 q 90 49 142 -17 q 39 239 39 115 m 333 164 q 394 181 361 164 q 456 256 428 199 l 500 478 q 466 518 488 506 q 425 531 444 531 q 367 511 394 531 q 317 457 339 492 q 283 374 296 422 q 269 267 269 325 q 287 188 269 213 q 333 164 304 164 m 553 797 l 378 797 l 292 1008 l 433 1008 l 478 903 l 483 903 l 569 1008 l 722 1008 l 553 797 z "},"ạ":{"ha":775,"x_min":39,"x_max":764,"o":"m 39 239 q 69 424 39 338 q 151 574 100 510 q 269 674 203 638 q 408 711 336 711 q 493 688 453 711 q 553 625 533 665 l 556 625 l 586 694 l 764 694 l 625 0 l 444 0 l 444 86 l 442 86 q 340 10 396 38 q 233 -17 283 -17 q 90 49 142 -17 q 39 239 39 115 m 333 164 q 394 181 361 164 q 456 256 428 199 l 500 478 q 466 518 488 506 q 425 531 444 531 q 367 511 394 531 q 317 457 339 492 q 283 374 296 422 q 269 267 269 325 q 287 188 269 213 q 333 164 304 164 m 297 -317 q 254 -310 275 -317 q 217 -292 233 -304 q 190 -260 200 -279 q 181 -214 181 -240 q 191 -166 181 -189 q 219 -126 201 -143 q 262 -99 238 -110 q 314 -89 286 -89 q 357 -96 336 -89 q 394 -115 378 -103 q 421 -147 411 -128 q 431 -192 431 -167 q 392 -281 431 -246 q 297 -317 354 -317 z "},"ả":{"ha":775,"x_min":39,"x_max":764,"o":"m 39 239 q 69 424 39 338 q 151 574 100 510 q 269 674 203 638 q 408 711 336 711 q 493 688 453 711 q 553 625 533 665 l 556 625 l 586 694 l 764 694 l 625 0 l 444 0 l 444 86 l 442 86 q 340 10 396 38 q 233 -17 283 -17 q 90 49 142 -17 q 39 239 39 115 m 333 164 q 394 181 361 164 q 456 256 428 199 l 500 478 q 466 518 488 506 q 425 531 444 531 q 367 511 394 531 q 317 457 339 492 q 283 374 296 422 q 269 267 269 325 q 287 188 269 213 q 333 164 304 164 m 439 1050 q 540 1040 499 1049 q 608 1017 582 1032 q 644 983 633 1003 q 656 939 656 963 q 638 869 656 899 q 590 819 621 839 q 519 788 560 799 q 433 772 479 776 l 428 861 q 474 874 456 865 q 492 903 492 882 q 469 928 492 919 q 394 942 447 938 l 439 1050 z "},"ấ":{"ha":775,"x_min":39,"x_max":914,"o":"m 39 239 q 69 424 39 338 q 151 574 100 510 q 269 674 203 638 q 408 711 336 711 q 493 688 453 711 q 553 625 533 665 l 556 625 l 586 694 l 764 694 l 625 0 l 444 0 l 444 86 l 442 86 q 340 10 396 38 q 233 -17 283 -17 q 90 49 142 -17 q 39 239 39 115 m 333 164 q 394 181 361 164 q 456 256 428 199 l 500 478 q 466 518 488 506 q 425 531 444 531 q 367 511 394 531 q 317 457 339 492 q 283 374 296 422 q 269 267 269 325 q 287 188 269 213 q 333 164 304 164 m 411 978 l 586 978 l 656 797 l 528 797 l 486 883 l 481 883 l 408 797 l 267 797 l 411 978 m 753 1064 l 914 1064 l 753 897 l 633 897 l 753 1064 z "},"ầ":{"ha":775,"x_min":39,"x_max":833,"o":"m 39 239 q 69 424 39 338 q 151 574 100 510 q 269 674 203 638 q 408 711 336 711 q 493 688 453 711 q 553 625 533 665 l 556 625 l 586 694 l 764 694 l 625 0 l 444 0 l 444 86 l 442 86 q 340 10 396 38 q 233 -17 283 -17 q 90 49 142 -17 q 39 239 39 115 m 333 164 q 394 181 361 164 q 456 256 428 199 l 500 478 q 466 518 488 506 q 425 531 444 531 q 367 511 394 531 q 317 457 339 492 q 283 374 296 422 q 269 267 269 325 q 287 188 269 213 q 333 164 304 164 m 833 897 l 711 897 l 617 1064 l 778 1064 l 833 897 m 411 978 l 586 978 l 656 797 l 528 797 l 486 883 l 481 883 l 408 797 l 267 797 l 411 978 z "},"ẩ":{"ha":775,"x_min":39,"x_max":864,"o":"m 39 239 q 69 424 39 338 q 151 574 100 510 q 269 674 203 638 q 408 711 336 711 q 493 688 453 711 q 553 625 533 665 l 556 625 l 586 694 l 764 694 l 625 0 l 444 0 l 444 86 l 442 86 q 340 10 396 38 q 233 -17 283 -17 q 90 49 142 -17 q 39 239 39 115 m 333 164 q 394 181 361 164 q 456 256 428 199 l 500 478 q 466 518 488 506 q 425 531 444 531 q 367 511 394 531 q 317 457 339 492 q 283 374 296 422 q 269 267 269 325 q 287 188 269 213 q 333 164 304 164 m 675 1117 q 822 1087 781 1113 q 864 1022 864 1061 q 849 956 864 982 q 807 913 833 929 q 745 887 781 896 q 669 872 710 878 l 669 944 q 703 960 693 951 q 714 989 714 968 q 698 1013 714 1004 q 636 1025 682 1021 l 675 1117 m 411 978 l 586 978 l 656 797 l 528 797 l 486 883 l 481 883 l 408 797 l 267 797 l 411 978 z "},"ẫ":{"ha":775,"x_min":39,"x_max":764,"o":"m 39 239 q 69 424 39 338 q 151 574 100 510 q 269 674 203 638 q 408 711 336 711 q 493 688 453 711 q 553 625 533 665 l 556 625 l 586 694 l 764 694 l 625 0 l 444 0 l 444 86 l 442 86 q 340 10 396 38 q 233 -17 283 -17 q 90 49 142 -17 q 39 239 39 115 m 333 164 q 394 181 361 164 q 456 256 428 199 l 500 478 q 466 518 488 506 q 425 531 444 531 q 367 511 394 531 q 317 457 339 492 q 283 374 296 422 q 269 267 269 325 q 287 188 269 213 q 333 164 304 164 m 667 797 l 531 797 l 483 875 l 478 875 l 406 797 l 256 797 l 392 953 l 594 953 l 667 797 m 297 1003 q 368 1128 325 1089 q 456 1167 411 1167 q 496 1159 478 1167 q 528 1142 514 1151 q 556 1124 543 1132 q 583 1117 569 1117 q 613 1128 599 1117 q 639 1167 628 1139 l 733 1167 q 663 1042 706 1081 q 575 1003 619 1003 q 534 1010 551 1003 q 502 1028 517 1018 q 474 1045 488 1038 q 447 1053 461 1053 q 419 1042 432 1053 q 394 1003 406 1031 l 297 1003 z "},"ậ":{"ha":775,"x_min":39,"x_max":764,"o":"m 39 239 q 69 424 39 338 q 151 574 100 510 q 269 674 203 638 q 408 711 336 711 q 493 688 453 711 q 553 625 533 665 l 556 625 l 586 694 l 764 694 l 625 0 l 444 0 l 444 86 l 442 86 q 340 10 396 38 q 233 -17 283 -17 q 90 49 142 -17 q 39 239 39 115 m 333 164 q 394 181 361 164 q 456 256 428 199 l 500 478 q 466 518 488 506 q 425 531 444 531 q 367 511 394 531 q 317 457 339 492 q 283 374 296 422 q 269 267 269 325 q 287 188 269 213 q 333 164 304 164 m 417 1008 l 592 1008 l 678 797 l 536 797 l 492 903 l 486 903 l 400 797 l 247 797 l 417 1008 m 297 -317 q 254 -310 275 -317 q 217 -292 233 -304 q 190 -260 200 -279 q 181 -214 181 -240 q 191 -166 181 -189 q 219 -126 201 -143 q 262 -99 238 -110 q 314 -89 286 -89 q 357 -96 336 -89 q 394 -115 378 -103 q 421 -147 411 -128 q 431 -192 431 -167 q 392 -281 431 -246 q 297 -317 354 -317 z "},"ắ":{"ha":775,"x_min":39,"x_max":764,"o":"m 39 239 q 69 424 39 338 q 151 574 100 510 q 269 674 203 638 q 408 711 336 711 q 493 688 453 711 q 553 625 533 665 l 556 625 l 586 694 l 764 694 l 625 0 l 444 0 l 444 86 l 442 86 q 340 10 396 38 q 233 -17 283 -17 q 90 49 142 -17 q 39 239 39 115 m 333 164 q 394 181 361 164 q 456 256 428 199 l 500 478 q 466 518 488 506 q 425 531 444 531 q 367 511 394 531 q 317 457 339 492 q 283 374 296 422 q 269 267 269 325 q 287 188 269 213 q 333 164 304 164 m 519 1131 l 675 1131 l 536 964 l 428 964 l 519 1131 m 461 797 q 383 813 415 797 q 331 856 350 829 q 308 919 313 883 q 311 994 303 954 l 406 994 q 418 930 399 954 q 483 906 438 906 q 553 929 524 906 q 594 994 582 953 l 694 994 q 665 919 685 954 q 617 856 646 883 q 548 813 588 829 q 461 797 508 797 z "},"ằ":{"ha":775,"x_min":39,"x_max":764,"o":"m 39 239 q 69 424 39 338 q 151 574 100 510 q 269 674 203 638 q 408 711 336 711 q 493 688 453 711 q 553 625 533 665 l 556 625 l 586 694 l 764 694 l 625 0 l 444 0 l 444 86 l 442 86 q 340 10 396 38 q 233 -17 283 -17 q 90 49 142 -17 q 39 239 39 115 m 333 164 q 394 181 361 164 q 456 256 428 199 l 500 478 q 466 518 488 506 q 425 531 444 531 q 367 511 394 531 q 317 457 339 492 q 283 374 296 422 q 269 267 269 325 q 287 188 269 213 q 333 164 304 164 m 461 797 q 383 813 415 797 q 331 856 350 829 q 308 919 313 883 q 311 994 303 954 l 406 994 q 418 930 399 954 q 483 906 438 906 q 553 929 524 906 q 594 994 582 953 l 694 994 q 665 919 685 954 q 617 856 646 883 q 548 813 588 829 q 461 797 508 797 m 561 964 l 453 964 l 378 1131 l 533 1131 l 561 964 z "},"ẳ":{"ha":775,"x_min":39,"x_max":764,"o":"m 39 239 q 69 424 39 338 q 151 574 100 510 q 269 674 203 638 q 408 711 336 711 q 493 688 453 711 q 553 625 533 665 l 556 625 l 586 694 l 764 694 l 625 0 l 444 0 l 444 86 l 442 86 q 340 10 396 38 q 233 -17 283 -17 q 90 49 142 -17 q 39 239 39 115 m 333 164 q 394 181 361 164 q 456 256 428 199 l 500 478 q 466 518 488 506 q 425 531 444 531 q 367 511 394 531 q 317 457 339 492 q 283 374 296 422 q 269 267 269 325 q 287 188 269 213 q 333 164 304 164 m 461 1222 q 605 1194 565 1219 q 644 1131 644 1168 q 630 1064 644 1090 q 590 1020 615 1038 q 531 993 565 1003 q 456 978 496 983 l 456 1053 q 488 1066 476 1057 q 500 1094 500 1075 q 484 1118 500 1110 q 422 1131 468 1126 l 461 1222 m 461 797 q 383 813 415 797 q 331 856 350 829 q 308 919 313 883 q 311 994 303 954 l 406 994 q 418 930 399 954 q 483 906 438 906 q 553 929 524 906 q 594 994 582 953 l 694 994 q 665 919 685 954 q 617 856 646 883 q 548 813 588 829 q 461 797 508 797 z "},"ẵ":{"ha":775,"x_min":39,"x_max":764,"o":"m 39 239 q 69 424 39 338 q 151 574 100 510 q 269 674 203 638 q 408 711 336 711 q 493 688 453 711 q 553 625 533 665 l 556 625 l 586 694 l 764 694 l 625 0 l 444 0 l 444 86 l 442 86 q 340 10 396 38 q 233 -17 283 -17 q 90 49 142 -17 q 39 239 39 115 m 333 164 q 394 181 361 164 q 456 256 428 199 l 500 478 q 466 518 488 506 q 425 531 444 531 q 367 511 394 531 q 317 457 339 492 q 283 374 296 422 q 269 267 269 325 q 287 188 269 213 q 333 164 304 164 m 461 797 q 380 811 413 797 q 328 848 347 825 q 304 901 310 871 q 306 967 299 932 l 400 967 q 421 919 403 939 q 483 900 439 900 q 551 919 525 900 q 589 967 578 939 l 686 967 q 660 901 678 932 q 613 848 642 871 q 547 811 585 825 q 461 797 508 797 m 297 1003 q 368 1128 325 1089 q 456 1167 411 1167 q 496 1159 478 1167 q 528 1142 514 1151 q 556 1124 543 1132 q 583 1117 569 1117 q 613 1128 599 1117 q 639 1167 628 1139 l 733 1167 q 663 1042 706 1081 q 575 1003 619 1003 q 534 1010 551 1003 q 502 1028 517 1018 q 474 1045 488 1038 q 447 1053 461 1053 q 419 1042 432 1053 q 394 1003 406 1031 l 297 1003 z "},"ặ":{"ha":775,"x_min":39,"x_max":764,"o":"m 39 239 q 69 424 39 338 q 151 574 100 510 q 269 674 203 638 q 408 711 336 711 q 493 688 453 711 q 553 625 533 665 l 556 625 l 586 694 l 764 694 l 625 0 l 444 0 l 444 86 l 442 86 q 340 10 396 38 q 233 -17 283 -17 q 90 49 142 -17 q 39 239 39 115 m 333 164 q 394 181 361 164 q 456 256 428 199 l 500 478 q 466 518 488 506 q 425 531 444 531 q 367 511 394 531 q 317 457 339 492 q 283 374 296 422 q 269 267 269 325 q 287 188 269 213 q 333 164 304 164 m 461 797 q 383 813 415 797 q 331 856 350 829 q 308 919 313 883 q 311 994 303 954 l 428 994 q 435 938 424 961 q 483 914 447 914 q 540 938 519 914 q 572 994 561 961 l 694 994 q 665 919 685 954 q 617 856 646 883 q 548 813 588 829 q 461 797 508 797 m 297 -317 q 254 -310 275 -317 q 217 -292 233 -304 q 190 -260 200 -279 q 181 -214 181 -240 q 191 -166 181 -189 q 219 -126 201 -143 q 262 -99 238 -110 q 314 -89 286 -89 q 357 -96 336 -89 q 394 -115 378 -103 q 421 -147 411 -128 q 431 -192 431 -167 q 392 -281 431 -246 q 297 -317 354 -317 z "},"ą":{"ha":775,"x_min":39,"x_max":764,"o":"m 39 239 q 69 424 39 338 q 151 574 100 510 q 269 674 203 638 q 408 711 336 711 q 493 688 453 711 q 553 625 533 665 l 556 625 l 586 694 l 764 694 l 625 0 q 519 -50 558 -17 q 481 -125 481 -83 q 494 -154 481 -144 q 528 -164 508 -164 q 569 -150 546 -164 l 606 -239 q 529 -278 574 -262 q 447 -294 485 -294 q 358 -268 393 -294 q 322 -189 322 -242 q 336 -124 322 -154 q 369 -70 350 -94 q 410 -28 389 -46 q 444 0 431 -11 l 444 86 l 442 86 q 340 10 396 38 q 233 -17 283 -17 q 90 49 142 -17 q 39 239 39 115 m 333 164 q 394 181 361 164 q 456 256 428 199 l 500 478 q 466 518 488 506 q 425 531 444 531 q 367 511 394 531 q 317 457 339 492 q 283 374 296 422 q 269 267 269 325 q 287 188 269 213 q 333 164 304 164 z "},"æ":{"ha":1044,"x_min":25,"x_max":1006,"o":"m 25 158 q 58 288 25 235 q 148 372 92 340 q 279 419 204 404 q 439 436 354 433 l 439 453 q 417 519 439 499 q 356 539 396 539 q 276 526 318 539 q 183 489 233 513 l 136 642 q 271 692 201 674 q 411 711 340 711 q 581 633 529 711 q 675 691 625 671 q 775 711 725 711 q 883 690 839 711 q 953 633 926 669 q 993 549 981 597 q 1006 447 1006 501 q 1001 394 1006 421 q 990 345 996 368 q 977 305 983 322 q 967 281 971 288 l 606 281 q 614 222 604 246 q 642 181 624 197 q 685 158 660 165 q 739 150 710 150 q 798 164 767 150 q 853 194 829 178 l 931 56 q 829 5 890 26 q 689 -17 768 -17 q 557 14 615 -17 q 468 88 499 44 q 349 11 408 39 q 214 -17 289 -17 q 139 -4 174 -17 q 79 31 104 8 q 40 86 54 54 q 25 158 25 118 m 819 414 q 824 438 822 429 q 825 458 825 446 q 808 518 825 494 q 747 542 792 542 q 677 511 711 542 q 622 414 643 481 l 819 414 m 411 303 q 281 272 319 300 q 242 203 242 243 q 259 166 242 179 q 306 153 276 153 q 358 169 331 153 q 414 219 386 186 q 410 258 411 239 q 411 303 408 278 z "},"ç":{"ha":619,"x_min":36,"x_max":642,"o":"m 36 272 q 67 439 36 360 q 155 578 99 518 q 287 675 211 639 q 453 711 363 711 q 568 684 519 711 q 642 625 617 657 l 519 494 q 482 524 500 514 q 439 533 464 533 q 369 513 401 533 q 314 458 338 493 q 277 375 290 422 q 264 275 264 328 q 289 192 264 222 q 364 161 314 161 q 417 173 396 161 q 458 200 439 185 l 550 64 q 453 9 510 35 q 314 -17 397 -17 q 205 3 256 -17 q 117 59 154 22 q 58 149 79 96 q 36 272 36 203 m 231 6 l 358 6 l 319 -58 q 364 -89 347 -69 q 381 -142 381 -108 q 358 -215 381 -185 q 296 -266 335 -246 q 206 -297 257 -286 q 100 -308 156 -307 l 94 -222 q 181 -203 144 -218 q 217 -158 217 -187 q 205 -130 217 -143 q 156 -106 193 -117 l 231 6 z "},"ć":{"ha":619,"x_min":36,"x_max":706,"o":"m 36 272 q 67 439 36 360 q 155 578 99 518 q 287 675 211 639 q 453 711 363 711 q 568 684 519 711 q 642 625 617 657 l 519 494 q 482 524 500 514 q 439 533 464 533 q 369 513 401 533 q 314 458 338 493 q 277 375 290 422 q 264 275 264 328 q 289 192 264 222 q 364 161 314 161 q 417 173 396 161 q 458 200 439 185 l 550 64 q 453 9 510 35 q 314 -17 397 -17 q 205 3 256 -17 q 117 59 154 22 q 58 149 79 96 q 36 272 36 203 m 486 1008 l 706 1008 l 492 797 l 325 797 l 486 1008 z "},"ĉ":{"ha":619,"x_min":36,"x_max":664,"o":"m 36 272 q 67 439 36 360 q 155 578 99 518 q 287 675 211 639 q 453 711 363 711 q 568 684 519 711 q 642 625 617 657 l 519 494 q 482 524 500 514 q 439 533 464 533 q 369 513 401 533 q 314 458 338 493 q 277 375 290 422 q 264 275 264 328 q 289 192 264 222 q 364 161 314 161 q 417 173 396 161 q 458 200 439 185 l 550 64 q 453 9 510 35 q 314 -17 397 -17 q 205 3 256 -17 q 117 59 154 22 q 58 149 79 96 q 36 272 36 203 m 403 1008 l 578 1008 l 664 797 l 522 797 l 478 903 l 472 903 l 386 797 l 233 797 l 403 1008 z "},"č":{"ha":619,"x_min":36,"x_max":708,"o":"m 36 272 q 67 439 36 360 q 155 578 99 518 q 287 675 211 639 q 453 711 363 711 q 568 684 519 711 q 642 625 617 657 l 519 494 q 482 524 500 514 q 439 533 464 533 q 369 513 401 533 q 314 458 338 493 q 277 375 290 422 q 264 275 264 328 q 289 192 264 222 q 364 161 314 161 q 417 173 396 161 q 458 200 439 185 l 550 64 q 453 9 510 35 q 314 -17 397 -17 q 205 3 256 -17 q 117 59 154 22 q 58 149 79 96 q 36 272 36 203 m 539 797 l 364 797 l 278 1008 l 419 1008 l 464 903 l 469 903 l 556 1008 l 708 1008 l 539 797 z "},"ċ":{"ha":619,"x_min":36,"x_max":642,"o":"m 36 272 q 67 439 36 360 q 155 578 99 518 q 287 675 211 639 q 453 711 363 711 q 568 684 519 711 q 642 625 617 657 l 519 494 q 482 524 500 514 q 439 533 464 533 q 369 513 401 533 q 314 458 338 493 q 277 375 290 422 q 264 275 264 328 q 289 192 264 222 q 364 161 314 161 q 417 173 396 161 q 458 200 439 185 l 550 64 q 453 9 510 35 q 314 -17 397 -17 q 205 3 256 -17 q 117 59 154 22 q 58 149 79 96 q 36 272 36 203 m 458 783 q 415 790 436 783 q 378 808 394 796 q 351 840 361 821 q 342 886 342 860 q 352 934 342 911 q 381 974 363 957 q 423 1001 399 990 q 475 1011 447 1011 q 518 1004 497 1011 q 556 985 539 997 q 582 953 572 972 q 592 908 592 933 q 553 819 592 854 q 458 783 515 783 z "},"ď":{"ha":806,"x_min":39,"x_max":1022,"o":"m 558 764 l 597 967 l 819 967 l 625 0 l 444 0 l 444 86 l 442 86 q 340 10 396 38 q 233 -17 283 -17 q 90 49 142 -17 q 39 239 39 115 q 69 424 39 338 q 151 574 100 510 q 269 674 203 638 q 408 711 336 711 q 488 690 453 711 q 542 633 522 669 l 544 633 l 558 764 m 333 164 q 393 181 360 164 q 456 256 426 199 l 500 478 q 466 518 488 506 q 425 531 444 531 q 367 511 394 531 q 317 457 339 492 q 283 374 296 422 q 269 267 269 325 q 287 188 269 213 q 333 164 304 164 m 828 761 l 883 1075 l 1022 1075 l 1000 972 l 922 761 l 828 761 z "},"ḍ":{"ha":764,"x_min":39,"x_max":819,"o":"m 558 764 l 597 967 l 819 967 l 625 0 l 444 0 l 444 86 l 442 86 q 340 10 396 38 q 233 -17 283 -17 q 90 49 142 -17 q 39 239 39 115 q 69 424 39 338 q 151 574 100 510 q 269 674 203 638 q 408 711 336 711 q 488 690 453 711 q 542 633 522 669 l 544 633 l 558 764 m 333 164 q 393 181 360 164 q 456 256 426 199 l 500 478 q 466 518 488 506 q 425 531 444 531 q 367 511 394 531 q 317 457 339 492 q 283 374 296 422 q 269 267 269 325 q 287 188 269 213 q 333 164 304 164 m 286 -317 q 243 -310 264 -317 q 206 -292 222 -304 q 179 -260 189 -279 q 169 -214 169 -240 q 180 -166 169 -189 q 208 -126 190 -143 q 251 -99 226 -110 q 303 -89 275 -89 q 346 -96 325 -89 q 383 -115 367 -103 q 410 -147 400 -128 q 419 -192 419 -167 q 381 -281 419 -246 q 286 -317 343 -317 z "},"ḏ":{"ha":764,"x_min":39,"x_max":819,"o":"m 558 764 l 597 967 l 819 967 l 625 0 l 444 0 l 444 86 l 442 86 q 340 10 396 38 q 233 -17 283 -17 q 90 49 142 -17 q 39 239 39 115 q 69 424 39 338 q 151 574 100 510 q 269 674 203 638 q 408 711 336 711 q 488 690 453 711 q 542 633 522 669 l 544 633 l 558 764 m 333 164 q 393 181 360 164 q 456 256 426 199 l 500 478 q 466 518 488 506 q 425 531 444 531 q 367 511 394 531 q 317 457 339 492 q 283 374 296 422 q 269 267 269 325 q 287 188 269 213 q 333 164 304 164 m 119 -114 l 500 -114 l 472 -253 l 92 -253 l 119 -114 z "},"đ":{"ha":772,"x_min":39,"x_max":892,"o":"m 494 450 q 464 490 483 478 q 425 503 444 503 q 367 483 394 503 q 317 431 339 464 q 283 356 296 399 q 269 267 269 314 q 287 188 269 213 q 333 164 304 164 q 393 181 360 164 q 456 256 426 199 l 494 450 m 869 775 l 779 768 l 625 0 l 444 0 l 444 86 l 442 86 q 340 10 396 38 q 233 -17 283 -17 q 90 49 142 -17 q 39 239 39 115 q 69 407 39 326 q 151 549 100 488 q 269 647 203 610 q 408 683 336 683 q 486 663 453 683 q 536 606 519 642 l 539 606 l 553 736 l 558 767 l 367 767 l 386 872 l 579 872 l 597 967 l 819 967 l 800 872 l 892 872 l 869 775 z "},"è":{"ha":697,"x_min":36,"x_max":658,"o":"m 36 283 q 71 458 36 379 q 162 592 106 536 q 288 680 218 649 q 428 711 358 711 q 535 690 492 711 q 606 633 579 669 q 646 549 633 597 q 658 447 658 501 q 653 394 658 421 q 642 345 649 368 q 630 305 636 322 q 619 281 624 288 l 244 281 q 288 181 247 211 q 389 150 328 150 q 450 164 418 150 q 506 194 482 178 l 583 56 q 476 5 542 26 q 325 -17 411 -17 q 208 4 261 -17 q 117 64 156 25 q 58 158 79 103 q 36 283 36 214 m 472 414 q 476 434 475 422 q 478 458 478 446 q 461 518 478 494 q 400 542 444 542 q 322 511 360 542 q 261 414 285 481 l 472 414 m 281 1008 l 483 1008 l 561 797 l 408 797 l 281 1008 z "},"é":{"ha":697,"x_min":36,"x_max":708,"o":"m 36 283 q 71 458 36 379 q 162 592 106 536 q 288 680 218 649 q 428 711 358 711 q 535 690 492 711 q 606 633 579 669 q 646 549 633 597 q 658 447 658 501 q 653 394 658 421 q 642 345 649 368 q 630 305 636 322 q 619 281 624 288 l 244 281 q 288 181 247 211 q 389 150 328 150 q 450 164 418 150 q 506 194 482 178 l 583 56 q 476 5 542 26 q 325 -17 411 -17 q 208 4 261 -17 q 117 64 156 25 q 58 158 79 103 q 36 283 36 214 m 472 414 q 476 434 475 422 q 478 458 478 446 q 461 518 478 494 q 400 542 444 542 q 322 511 360 542 q 261 414 285 481 l 472 414 m 489 1008 l 708 1008 l 494 797 l 328 797 l 489 1008 z "},"ê":{"ha":697,"x_min":36,"x_max":667,"o":"m 36 283 q 71 458 36 379 q 162 592 106 536 q 288 680 218 649 q 428 711 358 711 q 535 690 492 711 q 606 633 579 669 q 646 549 633 597 q 658 447 658 501 q 653 394 658 421 q 642 345 649 368 q 630 305 636 322 q 619 281 624 288 l 244 281 q 288 181 247 211 q 389 150 328 150 q 450 164 418 150 q 506 194 482 178 l 583 56 q 476 5 542 26 q 325 -17 411 -17 q 208 4 261 -17 q 117 64 156 25 q 58 158 79 103 q 36 283 36 214 m 472 414 q 476 434 475 422 q 478 458 478 446 q 461 518 478 494 q 400 542 444 542 q 322 511 360 542 q 261 414 285 481 l 472 414 m 406 1008 l 581 1008 l 667 797 l 525 797 l 481 903 l 475 903 l 389 797 l 236 797 l 406 1008 z "},"ě":{"ha":697,"x_min":36,"x_max":711,"o":"m 36 283 q 71 458 36 379 q 162 592 106 536 q 288 680 218 649 q 428 711 358 711 q 535 690 492 711 q 606 633 579 669 q 646 549 633 597 q 658 447 658 501 q 653 394 658 421 q 642 345 649 368 q 630 305 636 322 q 619 281 624 288 l 244 281 q 288 181 247 211 q 389 150 328 150 q 450 164 418 150 q 506 194 482 178 l 583 56 q 476 5 542 26 q 325 -17 411 -17 q 208 4 261 -17 q 117 64 156 25 q 58 158 79 103 q 36 283 36 214 m 472 414 q 476 434 475 422 q 478 458 478 446 q 461 518 478 494 q 400 542 444 542 q 322 511 360 542 q 261 414 285 481 l 472 414 m 542 797 l 367 797 l 281 1008 l 422 1008 l 467 903 l 472 903 l 558 1008 l 711 1008 l 542 797 z "},"ë":{"ha":697,"x_min":36,"x_max":711,"o":"m 36 283 q 71 458 36 379 q 162 592 106 536 q 288 680 218 649 q 428 711 358 711 q 535 690 492 711 q 606 633 579 669 q 646 549 633 597 q 658 447 658 501 q 653 394 658 421 q 642 345 649 368 q 630 305 636 322 q 619 281 624 288 l 244 281 q 288 181 247 211 q 389 150 328 150 q 450 164 418 150 q 506 194 482 178 l 583 56 q 476 5 542 26 q 325 -17 411 -17 q 208 4 261 -17 q 117 64 156 25 q 58 158 79 103 q 36 283 36 214 m 472 414 q 476 434 475 422 q 478 458 478 446 q 461 518 478 494 q 400 542 444 542 q 322 511 360 542 q 261 414 285 481 l 472 414 m 317 786 q 251 810 278 786 q 225 878 225 833 q 234 921 225 900 q 258 957 243 942 q 295 982 274 972 q 342 992 317 992 q 407 967 381 992 q 433 900 433 943 q 400 819 433 851 q 317 786 367 786 m 594 786 q 529 810 556 786 q 503 878 503 833 q 512 921 503 900 q 536 957 521 942 q 573 982 551 972 q 619 992 594 992 q 685 967 658 992 q 711 900 711 943 q 678 819 711 851 q 594 786 644 786 z "},"ē":{"ha":697,"x_min":36,"x_max":672,"o":"m 36 283 q 71 458 36 379 q 162 592 106 536 q 288 680 218 649 q 428 711 358 711 q 535 690 492 711 q 606 633 579 669 q 646 549 633 597 q 658 447 658 501 q 653 394 658 421 q 642 345 649 368 q 630 305 636 322 q 619 281 624 288 l 244 281 q 288 181 247 211 q 389 150 328 150 q 450 164 418 150 q 506 194 482 178 l 583 56 q 476 5 542 26 q 325 -17 411 -17 q 208 4 261 -17 q 117 64 156 25 q 58 158 79 103 q 36 283 36 214 m 472 414 q 476 434 475 422 q 478 458 478 446 q 461 518 478 494 q 400 542 444 542 q 322 511 360 542 q 261 414 285 481 l 472 414 m 292 958 l 672 958 l 644 819 l 264 819 l 292 958 z "},"ĕ":{"ha":697,"x_min":36,"x_max":683,"o":"m 36 283 q 71 458 36 379 q 162 592 106 536 q 288 680 218 649 q 428 711 358 711 q 535 690 492 711 q 606 633 579 669 q 646 549 633 597 q 658 447 658 501 q 653 394 658 421 q 642 345 649 368 q 630 305 636 322 q 619 281 624 288 l 244 281 q 288 181 247 211 q 389 150 328 150 q 450 164 418 150 q 506 194 482 178 l 583 56 q 476 5 542 26 q 325 -17 411 -17 q 208 4 261 -17 q 117 64 156 25 q 58 158 79 103 q 36 283 36 214 m 472 414 q 476 434 475 422 q 478 458 478 446 q 461 518 478 494 q 400 542 444 542 q 322 511 360 542 q 261 414 285 481 l 472 414 m 450 797 q 372 813 404 797 q 320 856 339 829 q 297 919 301 883 q 300 994 292 954 l 417 994 q 424 938 413 961 q 472 914 436 914 q 529 938 508 914 q 561 994 550 961 l 683 994 q 654 919 674 954 q 606 856 635 883 q 537 813 576 829 q 450 797 497 797 z "},"ė":{"ha":697,"x_min":36,"x_max":658,"o":"m 36 283 q 71 458 36 379 q 162 592 106 536 q 288 680 218 649 q 428 711 358 711 q 535 690 492 711 q 606 633 579 669 q 646 549 633 597 q 658 447 658 501 q 653 394 658 421 q 642 345 649 368 q 630 305 636 322 q 619 281 624 288 l 244 281 q 288 181 247 211 q 389 150 328 150 q 450 164 418 150 q 506 194 482 178 l 583 56 q 476 5 542 26 q 325 -17 411 -17 q 208 4 261 -17 q 117 64 156 25 q 58 158 79 103 q 36 283 36 214 m 472 414 q 476 434 475 422 q 478 458 478 446 q 461 518 478 494 q 400 542 444 542 q 322 511 360 542 q 261 414 285 481 l 472 414 m 461 783 q 418 790 439 783 q 381 808 397 796 q 354 840 364 821 q 344 886 344 860 q 355 934 344 911 q 383 974 365 957 q 426 1001 401 990 q 478 1011 450 1011 q 521 1004 500 1011 q 558 985 542 997 q 585 953 575 972 q 594 908 594 933 q 556 819 594 854 q 461 783 518 783 z "},"ẹ":{"ha":697,"x_min":36,"x_max":658,"o":"m 36 283 q 71 458 36 379 q 162 592 106 536 q 288 680 218 649 q 428 711 358 711 q 535 690 492 711 q 606 633 579 669 q 646 549 633 597 q 658 447 658 501 q 653 394 658 421 q 642 345 649 368 q 630 305 636 322 q 619 281 624 288 l 244 281 q 288 181 247 211 q 389 150 328 150 q 450 164 418 150 q 506 194 482 178 l 583 56 q 476 5 542 26 q 325 -17 411 -17 q 208 4 261 -17 q 117 64 156 25 q 58 158 79 103 q 36 283 36 214 m 472 414 q 476 434 475 422 q 478 458 478 446 q 461 518 478 494 q 400 542 444 542 q 322 511 360 542 q 261 414 285 481 l 472 414 m 261 -317 q 218 -310 239 -317 q 181 -292 197 -304 q 154 -260 164 -279 q 144 -214 144 -240 q 155 -166 144 -189 q 183 -126 165 -143 q 226 -99 201 -110 q 278 -89 250 -89 q 321 -96 300 -89 q 358 -115 342 -103 q 385 -147 375 -128 q 394 -192 394 -167 q 356 -281 394 -246 q 261 -317 318 -317 z "},"ẻ":{"ha":697,"x_min":36,"x_max":658,"o":"m 36 283 q 71 458 36 379 q 162 592 106 536 q 288 680 218 649 q 428 711 358 711 q 535 690 492 711 q 606 633 579 669 q 646 549 633 597 q 658 447 658 501 q 653 394 658 421 q 642 345 649 368 q 630 305 636 322 q 619 281 624 288 l 244 281 q 288 181 247 211 q 389 150 328 150 q 450 164 418 150 q 506 194 482 178 l 583 56 q 476 5 542 26 q 325 -17 411 -17 q 208 4 261 -17 q 117 64 156 25 q 58 158 79 103 q 36 283 36 214 m 472 414 q 476 434 475 422 q 478 458 478 446 q 461 518 478 494 q 400 542 444 542 q 322 511 360 542 q 261 414 285 481 l 472 414 m 442 1050 q 543 1040 501 1049 q 610 1017 585 1032 q 647 983 636 1003 q 658 939 658 963 q 641 869 658 899 q 593 819 624 839 q 522 788 563 799 q 436 772 482 776 l 431 861 q 476 874 458 865 q 494 903 494 882 q 472 928 494 919 q 397 942 450 938 l 442 1050 z "},"ẽ":{"ha":697,"x_min":36,"x_max":733,"o":"m 36 283 q 71 458 36 379 q 162 592 106 536 q 288 680 218 649 q 428 711 358 711 q 535 690 492 711 q 606 633 579 669 q 646 549 633 597 q 658 447 658 501 q 653 394 658 421 q 642 345 649 368 q 630 305 636 322 q 619 281 624 288 l 244 281 q 288 181 247 211 q 389 150 328 150 q 450 164 418 150 q 506 194 482 178 l 583 56 q 476 5 542 26 q 325 -17 411 -17 q 208 4 261 -17 q 117 64 156 25 q 58 158 79 103 q 36 283 36 214 m 472 414 q 476 434 475 422 q 478 458 478 446 q 461 518 478 494 q 400 542 444 542 q 322 511 360 542 q 261 414 285 481 l 472 414 m 228 800 q 304 945 256 899 q 404 992 353 992 q 458 983 436 992 q 497 963 479 974 q 530 942 514 951 q 567 933 546 933 q 594 945 582 933 q 619 989 606 957 l 733 989 q 657 844 706 890 q 557 797 608 797 q 503 806 525 797 q 465 826 482 815 q 431 847 447 838 q 394 856 415 856 q 367 844 379 856 q 342 800 356 832 l 228 800 z "},"ế":{"ha":697,"x_min":36,"x_max":903,"o":"m 36 283 q 71 458 36 379 q 162 592 106 536 q 288 680 218 649 q 428 711 358 711 q 535 690 492 711 q 606 633 579 669 q 646 549 633 597 q 658 447 658 501 q 653 394 658 421 q 642 345 649 368 q 630 305 636 322 q 619 281 624 288 l 244 281 q 288 181 247 211 q 389 150 328 150 q 450 164 418 150 q 506 194 482 178 l 583 56 q 476 5 542 26 q 325 -17 411 -17 q 208 4 261 -17 q 117 64 156 25 q 58 158 79 103 q 36 283 36 214 m 472 414 q 476 434 475 422 q 478 458 478 446 q 461 518 478 494 q 400 542 444 542 q 322 511 360 542 q 261 414 285 481 l 472 414 m 400 978 l 575 978 l 644 797 l 517 797 l 475 883 l 469 883 l 397 797 l 256 797 l 400 978 m 742 1064 l 903 1064 l 742 897 l 622 897 l 742 1064 z "},"ề":{"ha":697,"x_min":36,"x_max":822,"o":"m 36 283 q 71 458 36 379 q 162 592 106 536 q 288 680 218 649 q 428 711 358 711 q 535 690 492 711 q 606 633 579 669 q 646 549 633 597 q 658 447 658 501 q 653 394 658 421 q 642 345 649 368 q 630 305 636 322 q 619 281 624 288 l 244 281 q 288 181 247 211 q 389 150 328 150 q 450 164 418 150 q 506 194 482 178 l 583 56 q 476 5 542 26 q 325 -17 411 -17 q 208 4 261 -17 q 117 64 156 25 q 58 158 79 103 q 36 283 36 214 m 472 414 q 476 434 475 422 q 478 458 478 446 q 461 518 478 494 q 400 542 444 542 q 322 511 360 542 q 261 414 285 481 l 472 414 m 822 897 l 700 897 l 606 1064 l 767 1064 l 822 897 m 400 978 l 575 978 l 644 797 l 517 797 l 475 883 l 469 883 l 397 797 l 256 797 l 400 978 z "},"ể":{"ha":697,"x_min":36,"x_max":853,"o":"m 36 283 q 71 458 36 379 q 162 592 106 536 q 288 680 218 649 q 428 711 358 711 q 535 690 492 711 q 606 633 579 669 q 646 549 633 597 q 658 447 658 501 q 653 394 658 421 q 642 345 649 368 q 630 305 636 322 q 619 281 624 288 l 244 281 q 288 181 247 211 q 389 150 328 150 q 450 164 418 150 q 506 194 482 178 l 583 56 q 476 5 542 26 q 325 -17 411 -17 q 208 4 261 -17 q 117 64 156 25 q 58 158 79 103 q 36 283 36 214 m 472 414 q 476 434 475 422 q 478 458 478 446 q 461 518 478 494 q 400 542 444 542 q 322 511 360 542 q 261 414 285 481 l 472 414 m 664 1117 q 811 1087 769 1113 q 853 1022 853 1061 q 838 956 853 982 q 796 913 822 929 q 734 887 769 896 q 658 872 699 878 l 658 944 q 692 960 682 951 q 703 989 703 968 q 687 1013 703 1004 q 625 1025 671 1021 l 664 1117 m 400 978 l 575 978 l 644 797 l 517 797 l 475 883 l 469 883 l 397 797 l 256 797 l 400 978 z "},"ễ":{"ha":697,"x_min":36,"x_max":722,"o":"m 36 283 q 71 458 36 379 q 162 592 106 536 q 288 680 218 649 q 428 711 358 711 q 535 690 492 711 q 606 633 579 669 q 646 549 633 597 q 658 447 658 501 q 653 394 658 421 q 642 345 649 368 q 630 305 636 322 q 619 281 624 288 l 244 281 q 288 181 247 211 q 389 150 328 150 q 450 164 418 150 q 506 194 482 178 l 583 56 q 476 5 542 26 q 325 -17 411 -17 q 208 4 261 -17 q 117 64 156 25 q 58 158 79 103 q 36 283 36 214 m 472 414 q 476 434 475 422 q 478 458 478 446 q 461 518 478 494 q 400 542 444 542 q 322 511 360 542 q 261 414 285 481 l 472 414 m 656 797 l 519 797 l 472 875 l 467 875 l 394 797 l 244 797 l 381 953 l 583 953 l 656 797 m 286 1003 q 357 1128 314 1089 q 444 1167 400 1167 q 485 1159 467 1167 q 517 1142 503 1151 q 545 1124 532 1132 q 572 1117 558 1117 q 602 1128 588 1117 q 628 1167 617 1139 l 722 1167 q 651 1042 694 1081 q 564 1003 608 1003 q 523 1010 540 1003 q 491 1028 506 1018 q 463 1045 476 1038 q 436 1053 450 1053 q 408 1042 421 1053 q 383 1003 394 1031 l 286 1003 z "},"ệ":{"ha":697,"x_min":36,"x_max":667,"o":"m 36 283 q 71 458 36 379 q 162 592 106 536 q 288 680 218 649 q 428 711 358 711 q 535 690 492 711 q 606 633 579 669 q 646 549 633 597 q 658 447 658 501 q 653 394 658 421 q 642 345 649 368 q 630 305 636 322 q 619 281 624 288 l 244 281 q 288 181 247 211 q 389 150 328 150 q 450 164 418 150 q 506 194 482 178 l 583 56 q 476 5 542 26 q 325 -17 411 -17 q 208 4 261 -17 q 117 64 156 25 q 58 158 79 103 q 36 283 36 214 m 472 414 q 476 434 475 422 q 478 458 478 446 q 461 518 478 494 q 400 542 444 542 q 322 511 360 542 q 261 414 285 481 l 472 414 m 406 1008 l 581 1008 l 667 797 l 525 797 l 481 903 l 475 903 l 389 797 l 236 797 l 406 1008 m 261 -317 q 218 -310 239 -317 q 181 -292 197 -304 q 154 -260 164 -279 q 144 -214 144 -240 q 155 -166 144 -189 q 183 -126 165 -143 q 226 -99 201 -110 q 278 -89 250 -89 q 321 -96 300 -89 q 358 -115 342 -103 q 385 -147 375 -128 q 394 -192 394 -167 q 356 -281 394 -246 q 261 -317 318 -317 z "},"ę":{"ha":697,"x_min":36,"x_max":658,"o":"m 231 -189 q 244 -125 231 -154 q 276 -74 258 -96 q 311 -37 294 -51 q 333 -17 328 -22 l 328 -17 q 209 4 263 -17 q 117 64 156 25 q 58 158 79 103 q 36 283 36 214 q 71 458 36 379 q 162 592 106 536 q 288 680 218 649 q 428 711 358 711 q 535 690 492 711 q 606 633 579 669 q 646 549 633 597 q 658 447 658 501 q 653 394 658 421 q 642 345 649 368 q 630 305 636 322 q 619 281 624 288 l 244 281 q 288 181 247 211 q 389 150 328 150 q 450 164 418 150 q 506 194 482 178 l 583 56 q 481 0 519 26 q 422 -49 443 -26 q 395 -92 401 -72 q 389 -125 389 -111 q 403 -154 389 -144 q 436 -164 417 -164 q 478 -150 454 -164 l 514 -239 q 438 -278 482 -262 q 356 -294 393 -294 q 266 -268 301 -294 q 231 -189 231 -242 m 472 414 q 476 434 475 422 q 478 458 478 446 q 461 518 478 494 q 400 542 444 542 q 322 511 360 542 q 261 414 285 481 l 472 414 z "},"ĝ":{"ha":767,"x_min":-22,"x_max":756,"o":"m 756 694 l 622 28 q 491 -211 590 -133 q 239 -289 392 -289 q 110 -265 181 -289 q -22 -192 40 -242 l 72 -44 q 156 -94 113 -74 q 244 -114 199 -114 q 408 8 367 -114 l 442 117 l 439 117 q 344 50 393 72 q 242 28 296 28 q 97 87 154 28 q 39 269 39 146 q 68 443 39 363 q 147 583 97 524 q 263 677 197 643 q 400 711 328 711 q 483 688 444 711 q 542 625 522 665 l 544 625 l 575 694 l 756 694 m 331 208 q 392 223 360 208 q 453 286 425 238 l 489 478 q 456 518 476 506 q 417 531 436 531 q 360 514 386 531 q 313 466 333 497 q 281 392 293 435 q 269 297 269 349 q 286 230 269 251 q 331 208 303 208 m 403 1008 l 578 1008 l 664 797 l 522 797 l 478 903 l 472 903 l 386 797 l 233 797 l 403 1008 z "},"ğ":{"ha":767,"x_min":-22,"x_max":756,"o":"m 756 694 l 622 28 q 491 -211 590 -133 q 239 -289 392 -289 q 110 -265 181 -289 q -22 -192 40 -242 l 72 -44 q 156 -94 113 -74 q 244 -114 199 -114 q 408 8 367 -114 l 442 117 l 439 117 q 344 50 393 72 q 242 28 296 28 q 97 87 154 28 q 39 269 39 146 q 68 443 39 363 q 147 583 97 524 q 263 677 197 643 q 400 711 328 711 q 483 688 444 711 q 542 625 522 665 l 544 625 l 575 694 l 756 694 m 331 208 q 392 223 360 208 q 453 286 425 238 l 489 478 q 456 518 476 506 q 417 531 436 531 q 360 514 386 531 q 313 466 333 497 q 281 392 293 435 q 269 297 269 349 q 286 230 269 251 q 331 208 303 208 m 447 797 q 369 813 401 797 q 317 856 336 829 q 294 919 299 883 q 297 994 289 954 l 414 994 q 422 938 410 961 q 469 914 433 914 q 526 938 506 914 q 558 994 547 961 l 681 994 q 651 919 671 954 q 603 856 632 883 q 534 813 574 829 q 447 797 494 797 z "},"ġ":{"ha":767,"x_min":-22,"x_max":756,"o":"m 756 694 l 622 28 q 491 -211 590 -133 q 239 -289 392 -289 q 110 -265 181 -289 q -22 -192 40 -242 l 72 -44 q 156 -94 113 -74 q 244 -114 199 -114 q 408 8 367 -114 l 442 117 l 439 117 q 344 50 393 72 q 242 28 296 28 q 97 87 154 28 q 39 269 39 146 q 68 443 39 363 q 147 583 97 524 q 263 677 197 643 q 400 711 328 711 q 483 688 444 711 q 542 625 522 665 l 544 625 l 575 694 l 756 694 m 331 208 q 392 223 360 208 q 453 286 425 238 l 489 478 q 456 518 476 506 q 417 531 436 531 q 360 514 386 531 q 313 466 333 497 q 281 392 293 435 q 269 297 269 349 q 286 230 269 251 q 331 208 303 208 m 458 783 q 415 790 436 783 q 378 808 394 796 q 351 840 361 821 q 342 886 342 860 q 352 934 342 911 q 381 974 363 957 q 423 1001 399 990 q 475 1011 447 1011 q 518 1004 497 1011 q 556 985 539 997 q 582 953 572 972 q 592 908 592 933 q 553 819 592 854 q 458 783 515 783 z "},"ģ":{"ha":767,"x_min":-22,"x_max":756,"o":"m 756 694 l 622 28 q 491 -211 590 -133 q 239 -289 392 -289 q 110 -265 181 -289 q -22 -192 40 -242 l 72 -44 q 156 -94 113 -74 q 244 -114 199 -114 q 408 8 367 -114 l 442 117 l 439 117 q 344 50 393 72 q 242 28 296 28 q 97 87 154 28 q 39 269 39 146 q 68 443 39 363 q 147 583 97 524 q 263 677 197 643 q 400 711 328 711 q 483 688 444 711 q 542 625 522 665 l 544 625 l 575 694 l 756 694 m 331 208 q 392 223 360 208 q 453 286 425 238 l 489 478 q 456 518 476 506 q 417 531 436 531 q 360 514 386 531 q 313 466 333 497 q 281 392 293 435 q 269 297 269 349 q 286 230 269 251 q 331 208 303 208 m 493 756 q 384 792 422 767 q 346 867 346 818 q 367 940 346 911 q 426 985 389 968 q 511 1008 463 1001 q 615 1017 560 1014 l 621 931 q 528 915 556 926 q 501 875 501 903 q 549 831 501 847 l 493 756 z "},"ǧ":{"ha":767,"x_min":-22,"x_max":756,"o":"m 756 694 l 622 28 q 491 -211 590 -133 q 239 -289 392 -289 q 110 -265 181 -289 q -22 -192 40 -242 l 72 -44 q 156 -94 113 -74 q 244 -114 199 -114 q 408 8 367 -114 l 442 117 l 439 117 q 344 50 393 72 q 242 28 296 28 q 97 87 154 28 q 39 269 39 146 q 68 443 39 363 q 147 583 97 524 q 263 677 197 643 q 400 711 328 711 q 483 688 444 711 q 542 625 522 665 l 544 625 l 575 694 l 756 694 m 331 208 q 392 223 360 208 q 453 286 425 238 l 489 478 q 456 518 476 506 q 417 531 436 531 q 360 514 386 531 q 313 466 333 497 q 281 392 293 435 q 269 297 269 349 q 286 230 269 251 q 331 208 303 208 m 539 797 l 364 797 l 278 1008 l 419 1008 l 464 903 l 469 903 l 556 1008 l 708 1008 l 539 797 z "},"ḡ":{"ha":767,"x_min":-22,"x_max":756,"o":"m 756 694 l 622 28 q 491 -211 590 -133 q 239 -289 392 -289 q 110 -265 181 -289 q -22 -192 40 -242 l 72 -44 q 156 -94 113 -74 q 244 -114 199 -114 q 408 8 367 -114 l 442 117 l 439 117 q 344 50 393 72 q 242 28 296 28 q 97 87 154 28 q 39 269 39 146 q 68 443 39 363 q 147 583 97 524 q 263 677 197 643 q 400 711 328 711 q 483 688 444 711 q 542 625 522 665 l 544 625 l 575 694 l 756 694 m 331 208 q 392 223 360 208 q 453 286 425 238 l 489 478 q 456 518 476 506 q 417 531 436 531 q 360 514 386 531 q 313 466 333 497 q 281 392 293 435 q 269 297 269 349 q 286 230 269 251 q 331 208 303 208 m 289 958 l 669 958 l 642 819 l 261 819 l 289 958 z "},"ĥ":{"ha":772,"x_min":11,"x_max":728,"o":"m 206 967 l 428 967 l 381 742 l 347 619 l 353 619 q 448 684 394 657 q 564 711 501 711 q 689 666 650 711 q 728 531 728 621 q 726 481 728 507 q 717 431 724 456 l 631 0 l 408 0 l 489 403 q 497 437 493 422 q 500 464 500 451 q 485 508 500 493 q 442 522 469 522 q 385 503 413 522 q 319 444 357 485 l 233 0 l 11 0 l 206 967 m 251 1219 l 468 1219 l 563 1050 l 401 1050 l 349 1133 l 346 1133 l 265 1050 l 90 1050 l 251 1219 z "},"ḥ":{"ha":772,"x_min":11,"x_max":728,"o":"m 206 967 l 428 967 l 381 742 l 347 619 l 353 619 q 448 684 394 657 q 564 711 501 711 q 689 666 650 711 q 728 531 728 621 q 726 481 728 507 q 717 431 724 456 l 631 0 l 408 0 l 489 403 q 497 437 493 422 q 500 464 500 451 q 485 508 500 493 q 442 522 469 522 q 385 503 413 522 q 319 444 357 485 l 233 0 l 11 0 l 206 967 m 281 -317 q 238 -310 258 -317 q 200 -292 217 -304 q 174 -260 183 -279 q 164 -214 164 -240 q 174 -166 164 -189 q 203 -126 185 -143 q 245 -99 221 -110 q 297 -89 269 -89 q 340 -96 319 -89 q 378 -115 361 -103 q 404 -147 394 -128 q 414 -192 414 -167 q 376 -281 414 -246 q 281 -317 338 -317 z "},"ḫ":{"ha":772,"x_min":11,"x_max":728,"o":"m 206 967 l 428 967 l 381 742 l 347 619 l 353 619 q 448 684 394 657 q 564 711 501 711 q 689 666 650 711 q 728 531 728 621 q 726 481 728 507 q 717 431 724 456 l 631 0 l 408 0 l 489 403 q 497 437 493 422 q 500 464 500 451 q 485 508 500 493 q 442 522 469 522 q 385 503 413 522 q 319 444 357 485 l 233 0 l 11 0 l 206 967 m 272 -289 q 194 -273 226 -289 q 142 -230 161 -257 q 119 -167 124 -203 q 122 -92 114 -132 l 239 -92 q 247 -149 235 -125 q 294 -172 258 -172 q 351 -149 331 -172 q 383 -92 372 -125 l 506 -92 q 476 -167 496 -132 q 428 -230 457 -203 q 359 -273 399 -257 q 272 -289 319 -289 z "},"ħ":{"ha":772,"x_min":11,"x_max":722,"o":"m 347 592 q 442 656 389 629 q 558 683 496 683 q 683 638 644 683 q 722 503 722 593 q 720 453 722 479 q 711 403 718 428 l 631 0 l 408 0 l 483 375 q 491 409 488 394 q 494 436 494 424 q 479 480 494 465 q 436 494 464 494 q 379 476 407 494 q 314 417 351 457 l 233 0 l 11 0 l 165 767 l 72 767 l 92 864 l 186 872 l 206 967 l 428 967 l 408 872 l 625 872 l 603 767 l 386 767 l 375 714 l 342 592 l 347 592 z "},"ì":{"ha":383,"x_min":11,"x_max":383,"o":"m 150 694 l 372 694 l 233 0 l 11 0 l 150 694 m 103 1008 l 306 1008 l 383 797 l 231 797 l 103 1008 z "},"í":{"ha":383,"x_min":11,"x_max":531,"o":"m 150 694 l 372 694 l 233 0 l 11 0 l 150 694 m 311 1008 l 531 1008 l 317 797 l 150 797 l 311 1008 z "},"î":{"ha":383,"x_min":11,"x_max":489,"o":"m 150 694 l 372 694 l 233 0 l 11 0 l 150 694 m 228 1008 l 403 1008 l 489 797 l 347 797 l 303 903 l 297 903 l 211 797 l 58 797 l 228 1008 z "},"ĩ":{"ha":383,"x_min":11,"x_max":556,"o":"m 150 694 l 372 694 l 233 0 l 11 0 l 150 694 m 50 800 q 126 945 78 899 q 226 992 175 992 q 280 983 258 992 q 319 963 301 974 q 352 942 336 951 q 389 933 368 933 q 416 945 404 933 q 442 989 428 957 l 556 989 q 479 844 528 890 q 379 797 431 797 q 326 806 347 797 q 287 826 304 815 q 253 847 269 838 q 217 856 238 856 q 190 844 201 856 q 164 800 178 832 l 50 800 z "},"ï":{"ha":383,"x_min":11,"x_max":533,"o":"m 150 694 l 372 694 l 233 0 l 11 0 l 150 694 m 139 786 q 74 810 100 786 q 47 878 47 833 q 56 921 47 900 q 81 957 65 942 q 117 982 96 972 q 164 992 139 992 q 229 967 203 992 q 256 900 256 943 q 222 819 256 851 q 139 786 189 786 m 417 786 q 351 810 378 786 q 325 878 325 833 q 334 921 325 900 q 358 957 343 942 q 395 982 374 972 q 442 992 417 992 q 507 967 481 992 q 533 900 533 943 q 500 819 533 851 q 417 786 467 786 z "},"ī":{"ha":383,"x_min":11,"x_max":494,"o":"m 150 694 l 372 694 l 233 0 l 11 0 l 150 694 m 114 958 l 494 958 l 467 819 l 86 819 l 114 958 z "},"ǐ":{"ha":383,"x_min":11,"x_max":533,"o":"m 150 694 l 372 694 l 233 0 l 11 0 l 150 694 m 364 797 l 189 797 l 103 1008 l 244 1008 l 289 903 l 294 903 l 381 1008 l 533 1008 l 364 797 z "},"ỉ":{"ha":383,"x_min":11,"x_max":481,"o":"m 150 694 l 372 694 l 233 0 l 11 0 l 150 694 m 264 1050 q 365 1040 324 1049 q 433 1017 407 1032 q 469 983 458 1003 q 481 939 481 963 q 463 869 481 899 q 415 819 446 839 q 344 788 385 799 q 258 772 304 776 l 253 861 q 299 874 281 865 q 317 903 317 882 q 294 928 317 919 q 219 942 272 938 l 264 1050 z "},"ị":{"ha":383,"x_min":-36,"x_max":431,"o":"m 150 694 l 372 694 l 233 0 l 11 0 l 150 694 m 297 783 q 254 790 275 783 q 217 808 233 796 q 190 840 200 821 q 181 886 181 860 q 191 934 181 911 q 219 974 201 957 q 262 1001 238 990 q 314 1011 286 1011 q 357 1004 336 1011 q 394 985 378 997 q 421 953 411 972 q 431 908 431 933 q 392 819 431 854 q 297 783 354 783 m 81 -317 q 38 -310 58 -317 q 0 -292 17 -304 q -26 -260 -17 -279 q -36 -214 -36 -240 q -26 -166 -36 -189 q 3 -126 -15 -143 q 45 -99 21 -110 q 97 -89 69 -89 q 140 -96 119 -89 q 178 -115 161 -103 q 204 -147 194 -128 q 214 -192 214 -167 q 176 -281 214 -246 q 81 -317 138 -317 z "},"į":{"ha":383,"x_min":-53,"x_max":431,"o":"m 150 694 l 372 694 l 233 0 q 134 -56 163 -24 q 106 -125 106 -89 q 119 -154 106 -144 q 153 -164 133 -164 q 194 -150 171 -164 l 231 -239 q 154 -278 199 -262 q 72 -294 110 -294 q -17 -268 18 -294 q -53 -189 -53 -242 q -38 -124 -53 -154 q -3 -69 -24 -94 q 38 -27 17 -44 q 75 0 60 -10 l 11 0 l 150 694 m 297 783 q 254 790 275 783 q 217 808 233 796 q 190 840 200 821 q 181 886 181 860 q 191 934 181 911 q 219 974 201 957 q 262 1001 238 990 q 314 1011 286 1011 q 357 1004 336 1011 q 394 985 378 997 q 421 953 411 972 q 431 908 431 933 q 392 819 431 854 q 297 783 354 783 z "},"ı":{"ha":383,"x_min":11,"x_max":372,"o":"m 150 694 l 372 694 l 233 0 l 11 0 l 150 694 z "},"ĵ":{"ha":386,"x_min":-186,"x_max":489,"o":"m 236 3 q 204 -99 225 -51 q 150 -183 183 -147 q 69 -240 117 -219 q -42 -261 22 -261 q -114 -254 -79 -261 q -186 -228 -149 -247 l -119 -69 q -61 -86 -90 -86 q -12 -63 -28 -86 q 17 14 4 -40 l 153 694 l 375 694 l 236 3 m 228 1008 l 403 1008 l 489 797 l 347 797 l 303 903 l 297 903 l 211 797 l 58 797 l 228 1008 z "},"ķ":{"ha":756,"x_min":11,"x_max":800,"o":"m 206 967 l 428 967 l 322 444 l 328 444 l 556 694 l 800 694 l 514 386 l 678 0 l 456 0 l 361 258 l 267 164 l 233 0 l 11 0 l 206 967 m 286 -50 q 395 -87 357 -61 q 433 -161 433 -112 q 412 -234 433 -206 q 353 -279 390 -262 q 268 -303 317 -296 q 164 -311 219 -310 l 158 -225 q 251 -209 224 -221 q 278 -169 278 -197 q 231 -125 278 -142 l 286 -50 z "},"ĸ":{"ha":756,"x_min":11,"x_max":800,"o":"m 147 694 l 369 694 l 322 444 l 328 444 l 556 694 l 800 694 l 514 386 l 678 0 l 456 0 l 361 258 l 267 164 l 233 0 l 11 0 l 147 694 z "},"ĺ":{"ha":397,"x_min":47,"x_max":599,"o":"m 206 967 l 428 967 l 278 222 q 275 206 275 211 q 275 196 275 201 q 283 169 275 176 q 303 161 292 161 q 315 161 310 161 q 328 164 319 161 l 319 0 q 272 -12 300 -7 q 206 -17 243 -17 q 83 24 119 -17 q 47 136 47 65 q 49 179 47 157 q 58 231 51 201 l 206 967 m 360 1219 l 599 1219 l 401 1050 l 221 1050 l 360 1219 z "},"ľ":{"ha":411,"x_min":47,"x_max":628,"o":"m 206 967 l 428 967 l 278 222 q 275 206 275 211 q 275 196 275 201 q 283 169 275 176 q 303 161 292 161 q 315 161 310 161 q 328 164 319 161 l 319 0 q 272 -12 300 -7 q 206 -17 243 -17 q 83 24 119 -17 q 47 136 47 65 q 49 179 47 157 q 58 231 51 201 l 206 967 m 433 761 l 489 1075 l 628 1075 l 606 972 l 528 761 l 433 761 z "},"ŀ":{"ha":633,"x_min":47,"x_max":664,"o":"m 206 967 l 428 967 l 278 222 q 275 206 275 211 q 275 196 275 201 q 283 169 275 176 q 303 161 292 161 q 315 161 310 161 q 328 164 319 161 l 319 0 q 272 -12 300 -7 q 206 -17 243 -17 q 83 24 119 -17 q 47 136 47 65 q 49 179 47 157 q 58 231 51 201 l 206 967 m 511 331 q 431 363 461 331 q 400 447 400 394 q 411 503 400 475 q 442 553 422 531 q 490 589 463 575 q 553 603 518 603 q 633 569 603 603 q 664 486 664 536 q 653 429 664 457 q 622 379 642 401 q 574 344 601 357 q 511 331 546 331 z "},"ļ":{"ha":397,"x_min":-58,"x_max":428,"o":"m 206 967 l 428 967 l 278 222 q 275 206 275 211 q 275 196 275 201 q 283 169 275 176 q 303 161 292 161 q 315 161 310 161 q 328 164 319 161 l 319 0 q 272 -12 300 -7 q 206 -17 243 -17 q 83 24 119 -17 q 47 136 47 65 q 49 179 47 157 q 58 231 51 201 l 206 967 m 69 -50 q 178 -87 140 -61 q 217 -161 217 -112 q 195 -234 217 -206 q 137 -279 174 -262 q 51 -303 100 -296 q -53 -311 3 -310 l -58 -225 q 34 -209 7 -221 q 61 -169 61 -197 q 14 -125 61 -142 l 69 -50 z "},"ḷ":{"ha":397,"x_min":-42,"x_max":428,"o":"m 206 967 l 428 967 l 278 222 q 275 206 275 211 q 275 196 275 201 q 283 169 275 176 q 303 161 292 161 q 315 161 310 161 q 328 164 319 161 l 319 0 q 272 -12 300 -7 q 206 -17 243 -17 q 83 24 119 -17 q 47 136 47 65 q 49 179 47 157 q 58 231 51 201 l 206 967 m 75 -317 q 32 -310 53 -317 q -6 -292 11 -304 q -32 -260 -22 -279 q -42 -214 -42 -240 q -31 -166 -42 -189 q -3 -126 -21 -143 q 40 -99 15 -110 q 92 -89 64 -89 q 135 -96 114 -89 q 172 -115 156 -103 q 199 -147 189 -128 q 208 -192 208 -167 q 170 -281 208 -246 q 75 -317 132 -317 z "},"ḹ":{"ha":397,"x_min":-42,"x_max":553,"o":"m 206 967 l 428 967 l 278 222 q 275 206 275 211 q 275 196 275 201 q 283 169 275 176 q 303 161 292 161 q 315 161 310 161 q 328 164 319 161 l 319 0 q 272 -12 300 -7 q 206 -17 243 -17 q 83 24 119 -17 q 47 136 47 65 q 49 179 47 157 q 58 231 51 201 l 206 967 m 172 1247 l 553 1247 l 525 1108 l 144 1108 l 172 1247 m 75 -317 q 32 -310 53 -317 q -6 -292 11 -304 q -32 -260 -22 -279 q -42 -214 -42 -240 q -31 -166 -42 -189 q -3 -126 -21 -143 q 40 -99 15 -110 q 92 -89 64 -89 q 135 -96 114 -89 q 172 -115 156 -103 q 199 -147 189 -128 q 208 -192 208 -167 q 170 -281 208 -246 q 75 -317 132 -317 z "},"ḻ":{"ha":397,"x_min":-119,"x_max":428,"o":"m 206 967 l 428 967 l 278 222 q 275 206 275 211 q 275 196 275 201 q 283 169 275 176 q 303 161 292 161 q 315 161 310 161 q 328 164 319 161 l 319 0 q 272 -12 300 -7 q 206 -17 243 -17 q 83 24 119 -17 q 47 136 47 65 q 49 179 47 157 q 58 231 51 201 l 206 967 m -92 -114 l 289 -114 l 261 -253 l -119 -253 l -92 -114 z "},"ł":{"ha":414,"x_min":11,"x_max":478,"o":"m 294 222 q 292 206 292 211 q 292 196 292 201 q 300 169 292 176 q 319 161 308 161 q 331 161 326 161 q 344 164 336 161 l 336 0 q 288 -12 317 -7 q 222 -17 260 -17 q 100 24 136 -17 q 64 136 64 65 q 66 179 64 157 q 75 231 68 201 l 104 375 l 11 325 l 50 500 l 139 550 l 222 967 l 444 967 l 382 660 l 478 714 l 444 539 l 347 483 l 294 222 z "},"ṃ":{"ha":1164,"x_min":11,"x_max":1111,"o":"m 147 694 l 328 694 l 328 606 l 333 606 q 438 679 382 647 q 556 711 494 711 q 665 680 631 711 q 717 594 700 649 q 828 678 771 644 q 947 711 886 711 q 1072 666 1033 711 q 1111 531 1111 621 q 1100 431 1111 483 l 1014 0 l 792 0 l 872 403 q 880 437 876 422 q 883 464 883 451 q 868 508 883 493 q 825 522 853 522 q 711 444 785 522 l 622 0 l 400 0 l 481 403 q 488 437 485 422 q 492 464 492 451 q 476 508 492 493 q 436 522 461 522 q 319 444 393 522 l 233 0 l 11 0 l 147 694 m 475 -317 q 432 -310 453 -317 q 394 -292 411 -304 q 368 -260 378 -279 q 358 -214 358 -240 q 369 -166 358 -189 q 397 -126 379 -143 q 440 -99 415 -110 q 492 -89 464 -89 q 535 -96 514 -89 q 572 -115 556 -103 q 599 -147 589 -128 q 608 -192 608 -167 q 570 -281 608 -246 q 475 -317 532 -317 z "},"ń":{"ha":781,"x_min":11,"x_max":764,"o":"m 147 694 l 328 694 l 328 606 l 333 606 q 440 679 382 647 q 564 711 497 711 q 689 666 650 711 q 728 531 728 621 q 717 431 728 483 l 631 0 l 408 0 l 489 403 q 497 437 493 422 q 500 464 500 451 q 485 508 500 493 q 442 522 469 522 q 385 503 413 522 q 319 444 357 485 l 233 0 l 11 0 l 147 694 m 544 1008 l 764 1008 l 550 797 l 383 797 l 544 1008 z "},"ň":{"ha":781,"x_min":11,"x_max":767,"o":"m 147 694 l 328 694 l 328 606 l 333 606 q 440 679 382 647 q 564 711 497 711 q 689 666 650 711 q 728 531 728 621 q 717 431 728 483 l 631 0 l 408 0 l 489 403 q 497 437 493 422 q 500 464 500 451 q 485 508 500 493 q 442 522 469 522 q 385 503 413 522 q 319 444 357 485 l 233 0 l 11 0 l 147 694 m 597 797 l 422 797 l 336 1008 l 478 1008 l 522 903 l 528 903 l 614 1008 l 767 1008 l 597 797 z "},"ñ":{"ha":781,"x_min":11,"x_max":789,"o":"m 147 694 l 328 694 l 328 606 l 333 606 q 440 679 382 647 q 564 711 497 711 q 689 666 650 711 q 728 531 728 621 q 717 431 728 483 l 631 0 l 408 0 l 489 403 q 497 437 493 422 q 500 464 500 451 q 485 508 500 493 q 442 522 469 522 q 385 503 413 522 q 319 444 357 485 l 233 0 l 11 0 l 147 694 m 283 800 q 360 945 311 899 q 460 992 408 992 q 513 983 492 992 q 552 963 535 974 q 585 942 569 951 q 622 933 601 933 q 649 945 638 933 q 675 989 661 957 l 789 989 q 713 844 761 890 q 613 797 664 797 q 559 806 581 797 q 520 826 538 815 q 487 847 503 838 q 450 856 471 856 q 423 844 435 856 q 397 800 411 832 l 283 800 z "},"ņ":{"ha":781,"x_min":11,"x_max":728,"o":"m 147 694 l 328 694 l 328 606 l 333 606 q 440 679 382 647 q 564 711 497 711 q 689 666 650 711 q 728 531 728 621 q 717 431 728 483 l 631 0 l 408 0 l 489 403 q 497 437 493 422 q 500 464 500 451 q 485 508 500 493 q 442 522 469 522 q 385 503 413 522 q 319 444 357 485 l 233 0 l 11 0 l 147 694 m 281 -50 q 390 -87 351 -61 q 428 -161 428 -112 q 406 -234 428 -206 q 348 -279 385 -262 q 263 -303 311 -296 q 158 -311 214 -310 l 153 -225 q 245 -209 218 -221 q 272 -169 272 -197 q 225 -125 272 -142 l 281 -50 z "},"ṅ":{"ha":781,"x_min":11,"x_max":728,"o":"m 147 694 l 328 694 l 328 606 l 333 606 q 440 679 382 647 q 564 711 497 711 q 689 666 650 711 q 728 531 728 621 q 717 431 728 483 l 631 0 l 408 0 l 489 403 q 497 437 493 422 q 500 464 500 451 q 485 508 500 493 q 442 522 469 522 q 385 503 413 522 q 319 444 357 485 l 233 0 l 11 0 l 147 694 m 517 783 q 474 790 494 783 q 436 808 453 796 q 410 840 419 821 q 400 886 400 860 q 410 934 400 911 q 439 974 421 957 q 481 1001 457 990 q 533 1011 506 1011 q 576 1004 556 1011 q 614 985 597 997 q 640 953 631 972 q 650 908 650 933 q 612 819 650 854 q 517 783 574 783 z "},"ṇ":{"ha":781,"x_min":11,"x_max":728,"o":"m 147 694 l 328 694 l 328 606 l 333 606 q 440 679 382 647 q 564 711 497 711 q 689 666 650 711 q 728 531 728 621 q 717 431 728 483 l 631 0 l 408 0 l 489 403 q 497 437 493 422 q 500 464 500 451 q 485 508 500 493 q 442 522 469 522 q 385 503 413 522 q 319 444 357 485 l 233 0 l 11 0 l 147 694 m 286 -317 q 243 -310 264 -317 q 206 -292 222 -304 q 179 -260 189 -279 q 169 -214 169 -240 q 180 -166 169 -189 q 208 -126 190 -143 q 251 -99 226 -110 q 303 -89 275 -89 q 346 -96 325 -89 q 383 -115 367 -103 q 410 -147 400 -128 q 419 -192 419 -167 q 381 -281 419 -246 q 286 -317 343 -317 z "},"ṉ":{"ha":781,"x_min":11,"x_max":728,"o":"m 147 694 l 328 694 l 328 606 l 333 606 q 440 679 382 647 q 564 711 497 711 q 689 666 650 711 q 728 531 728 621 q 717 431 728 483 l 631 0 l 408 0 l 489 403 q 497 437 493 422 q 500 464 500 451 q 485 508 500 493 q 442 522 469 522 q 385 503 413 522 q 319 444 357 485 l 233 0 l 11 0 l 147 694 m 119 -114 l 500 -114 l 472 -253 l 92 -253 l 119 -114 z "},"ŉ":{"ha":1186,"x_min":147,"x_max":1139,"o":"m 147 578 q 219 613 188 592 q 272 658 250 635 q 304 704 293 682 q 317 742 315 726 l 308 742 q 228 767 260 742 q 197 839 197 793 q 232 928 197 889 q 328 967 267 967 q 411 927 381 967 q 442 817 442 888 q 420 694 442 749 q 363 597 399 639 q 280 526 328 556 q 181 483 232 497 l 147 578 m 558 694 l 739 694 l 739 606 l 744 606 q 851 679 793 647 q 975 711 908 711 q 1100 666 1061 711 q 1139 531 1139 621 q 1128 431 1139 483 l 1042 0 l 819 0 l 900 403 q 908 437 904 422 q 911 464 911 451 q 896 508 911 493 q 853 522 881 522 q 796 503 824 522 q 731 444 768 485 l 644 0 l 422 0 l 558 694 z "},"ò":{"ha":750,"x_min":36,"x_max":708,"o":"m 314 -17 q 200 4 251 -17 q 113 63 149 25 q 56 154 76 101 q 36 272 36 207 q 71 455 36 374 q 162 593 106 536 q 288 681 218 650 q 431 711 358 711 q 544 690 493 711 q 632 631 596 669 q 688 540 668 593 q 708 422 708 486 q 674 240 708 321 q 583 101 639 158 q 456 14 526 44 q 314 -17 386 -17 m 406 533 q 349 514 375 533 q 303 460 322 494 q 272 378 283 426 q 261 275 261 331 q 280 192 261 222 q 339 161 299 161 q 396 181 369 161 q 442 234 422 200 q 472 315 461 268 q 483 419 483 363 q 465 503 483 472 q 406 533 446 533 m 292 1008 l 494 1008 l 572 797 l 419 797 l 292 1008 z "},"ó":{"ha":750,"x_min":36,"x_max":719,"o":"m 314 -17 q 200 4 251 -17 q 113 63 149 25 q 56 154 76 101 q 36 272 36 207 q 71 455 36 374 q 162 593 106 536 q 288 681 218 650 q 431 711 358 711 q 544 690 493 711 q 632 631 596 669 q 688 540 668 593 q 708 422 708 486 q 674 240 708 321 q 583 101 639 158 q 456 14 526 44 q 314 -17 386 -17 m 406 533 q 349 514 375 533 q 303 460 322 494 q 272 378 283 426 q 261 275 261 331 q 280 192 261 222 q 339 161 299 161 q 396 181 369 161 q 442 234 422 200 q 472 315 461 268 q 483 419 483 363 q 465 503 483 472 q 406 533 446 533 m 500 1008 l 719 1008 l 506 797 l 339 797 l 500 1008 z "},"ô":{"ha":750,"x_min":36,"x_max":708,"o":"m 314 -17 q 200 4 251 -17 q 113 63 149 25 q 56 154 76 101 q 36 272 36 207 q 71 455 36 374 q 162 593 106 536 q 288 681 218 650 q 431 711 358 711 q 544 690 493 711 q 632 631 596 669 q 688 540 668 593 q 708 422 708 486 q 674 240 708 321 q 583 101 639 158 q 456 14 526 44 q 314 -17 386 -17 m 406 533 q 349 514 375 533 q 303 460 322 494 q 272 378 283 426 q 261 275 261 331 q 280 192 261 222 q 339 161 299 161 q 396 181 369 161 q 442 234 422 200 q 472 315 461 268 q 483 419 483 363 q 465 503 483 472 q 406 533 446 533 m 417 1008 l 592 1008 l 678 797 l 536 797 l 492 903 l 486 903 l 400 797 l 247 797 l 417 1008 z "},"õ":{"ha":750,"x_min":36,"x_max":744,"o":"m 314 -17 q 200 4 251 -17 q 113 63 149 25 q 56 154 76 101 q 36 272 36 207 q 71 455 36 374 q 162 593 106 536 q 288 681 218 650 q 431 711 358 711 q 544 690 493 711 q 632 631 596 669 q 688 540 668 593 q 708 422 708 486 q 674 240 708 321 q 583 101 639 158 q 456 14 526 44 q 314 -17 386 -17 m 406 533 q 349 514 375 533 q 303 460 322 494 q 272 378 283 426 q 261 275 261 331 q 280 192 261 222 q 339 161 299 161 q 396 181 369 161 q 442 234 422 200 q 472 315 461 268 q 483 419 483 363 q 465 503 483 472 q 406 533 446 533 m 239 800 q 315 945 267 899 q 415 992 364 992 q 469 983 447 992 q 508 963 490 974 q 541 942 525 951 q 578 933 557 933 q 605 945 593 933 q 631 989 617 957 l 744 989 q 668 844 717 890 q 568 797 619 797 q 515 806 536 797 q 476 826 493 815 q 442 847 458 838 q 406 856 426 856 q 378 844 390 856 q 353 800 367 832 l 239 800 z "},"ö":{"ha":750,"x_min":36,"x_max":722,"o":"m 314 -17 q 200 4 251 -17 q 113 63 149 25 q 56 154 76 101 q 36 272 36 207 q 71 455 36 374 q 162 593 106 536 q 288 681 218 650 q 431 711 358 711 q 544 690 493 711 q 632 631 596 669 q 688 540 668 593 q 708 422 708 486 q 674 240 708 321 q 583 101 639 158 q 456 14 526 44 q 314 -17 386 -17 m 406 533 q 349 514 375 533 q 303 460 322 494 q 272 378 283 426 q 261 275 261 331 q 280 192 261 222 q 339 161 299 161 q 396 181 369 161 q 442 234 422 200 q 472 315 461 268 q 483 419 483 363 q 465 503 483 472 q 406 533 446 533 m 328 786 q 263 810 289 786 q 236 878 236 833 q 245 921 236 900 q 269 957 254 942 q 306 982 285 972 q 353 992 328 992 q 418 967 392 992 q 444 900 444 943 q 411 819 444 851 q 328 786 378 786 m 606 786 q 540 810 567 786 q 514 878 514 833 q 523 921 514 900 q 547 957 532 942 q 584 982 563 972 q 631 992 606 992 q 696 967 669 992 q 722 900 722 943 q 689 819 722 851 q 606 786 656 786 z "},"ō":{"ha":750,"x_min":36,"x_max":708,"o":"m 314 -17 q 200 4 251 -17 q 113 63 149 25 q 56 154 76 101 q 36 272 36 207 q 71 455 36 374 q 162 593 106 536 q 288 681 218 650 q 431 711 358 711 q 544 690 493 711 q 632 631 596 669 q 688 540 668 593 q 708 422 708 486 q 674 240 708 321 q 583 101 639 158 q 456 14 526 44 q 314 -17 386 -17 m 406 533 q 349 514 375 533 q 303 460 322 494 q 272 378 283 426 q 261 275 261 331 q 280 192 261 222 q 339 161 299 161 q 396 181 369 161 q 442 234 422 200 q 472 315 461 268 q 483 419 483 363 q 465 503 483 472 q 406 533 446 533 m 303 958 l 683 958 l 656 819 l 275 819 l 303 958 z "},"ő":{"ha":750,"x_min":36,"x_max":831,"o":"m 314 -17 q 200 4 251 -17 q 113 63 149 25 q 56 154 76 101 q 36 272 36 207 q 71 455 36 374 q 162 593 106 536 q 288 681 218 650 q 431 711 358 711 q 544 690 493 711 q 632 631 596 669 q 688 540 668 593 q 708 422 708 486 q 674 240 708 321 q 583 101 639 158 q 456 14 526 44 q 314 -17 386 -17 m 406 533 q 349 514 375 533 q 303 460 322 494 q 272 378 283 426 q 261 275 261 331 q 280 192 261 222 q 339 161 299 161 q 396 181 369 161 q 442 234 422 200 q 472 315 461 268 q 483 419 483 363 q 465 503 483 472 q 406 533 446 533 m 417 1008 l 592 1008 l 419 797 l 278 797 l 417 1008 m 656 1008 l 831 1008 l 658 797 l 517 797 l 656 1008 z "},"ǒ":{"ha":750,"x_min":36,"x_max":722,"o":"m 314 -17 q 200 4 251 -17 q 113 63 149 25 q 56 154 76 101 q 36 272 36 207 q 71 455 36 374 q 162 593 106 536 q 288 681 218 650 q 431 711 358 711 q 544 690 493 711 q 632 631 596 669 q 688 540 668 593 q 708 422 708 486 q 674 240 708 321 q 583 101 639 158 q 456 14 526 44 q 314 -17 386 -17 m 406 533 q 349 514 375 533 q 303 460 322 494 q 272 378 283 426 q 261 275 261 331 q 280 192 261 222 q 339 161 299 161 q 396 181 369 161 q 442 234 422 200 q 472 315 461 268 q 483 419 483 363 q 465 503 483 472 q 406 533 446 533 m 553 797 l 378 797 l 292 1008 l 433 1008 l 478 903 l 483 903 l 569 1008 l 722 1008 l 553 797 z "},"ọ":{"ha":750,"x_min":36,"x_max":708,"o":"m 314 -17 q 200 4 251 -17 q 113 63 149 25 q 56 154 76 101 q 36 272 36 207 q 71 455 36 374 q 162 593 106 536 q 288 681 218 650 q 431 711 358 711 q 544 690 493 711 q 632 631 596 669 q 688 540 668 593 q 708 422 708 486 q 674 240 708 321 q 583 101 639 158 q 456 14 526 44 q 314 -17 386 -17 m 406 533 q 349 514 375 533 q 303 460 322 494 q 272 378 283 426 q 261 275 261 331 q 280 192 261 222 q 339 161 299 161 q 396 181 369 161 q 442 234 422 200 q 472 315 461 268 q 483 419 483 363 q 465 503 483 472 q 406 533 446 533 m 231 -317 q 188 -310 208 -317 q 150 -292 167 -304 q 124 -260 133 -279 q 114 -214 114 -240 q 124 -166 114 -189 q 153 -126 135 -143 q 195 -99 171 -110 q 247 -89 219 -89 q 290 -96 269 -89 q 328 -115 311 -103 q 354 -147 344 -128 q 364 -192 364 -167 q 326 -281 364 -246 q 231 -317 288 -317 z "},"ỏ":{"ha":750,"x_min":36,"x_max":708,"o":"m 314 -17 q 200 4 251 -17 q 113 63 149 25 q 56 154 76 101 q 36 272 36 207 q 71 455 36 374 q 162 593 106 536 q 288 681 218 650 q 431 711 358 711 q 544 690 493 711 q 632 631 596 669 q 688 540 668 593 q 708 422 708 486 q 674 240 708 321 q 583 101 639 158 q 456 14 526 44 q 314 -17 386 -17 m 406 533 q 349 514 375 533 q 303 460 322 494 q 272 378 283 426 q 261 275 261 331 q 280 192 261 222 q 339 161 299 161 q 396 181 369 161 q 442 234 422 200 q 472 315 461 268 q 483 419 483 363 q 465 503 483 472 q 406 533 446 533 m 439 1050 q 540 1040 499 1049 q 608 1017 582 1032 q 644 983 633 1003 q 656 939 656 963 q 638 869 656 899 q 590 819 621 839 q 519 788 560 799 q 433 772 479 776 l 428 861 q 474 874 456 865 q 492 903 492 882 q 469 928 492 919 q 394 942 447 938 l 439 1050 z "},"ố":{"ha":750,"x_min":36,"x_max":914,"o":"m 314 -17 q 200 4 251 -17 q 113 63 149 25 q 56 154 76 101 q 36 272 36 207 q 71 455 36 374 q 162 593 106 536 q 288 681 218 650 q 431 711 358 711 q 544 690 493 711 q 632 631 596 669 q 688 540 668 593 q 708 422 708 486 q 674 240 708 321 q 583 101 639 158 q 456 14 526 44 q 314 -17 386 -17 m 406 533 q 349 514 375 533 q 303 460 322 494 q 272 378 283 426 q 261 275 261 331 q 280 192 261 222 q 339 161 299 161 q 396 181 369 161 q 442 234 422 200 q 472 315 461 268 q 483 419 483 363 q 465 503 483 472 q 406 533 446 533 m 411 978 l 586 978 l 656 797 l 528 797 l 486 883 l 481 883 l 408 797 l 267 797 l 411 978 m 753 1064 l 914 1064 l 753 897 l 633 897 l 753 1064 z "},"ồ":{"ha":750,"x_min":36,"x_max":833,"o":"m 314 -17 q 200 4 251 -17 q 113 63 149 25 q 56 154 76 101 q 36 272 36 207 q 71 455 36 374 q 162 593 106 536 q 288 681 218 650 q 431 711 358 711 q 544 690 493 711 q 632 631 596 669 q 688 540 668 593 q 708 422 708 486 q 674 240 708 321 q 583 101 639 158 q 456 14 526 44 q 314 -17 386 -17 m 406 533 q 349 514 375 533 q 303 460 322 494 q 272 378 283 426 q 261 275 261 331 q 280 192 261 222 q 339 161 299 161 q 396 181 369 161 q 442 234 422 200 q 472 315 461 268 q 483 419 483 363 q 465 503 483 472 q 406 533 446 533 m 833 897 l 711 897 l 617 1064 l 778 1064 l 833 897 m 411 978 l 586 978 l 656 797 l 528 797 l 486 883 l 481 883 l 408 797 l 267 797 l 411 978 z "},"ổ":{"ha":750,"x_min":36,"x_max":864,"o":"m 314 -17 q 200 4 251 -17 q 113 63 149 25 q 56 154 76 101 q 36 272 36 207 q 71 455 36 374 q 162 593 106 536 q 288 681 218 650 q 431 711 358 711 q 544 690 493 711 q 632 631 596 669 q 688 540 668 593 q 708 422 708 486 q 674 240 708 321 q 583 101 639 158 q 456 14 526 44 q 314 -17 386 -17 m 406 533 q 349 514 375 533 q 303 460 322 494 q 272 378 283 426 q 261 275 261 331 q 280 192 261 222 q 339 161 299 161 q 396 181 369 161 q 442 234 422 200 q 472 315 461 268 q 483 419 483 363 q 465 503 483 472 q 406 533 446 533 m 675 1117 q 822 1087 781 1113 q 864 1022 864 1061 q 849 956 864 982 q 807 913 833 929 q 745 887 781 896 q 669 872 710 878 l 669 944 q 703 960 693 951 q 714 989 714 968 q 698 1013 714 1004 q 636 1025 682 1021 l 675 1117 m 411 978 l 586 978 l 656 797 l 528 797 l 486 883 l 481 883 l 408 797 l 267 797 l 411 978 z "},"ỗ":{"ha":750,"x_min":36,"x_max":733,"o":"m 314 -17 q 200 4 251 -17 q 113 63 149 25 q 56 154 76 101 q 36 272 36 207 q 71 455 36 374 q 162 593 106 536 q 288 681 218 650 q 431 711 358 711 q 544 690 493 711 q 632 631 596 669 q 688 540 668 593 q 708 422 708 486 q 674 240 708 321 q 583 101 639 158 q 456 14 526 44 q 314 -17 386 -17 m 406 533 q 349 514 375 533 q 303 460 322 494 q 272 378 283 426 q 261 275 261 331 q 280 192 261 222 q 339 161 299 161 q 396 181 369 161 q 442 234 422 200 q 472 315 461 268 q 483 419 483 363 q 465 503 483 472 q 406 533 446 533 m 667 797 l 531 797 l 483 875 l 478 875 l 406 797 l 256 797 l 392 953 l 594 953 l 667 797 m 297 1003 q 368 1128 325 1089 q 456 1167 411 1167 q 496 1159 478 1167 q 528 1142 514 1151 q 556 1124 543 1132 q 583 1117 569 1117 q 613 1128 599 1117 q 639 1167 628 1139 l 733 1167 q 663 1042 706 1081 q 575 1003 619 1003 q 534 1010 551 1003 q 502 1028 517 1018 q 474 1045 488 1038 q 447 1053 461 1053 q 419 1042 432 1053 q 394 1003 406 1031 l 297 1003 z "},"ộ":{"ha":750,"x_min":36,"x_max":708,"o":"m 314 -17 q 200 4 251 -17 q 113 63 149 25 q 56 154 76 101 q 36 272 36 207 q 71 455 36 374 q 162 593 106 536 q 288 681 218 650 q 431 711 358 711 q 544 690 493 711 q 632 631 596 669 q 688 540 668 593 q 708 422 708 486 q 674 240 708 321 q 583 101 639 158 q 456 14 526 44 q 314 -17 386 -17 m 406 533 q 349 514 375 533 q 303 460 322 494 q 272 378 283 426 q 261 275 261 331 q 280 192 261 222 q 339 161 299 161 q 396 181 369 161 q 442 234 422 200 q 472 315 461 268 q 483 419 483 363 q 465 503 483 472 q 406 533 446 533 m 417 1008 l 592 1008 l 678 797 l 536 797 l 492 903 l 486 903 l 400 797 l 247 797 l 417 1008 m 231 -317 q 188 -310 208 -317 q 150 -292 167 -304 q 124 -260 133 -279 q 114 -214 114 -240 q 124 -166 114 -189 q 153 -126 135 -143 q 195 -99 171 -110 q 247 -89 219 -89 q 290 -96 269 -89 q 328 -115 311 -103 q 354 -147 344 -128 q 364 -192 364 -167 q 326 -281 364 -246 q 231 -317 288 -317 z "},"ø":{"ha":750,"x_min":0,"x_max":750,"o":"m 275 178 q 331 156 294 156 q 407 179 375 156 q 460 240 439 203 q 490 323 481 278 q 500 410 500 368 l 275 178 m 471 513 q 414 539 449 539 q 338 515 369 539 q 286 452 307 490 q 255 368 265 414 q 244 279 244 322 l 471 513 m 668 583 q 708 422 708 515 q 674 238 708 319 q 583 101 639 157 q 456 14 526 44 q 314 -17 386 -17 q 140 39 213 -17 l 67 -36 l 0 28 l 78 108 q 47 183 58 142 q 36 272 36 224 q 71 455 36 374 q 162 593 106 536 q 288 681 218 650 q 431 711 358 711 q 608 653 535 711 l 681 728 l 750 667 l 668 583 z "},"œ":{"ha":1100,"x_min":36,"x_max":1061,"o":"m 300 -17 q 192 4 240 -17 q 108 63 143 25 q 55 154 74 101 q 36 272 36 207 q 70 455 36 374 q 158 593 104 536 q 281 681 213 650 q 417 711 349 711 q 533 681 490 711 q 608 594 576 651 q 715 681 657 651 q 831 711 774 711 q 938 690 894 711 q 1009 633 982 669 q 1049 549 1036 597 q 1061 447 1061 501 q 1056 394 1061 421 q 1045 345 1051 368 q 1033 305 1039 322 q 1022 281 1026 288 l 661 281 q 701 181 664 211 q 792 150 738 150 q 853 164 821 150 q 908 194 885 178 l 986 56 q 879 5 944 26 q 728 -17 814 -17 q 617 14 667 -17 q 536 103 568 44 q 424 14 486 44 q 300 -17 363 -17 m 392 533 q 343 514 367 533 q 301 460 319 494 q 272 378 283 426 q 261 275 261 331 q 280 192 261 222 q 339 161 299 161 q 390 181 365 161 q 431 234 414 200 q 459 315 449 268 q 469 419 469 363 q 451 503 469 472 q 392 533 432 533 m 875 414 q 879 434 878 422 q 881 458 881 446 q 864 518 881 494 q 803 542 847 542 q 733 511 767 542 q 678 414 699 481 l 875 414 z "},"ơ":{"ha":758,"x_min":36,"x_max":831,"o":"m 339 161 q 396 181 369 161 q 442 234 422 200 q 472 315 461 268 q 483 419 483 363 q 465 503 483 472 q 406 533 446 533 q 349 514 375 533 q 303 460 322 494 q 272 378 283 426 q 261 275 261 331 q 280 192 261 222 q 339 161 299 161 m 811 881 q 831 789 831 838 q 789 678 831 726 q 653 606 747 629 q 708 422 708 531 q 674 240 708 321 q 583 101 639 158 q 456 14 526 44 q 314 -17 386 -17 q 200 4 251 -17 q 113 63 149 25 q 56 154 76 101 q 36 272 36 207 q 71 455 36 374 q 162 593 106 536 q 288 681 218 650 q 431 711 358 711 q 564 681 506 711 q 633 718 608 690 q 658 778 658 746 q 647 831 658 804 l 811 881 z "},"ớ":{"ha":758,"x_min":36,"x_max":831,"o":"m 339 161 q 396 181 369 161 q 442 234 422 200 q 472 315 461 268 q 483 419 483 363 q 465 503 483 472 q 406 533 446 533 q 349 514 375 533 q 303 460 322 494 q 272 378 283 426 q 261 275 261 331 q 280 192 261 222 q 339 161 299 161 m 811 881 q 831 789 831 838 q 789 678 831 726 q 653 606 747 629 q 708 422 708 531 q 674 240 708 321 q 583 101 639 158 q 456 14 526 44 q 314 -17 386 -17 q 200 4 251 -17 q 113 63 149 25 q 56 154 76 101 q 36 272 36 207 q 71 455 36 374 q 162 593 106 536 q 288 681 218 650 q 431 711 358 711 q 564 681 506 711 q 633 718 608 690 q 658 778 658 746 q 647 831 658 804 l 811 881 m 472 1008 l 692 1008 l 478 797 l 311 797 l 472 1008 z "},"ờ":{"ha":758,"x_min":36,"x_max":831,"o":"m 339 161 q 396 181 369 161 q 442 234 422 200 q 472 315 461 268 q 483 419 483 363 q 465 503 483 472 q 406 533 446 533 q 349 514 375 533 q 303 460 322 494 q 272 378 283 426 q 261 275 261 331 q 280 192 261 222 q 339 161 299 161 m 811 881 q 831 789 831 838 q 789 678 831 726 q 653 606 747 629 q 708 422 708 531 q 674 240 708 321 q 583 101 639 158 q 456 14 526 44 q 314 -17 386 -17 q 200 4 251 -17 q 113 63 149 25 q 56 154 76 101 q 36 272 36 207 q 71 455 36 374 q 162 593 106 536 q 288 681 218 650 q 431 711 358 711 q 564 681 506 711 q 633 718 608 690 q 658 778 658 746 q 647 831 658 804 l 811 881 m 264 1008 l 467 1008 l 544 797 l 392 797 l 264 1008 z "},"ở":{"ha":758,"x_min":36,"x_max":831,"o":"m 339 161 q 396 181 369 161 q 442 234 422 200 q 472 315 461 268 q 483 419 483 363 q 465 503 483 472 q 406 533 446 533 q 349 514 375 533 q 303 460 322 494 q 272 378 283 426 q 261 275 261 331 q 280 192 261 222 q 339 161 299 161 m 811 881 q 831 789 831 838 q 789 678 831 726 q 653 606 747 629 q 708 422 708 531 q 674 240 708 321 q 583 101 639 158 q 456 14 526 44 q 314 -17 386 -17 q 200 4 251 -17 q 113 63 149 25 q 56 154 76 101 q 36 272 36 207 q 71 455 36 374 q 162 593 106 536 q 288 681 218 650 q 431 711 358 711 q 564 681 506 711 q 633 718 608 690 q 658 778 658 746 q 647 831 658 804 l 811 881 m 411 1050 q 513 1040 471 1049 q 580 1017 554 1032 q 617 983 606 1003 q 628 939 628 963 q 610 869 628 899 q 563 819 593 839 q 492 788 532 799 q 406 772 451 776 l 400 861 q 446 874 428 865 q 464 903 464 882 q 442 928 464 919 q 367 942 419 938 l 411 1050 z "},"ỡ":{"ha":758,"x_min":36,"x_max":831,"o":"m 339 161 q 396 181 369 161 q 442 234 422 200 q 472 315 461 268 q 483 419 483 363 q 465 503 483 472 q 406 533 446 533 q 349 514 375 533 q 303 460 322 494 q 272 378 283 426 q 261 275 261 331 q 280 192 261 222 q 339 161 299 161 m 811 881 q 831 789 831 838 q 789 678 831 726 q 653 606 747 629 q 708 422 708 531 q 674 240 708 321 q 583 101 639 158 q 456 14 526 44 q 314 -17 386 -17 q 200 4 251 -17 q 113 63 149 25 q 56 154 76 101 q 36 272 36 207 q 71 455 36 374 q 162 593 106 536 q 288 681 218 650 q 431 711 358 711 q 564 681 506 711 q 633 718 608 690 q 658 778 658 746 q 647 831 658 804 l 811 881 m 211 800 q 288 945 239 899 q 388 992 336 992 q 441 983 419 992 q 480 963 463 974 q 513 942 497 951 q 550 933 529 933 q 577 945 565 933 q 603 989 589 957 l 717 989 q 640 844 689 890 q 540 797 592 797 q 487 806 508 797 q 448 826 465 815 q 415 847 431 838 q 378 856 399 856 q 351 844 363 856 q 325 800 339 832 l 211 800 z "},"ợ":{"ha":758,"x_min":36,"x_max":831,"o":"m 339 161 q 396 181 369 161 q 442 234 422 200 q 472 315 461 268 q 483 419 483 363 q 465 503 483 472 q 406 533 446 533 q 349 514 375 533 q 303 460 322 494 q 272 378 283 426 q 261 275 261 331 q 280 192 261 222 q 339 161 299 161 m 811 881 q 831 789 831 838 q 789 678 831 726 q 653 606 747 629 q 708 422 708 531 q 674 240 708 321 q 583 101 639 158 q 456 14 526 44 q 314 -17 386 -17 q 200 4 251 -17 q 113 63 149 25 q 56 154 76 101 q 36 272 36 207 q 71 455 36 374 q 162 593 106 536 q 288 681 218 650 q 431 711 358 711 q 564 681 506 711 q 633 718 608 690 q 658 778 658 746 q 647 831 658 804 l 811 881 m 231 -317 q 188 -310 208 -317 q 150 -292 167 -304 q 124 -260 133 -279 q 114 -214 114 -240 q 124 -166 114 -189 q 153 -126 135 -143 q 195 -99 171 -110 q 247 -89 219 -89 q 290 -96 269 -89 q 328 -115 311 -103 q 354 -147 344 -128 q 364 -192 364 -167 q 326 -281 364 -246 q 231 -317 288 -317 z "},"ǫ":{"ha":750,"x_min":36,"x_max":708,"o":"m 133 -189 q 148 -124 133 -154 q 181 -71 163 -94 q 219 -31 200 -47 q 247 -8 238 -15 q 94 84 153 13 q 36 272 36 156 q 71 455 36 374 q 162 593 106 536 q 288 681 218 650 q 431 711 358 711 q 540 692 489 711 q 628 635 590 672 q 687 544 665 599 q 708 422 708 490 q 685 263 708 332 q 621 143 661 194 q 527 56 581 92 q 414 -3 474 21 q 319 -65 347 -31 q 292 -125 292 -99 q 306 -154 292 -144 q 339 -164 319 -164 q 381 -150 357 -164 l 417 -239 q 340 -278 385 -262 q 258 -294 296 -294 q 169 -268 204 -294 q 133 -189 133 -242 m 406 533 q 349 514 375 533 q 303 460 322 494 q 272 378 283 426 q 261 275 261 331 q 280 192 261 222 q 339 161 299 161 q 396 181 369 161 q 442 234 422 200 q 472 315 461 268 q 483 419 483 363 q 465 503 483 472 q 406 533 446 533 z "},"ŕ":{"ha":556,"x_min":11,"x_max":658,"o":"m 147 694 l 328 694 l 322 558 l 328 558 q 424 668 368 625 q 539 711 481 711 q 585 708 568 711 q 614 697 603 704 l 542 506 q 506 515 526 514 q 469 517 486 517 q 387 488 425 517 q 308 389 349 458 l 233 0 l 11 0 l 147 694 m 439 1008 l 658 1008 l 444 797 l 278 797 l 439 1008 z "},"ŗ":{"ha":556,"x_min":-56,"x_max":614,"o":"m 147 694 l 328 694 l 322 558 l 328 558 q 424 668 368 625 q 539 711 481 711 q 585 708 568 711 q 614 697 603 704 l 542 506 q 506 515 526 514 q 469 517 486 517 q 387 488 425 517 q 308 389 349 458 l 233 0 l 11 0 l 147 694 m 72 -50 q 181 -87 143 -61 q 219 -161 219 -112 q 198 -234 219 -206 q 140 -279 176 -262 q 54 -303 103 -296 q -50 -311 6 -310 l -56 -225 q 37 -209 10 -221 q 64 -169 64 -197 q 17 -125 64 -142 l 72 -50 z "},"ř":{"ha":556,"x_min":11,"x_max":661,"o":"m 147 694 l 328 694 l 322 558 l 328 558 q 424 668 368 625 q 539 711 481 711 q 585 708 568 711 q 614 697 603 704 l 542 506 q 506 515 526 514 q 469 517 486 517 q 387 488 425 517 q 308 389 349 458 l 233 0 l 11 0 l 147 694 m 492 797 l 317 797 l 231 1008 l 372 1008 l 417 903 l 422 903 l 508 1008 l 661 1008 l 492 797 z "},"ṛ":{"ha":556,"x_min":-39,"x_max":614,"o":"m 147 694 l 328 694 l 322 558 l 328 558 q 424 668 368 625 q 539 711 481 711 q 585 708 568 711 q 614 697 603 704 l 542 506 q 506 515 526 514 q 469 517 486 517 q 387 488 425 517 q 308 389 349 458 l 233 0 l 11 0 l 147 694 m 78 -317 q 35 -310 56 -317 q -3 -292 14 -304 q -29 -260 -19 -279 q -39 -214 -39 -240 q -28 -166 -39 -189 q 0 -126 -18 -143 q 42 -99 18 -110 q 94 -89 67 -89 q 138 -96 117 -89 q 175 -115 158 -103 q 201 -147 192 -128 q 211 -192 211 -167 q 173 -281 211 -246 q 78 -317 135 -317 z "},"ṝ":{"ha":556,"x_min":-39,"x_max":622,"o":"m 147 694 l 328 694 l 322 558 l 328 558 q 424 668 368 625 q 539 711 481 711 q 585 708 568 711 q 614 697 603 704 l 542 506 q 506 515 526 514 q 469 517 486 517 q 387 488 425 517 q 308 389 349 458 l 233 0 l 11 0 l 147 694 m 242 958 l 622 958 l 594 819 l 214 819 l 242 958 m 78 -317 q 35 -310 56 -317 q -3 -292 14 -304 q -29 -260 -19 -279 q -39 -214 -39 -240 q -28 -166 -39 -189 q 0 -126 -18 -143 q 42 -99 18 -110 q 94 -89 67 -89 q 138 -96 117 -89 q 175 -115 158 -103 q 201 -147 192 -128 q 211 -192 211 -167 q 173 -281 211 -246 q 78 -317 135 -317 z "},"ṟ":{"ha":556,"x_min":-117,"x_max":614,"o":"m 147 694 l 328 694 l 322 558 l 328 558 q 424 668 368 625 q 539 711 481 711 q 585 708 568 711 q 614 697 603 704 l 542 506 q 506 515 526 514 q 469 517 486 517 q 387 488 425 517 q 308 389 349 458 l 233 0 l 11 0 l 147 694 m -89 -114 l 292 -114 l 264 -253 l -117 -253 l -89 -114 z "},"ś":{"ha":600,"x_min":-14,"x_max":650,"o":"m 114 225 q 186 163 151 181 q 253 144 221 144 q 308 158 285 144 q 331 192 331 171 q 322 215 331 206 q 299 235 314 225 q 263 257 285 246 q 214 283 240 268 q 165 317 189 297 q 122 360 140 336 q 92 414 103 385 q 81 478 81 443 q 103 570 81 528 q 163 644 125 613 q 251 693 200 675 q 361 711 303 711 q 494 678 436 711 q 597 600 553 646 l 478 486 q 424 529 453 511 q 361 547 394 547 q 308 533 328 547 q 289 497 289 518 q 299 472 289 482 q 324 451 308 461 q 360 432 340 442 q 400 411 381 422 q 450 380 425 397 q 494 339 475 363 q 526 285 514 315 q 539 217 539 256 q 517 122 539 164 q 455 48 494 79 q 360 0 415 17 q 239 -17 304 -17 q 174 -8 208 -17 q 105 17 139 0 q 40 59 71 33 q -14 119 8 85 l 114 225 m 431 1008 l 650 1008 l 436 797 l 269 797 l 431 1008 z "},"ŝ":{"ha":600,"x_min":-14,"x_max":608,"o":"m 114 225 q 186 163 151 181 q 253 144 221 144 q 308 158 285 144 q 331 192 331 171 q 322 215 331 206 q 299 235 314 225 q 263 257 285 246 q 214 283 240 268 q 165 317 189 297 q 122 360 140 336 q 92 414 103 385 q 81 478 81 443 q 103 570 81 528 q 163 644 125 613 q 251 693 200 675 q 361 711 303 711 q 494 678 436 711 q 597 600 553 646 l 478 486 q 424 529 453 511 q 361 547 394 547 q 308 533 328 547 q 289 497 289 518 q 299 472 289 482 q 324 451 308 461 q 360 432 340 442 q 400 411 381 422 q 450 380 425 397 q 494 339 475 363 q 526 285 514 315 q 539 217 539 256 q 517 122 539 164 q 455 48 494 79 q 360 0 415 17 q 239 -17 304 -17 q 174 -8 208 -17 q 105 17 139 0 q 40 59 71 33 q -14 119 8 85 l 114 225 m 347 1008 l 522 1008 l 608 797 l 467 797 l 422 903 l 417 903 l 331 797 l 178 797 l 347 1008 z "},"š":{"ha":600,"x_min":-14,"x_max":653,"o":"m 114 225 q 186 163 151 181 q 253 144 221 144 q 308 158 285 144 q 331 192 331 171 q 322 215 331 206 q 299 235 314 225 q 263 257 285 246 q 214 283 240 268 q 165 317 189 297 q 122 360 140 336 q 92 414 103 385 q 81 478 81 443 q 103 570 81 528 q 163 644 125 613 q 251 693 200 675 q 361 711 303 711 q 494 678 436 711 q 597 600 553 646 l 478 486 q 424 529 453 511 q 361 547 394 547 q 308 533 328 547 q 289 497 289 518 q 299 472 289 482 q 324 451 308 461 q 360 432 340 442 q 400 411 381 422 q 450 380 425 397 q 494 339 475 363 q 526 285 514 315 q 539 217 539 256 q 517 122 539 164 q 455 48 494 79 q 360 0 415 17 q 239 -17 304 -17 q 174 -8 208 -17 q 105 17 139 0 q 40 59 71 33 q -14 119 8 85 l 114 225 m 483 797 l 308 797 l 222 1008 l 364 1008 l 408 903 l 414 903 l 500 1008 l 653 1008 l 483 797 z "},"ş":{"ha":600,"x_min":-14,"x_max":597,"o":"m 114 225 q 186 163 151 181 q 253 144 221 144 q 308 158 285 144 q 331 192 331 171 q 322 215 331 206 q 299 235 314 225 q 263 257 285 246 q 214 283 240 268 q 165 317 189 297 q 122 360 140 336 q 92 414 103 385 q 81 478 81 443 q 103 570 81 528 q 163 644 125 613 q 251 693 200 675 q 361 711 303 711 q 494 678 436 711 q 597 600 553 646 l 478 486 q 424 529 453 511 q 361 547 394 547 q 308 533 328 547 q 289 497 289 518 q 299 472 289 482 q 324 451 308 461 q 360 432 340 442 q 400 411 381 422 q 450 380 425 397 q 494 339 475 363 q 526 285 514 315 q 539 217 539 256 q 517 122 539 164 q 455 48 494 79 q 360 0 415 17 q 239 -17 304 -17 q 174 -8 208 -17 q 105 17 139 0 q 40 59 71 33 q -14 119 8 85 l 114 225 m 178 6 l 306 6 l 267 -58 q 311 -89 294 -69 q 328 -142 328 -108 q 305 -215 328 -185 q 243 -266 282 -246 q 153 -297 204 -286 q 47 -308 103 -307 l 42 -222 q 128 -203 92 -218 q 164 -158 164 -187 q 152 -130 164 -143 q 103 -106 140 -117 l 178 6 z "},"ș":{"ha":600,"x_min":-14,"x_max":597,"o":"m 114 225 q 186 163 151 181 q 253 144 221 144 q 308 158 285 144 q 331 192 331 171 q 322 215 331 206 q 299 235 314 225 q 263 257 285 246 q 214 283 240 268 q 165 317 189 297 q 122 360 140 336 q 92 414 103 385 q 81 478 81 443 q 103 570 81 528 q 163 644 125 613 q 251 693 200 675 q 361 711 303 711 q 494 678 436 711 q 597 600 553 646 l 478 486 q 424 529 453 511 q 361 547 394 547 q 308 533 328 547 q 289 497 289 518 q 299 472 289 482 q 324 451 308 461 q 360 432 340 442 q 400 411 381 422 q 450 380 425 397 q 494 339 475 363 q 526 285 514 315 q 539 217 539 256 q 517 122 539 164 q 455 48 494 79 q 360 0 415 17 q 239 -17 304 -17 q 174 -8 208 -17 q 105 17 139 0 q 40 59 71 33 q -14 119 8 85 l 114 225 m 200 -50 q 309 -87 271 -61 q 347 -161 347 -112 q 326 -234 347 -206 q 267 -279 304 -262 q 182 -303 231 -296 q 78 -311 133 -310 l 72 -225 q 165 -209 138 -221 q 192 -169 192 -197 q 144 -125 192 -142 l 200 -50 z "}}}
